<ttFont>
    <TTGlyph name=".notdef" xMin="63" yMin="0" xMax="437" yMax="741">
      <contour>
        <pt x="437" y="0" on="1"/>
        <pt x="63" y="0" on="1"/>
        <pt x="63" y="741" on="1"/>
        <pt x="437" y="741" on="1"/>
      </contour>
      <contour>
        <pt x="124" y="678" on="1"/>
        <pt x="124" y="63" on="1"/>
        <pt x="374" y="63" on="1"/>
        <pt x="374" y="678" on="1"/>
      </contour>
    </TTGlyph>
    <TTGlyph name="A" xMin="31" yMin="0" xMax="725" yMax="708">
      <contour>
        <pt x="725" y="31" on="1"/>
        <pt x="725" y="0" on="1"/>
        <pt x="465" y="0" on="1"/>
        <pt x="465" y="31" on="1"/>
        <pt x="545" y="31" on="1"/>
        <pt x="477" y="228" on="1"/>
        <pt x="236" y="228" on="1"/>
        <pt x="198" y="138" on="1"/>
        <pt x="180" y="92" on="0"/>
        <pt x="180" y="49" on="0"/>
        <pt x="192" y="31" on="0"/>
        <pt x="249" y="31" on="1"/>
        <pt x="249" y="0" on="1"/>
        <pt x="31" y="0" on="1"/>
        <pt x="31" y="31" on="1"/>
        <pt x="83" y="30" on="0"/>
        <pt x="130" y="59" on="0"/>
        <pt x="158" y="138" on="1"/>
        <pt x="375" y="708" on="1"/>
        <pt x="415" y="708" on="1"/>
        <pt x="651" y="31" on="1"/>
      </contour>
      <contour>
        <pt x="250" y="266" on="1"/>
        <pt x="463" y="266" on="1"/>
        <pt x="364" y="559" on="1"/>
      </contour>
    </TTGlyph>
    <TTGlyph name="AE" xMin="24" yMin="0" xMax="1051" yMax="689">
      <contour>
        <pt x="1019" y="239" on="1"/>
        <pt x="1051" y="239" on="1"/>
        <pt x="1040" y="0" on="1"/>
        <pt x="459" y="0" on="1"/>
        <pt x="459" y="31" on="1"/>
        <pt x="553" y="31" on="1"/>
        <pt x="553" y="228" on="1"/>
        <pt x="299" y="228" on="1"/>
        <pt x="220" y="124" on="1"/>
        <pt x="180" y="72" on="0"/>
        <pt x="180" y="54" on="1"/>
        <pt x="180" y="31" on="0"/>
        <pt x="203" y="31" on="1"/>
        <pt x="242" y="31" on="1"/>
        <pt x="242" y="0" on="1"/>
        <pt x="24" y="0" on="1"/>
        <pt x="24" y="31" on="1"/>
        <pt x="64" y="36" on="0"/>
        <pt x="101" y="48" on="1"/>
        <pt x="119" y="59" on="0"/>
        <pt x="168" y="125" on="1"/>
        <pt x="553" y="658" on="1"/>
        <pt x="459" y="658" on="1"/>
        <pt x="459" y="689" on="1"/>
        <pt x="1024" y="689" on="1"/>
        <pt x="1026" y="486" on="1"/>
        <pt x="995" y="486" on="1"/>
        <pt x="988" y="573" on="0"/>
        <pt x="907" y="654" on="0"/>
        <pt x="813" y="656" on="1"/>
        <pt x="642" y="658" on="1"/>
        <pt x="642" y="368" on="1"/>
        <pt x="764" y="368" on="1"/>
        <pt x="850" y="368" on="0"/>
        <pt x="850" y="486" on="1"/>
        <pt x="882" y="486" on="1"/>
        <pt x="882" y="209" on="1"/>
        <pt x="850" y="209" on="1"/>
        <pt x="850" y="268" on="0"/>
        <pt x="802" y="334" on="0"/>
        <pt x="764" y="334" on="1"/>
        <pt x="642" y="334" on="1"/>
        <pt x="642" y="31" on="1"/>
        <pt x="829" y="34" on="1"/>
        <pt x="857" y="34" on="0"/>
        <pt x="936" y="64" on="0"/>
        <pt x="955" y="83" on="1"/>
        <pt x="1014" y="138" on="0"/>
      </contour>
      <contour>
        <pt x="323" y="266" on="1"/>
        <pt x="553" y="266" on="1"/>
        <pt x="553" y="587" on="1"/>
      </contour>
    </TTGlyph>
    <TTGlyph name="AEacute" xMin="28" yMin="0" xMax="1055" yMax="943">
      <contour>
        <pt x="1023" y="239" on="1"/>
        <pt x="1055" y="239" on="1"/>
        <pt x="1044" y="0" on="1"/>
        <pt x="463" y="0" on="1"/>
        <pt x="463" y="31" on="1"/>
        <pt x="557" y="31" on="1"/>
        <pt x="557" y="228" on="1"/>
        <pt x="303" y="228" on="1"/>
        <pt x="224" y="124" on="1"/>
        <pt x="184" y="72" on="0"/>
        <pt x="184" y="54" on="1"/>
        <pt x="184" y="31" on="0"/>
        <pt x="207" y="31" on="1"/>
        <pt x="246" y="31" on="1"/>
        <pt x="246" y="0" on="1"/>
        <pt x="28" y="0" on="1"/>
        <pt x="28" y="31" on="1"/>
        <pt x="68" y="36" on="0"/>
        <pt x="105" y="48" on="1"/>
        <pt x="123" y="59" on="0"/>
        <pt x="172" y="125" on="1"/>
        <pt x="557" y="658" on="1"/>
        <pt x="463" y="658" on="1"/>
        <pt x="463" y="689" on="1"/>
        <pt x="1028" y="689" on="1"/>
        <pt x="1030" y="486" on="1"/>
        <pt x="999" y="486" on="1"/>
        <pt x="992" y="573" on="0"/>
        <pt x="911" y="654" on="0"/>
        <pt x="817" y="656" on="1"/>
        <pt x="646" y="658" on="1"/>
        <pt x="646" y="368" on="1"/>
        <pt x="768" y="368" on="1"/>
        <pt x="854" y="368" on="0"/>
        <pt x="854" y="486" on="1"/>
        <pt x="886" y="486" on="1"/>
        <pt x="886" y="209" on="1"/>
        <pt x="854" y="209" on="1"/>
        <pt x="854" y="268" on="0"/>
        <pt x="806" y="334" on="0"/>
        <pt x="768" y="334" on="1"/>
        <pt x="646" y="334" on="1"/>
        <pt x="646" y="31" on="1"/>
        <pt x="833" y="34" on="1"/>
        <pt x="861" y="34" on="0"/>
        <pt x="940" y="64" on="0"/>
        <pt x="959" y="83" on="1"/>
        <pt x="1018" y="138" on="0"/>
      </contour>
      <contour>
        <pt x="327" y="266" on="1"/>
        <pt x="557" y="266" on="1"/>
        <pt x="557" y="587" on="1"/>
      </contour>
      <contour>
        <pt x="761" y="907" on="1"/>
        <pt x="761" y="886" on="0"/>
        <pt x="748" y="873" on="1"/>
        <pt x="615" y="737" on="1"/>
        <pt x="594" y="742" on="1"/>
        <pt x="691" y="923" on="1"/>
        <pt x="702" y="943" on="0"/>
        <pt x="728" y="943" on="1"/>
        <pt x="761" y="943" on="0"/>
      </contour>
    </TTGlyph>
    <TTGlyph name="AEsmall" xMin="11" yMin="0" xMax="725" yMax="453">
      <contour>
        <pt x="698" y="158" on="1"/>
        <pt x="725" y="158" on="1"/>
        <pt x="717" y="0" on="1"/>
        <pt x="302" y="0" on="1"/>
        <pt x="302" y="21" on="1"/>
        <pt x="365" y="21" on="1"/>
        <pt x="365" y="150" on="1"/>
        <pt x="197" y="150" on="1"/>
        <pt x="145" y="81" on="1"/>
        <pt x="119" y="46" on="0"/>
        <pt x="119" y="32" on="0"/>
        <pt x="123" y="21" on="0"/>
        <pt x="159" y="21" on="1"/>
        <pt x="159" y="0" on="1"/>
        <pt x="11" y="0" on="1"/>
        <pt x="11" y="21" on="1"/>
        <pt x="30" y="23" on="0"/>
        <pt x="62" y="32" on="1"/>
        <pt x="78" y="43" on="0"/>
        <pt x="106" y="83" on="1"/>
        <pt x="359" y="433" on="1"/>
        <pt x="302" y="433" on="1"/>
        <pt x="302" y="453" on="1"/>
        <pt x="706" y="453" on="1"/>
        <pt x="707" y="320" on="1"/>
        <pt x="679" y="320" on="1"/>
        <pt x="673" y="374" on="0"/>
        <pt x="619" y="426" on="0"/>
        <pt x="559" y="427" on="1"/>
        <pt x="454" y="429" on="1"/>
        <pt x="454" y="243" on="1"/>
        <pt x="531" y="243" on="1"/>
        <pt x="589" y="243" on="0"/>
        <pt x="589" y="320" on="1"/>
        <pt x="613" y="320" on="1"/>
        <pt x="613" y="137" on="1"/>
        <pt x="589" y="137" on="1"/>
        <pt x="589" y="175" on="0"/>
        <pt x="556" y="217" on="0"/>
        <pt x="531" y="217" on="1"/>
        <pt x="454" y="217" on="1"/>
        <pt x="454" y="24" on="1"/>
        <pt x="573" y="26" on="1"/>
        <pt x="622" y="26" on="0"/>
        <pt x="695" y="96" on="0"/>
      </contour>
      <contour>
        <pt x="213" y="175" on="1"/>
        <pt x="365" y="175" on="1"/>
        <pt x="365" y="387" on="1"/>
      </contour>
    </TTGlyph>
    <TTGlyph name="Aacute" xMin="31" yMin="0" xMax="725" yMax="944">
      <contour>
        <pt x="725" y="31" on="1"/>
        <pt x="725" y="0" on="1"/>
        <pt x="465" y="0" on="1"/>
        <pt x="465" y="31" on="1"/>
        <pt x="545" y="31" on="1"/>
        <pt x="477" y="228" on="1"/>
        <pt x="236" y="228" on="1"/>
        <pt x="198" y="138" on="1"/>
        <pt x="180" y="92" on="0"/>
        <pt x="180" y="49" on="0"/>
        <pt x="192" y="31" on="0"/>
        <pt x="249" y="31" on="1"/>
        <pt x="249" y="0" on="1"/>
        <pt x="31" y="0" on="1"/>
        <pt x="31" y="31" on="1"/>
        <pt x="83" y="30" on="0"/>
        <pt x="130" y="59" on="0"/>
        <pt x="158" y="138" on="1"/>
        <pt x="375" y="708" on="1"/>
        <pt x="415" y="708" on="1"/>
        <pt x="651" y="31" on="1"/>
      </contour>
      <contour>
        <pt x="250" y="266" on="1"/>
        <pt x="463" y="266" on="1"/>
        <pt x="364" y="559" on="1"/>
      </contour>
      <contour>
        <pt x="553" y="908" on="1"/>
        <pt x="553" y="887" on="0"/>
        <pt x="540" y="874" on="1"/>
        <pt x="407" y="738" on="1"/>
        <pt x="386" y="743" on="1"/>
        <pt x="483" y="924" on="1"/>
        <pt x="494" y="944" on="0"/>
        <pt x="520" y="944" on="1"/>
        <pt x="553" y="944" on="0"/>
      </contour>
    </TTGlyph>
    <TTGlyph name="Aacutesmall" xMin="15" yMin="0" xMax="504" yMax="678">
      <contour>
        <pt x="504" y="21" on="1"/>
        <pt x="504" y="0" on="1"/>
        <pt x="301" y="0" on="1"/>
        <pt x="301" y="21" on="1"/>
        <pt x="353" y="21" on="1"/>
        <pt x="310" y="150" on="1"/>
        <pt x="150" y="150" on="1"/>
        <pt x="126" y="90" on="1"/>
        <pt x="113" y="60" on="0"/>
        <pt x="113" y="31" on="0"/>
        <pt x="122" y="21" on="0"/>
        <pt x="159" y="21" on="1"/>
        <pt x="159" y="0" on="1"/>
        <pt x="15" y="0" on="1"/>
        <pt x="15" y="21" on="1"/>
        <pt x="50" y="18" on="0"/>
        <pt x="63" y="27" on="1"/>
        <pt x="80" y="40" on="0"/>
        <pt x="99" y="90" on="1"/>
        <pt x="242" y="466" on="1"/>
        <pt x="299" y="466" on="1"/>
        <pt x="454" y="21" on="1"/>
      </contour>
      <contour>
        <pt x="160" y="175" on="1"/>
        <pt x="299" y="175" on="1"/>
        <pt x="233" y="368" on="1"/>
      </contour>
      <contour>
        <pt x="417" y="650" on="1"/>
        <pt x="417" y="633" on="0"/>
        <pt x="406" y="622" on="1"/>
        <pt x="287" y="513" on="1"/>
        <pt x="266" y="517" on="1"/>
        <pt x="354" y="662" on="1"/>
        <pt x="363" y="678" on="0"/>
        <pt x="387" y="678" on="1"/>
        <pt x="417" y="678" on="0"/>
      </contour>
    </TTGlyph>
    <TTGlyph name="Abreve" xMin="31" yMin="0" xMax="725" yMax="901">
      <contour>
        <pt x="725" y="31" on="1"/>
        <pt x="725" y="0" on="1"/>
        <pt x="465" y="0" on="1"/>
        <pt x="465" y="31" on="1"/>
        <pt x="545" y="31" on="1"/>
        <pt x="477" y="228" on="1"/>
        <pt x="236" y="228" on="1"/>
        <pt x="198" y="138" on="1"/>
        <pt x="180" y="92" on="0"/>
        <pt x="180" y="49" on="0"/>
        <pt x="192" y="31" on="0"/>
        <pt x="249" y="31" on="1"/>
        <pt x="249" y="0" on="1"/>
        <pt x="31" y="0" on="1"/>
        <pt x="31" y="31" on="1"/>
        <pt x="83" y="30" on="0"/>
        <pt x="130" y="59" on="0"/>
        <pt x="158" y="138" on="1"/>
        <pt x="375" y="708" on="1"/>
        <pt x="415" y="708" on="1"/>
        <pt x="651" y="31" on="1"/>
      </contour>
      <contour>
        <pt x="250" y="266" on="1"/>
        <pt x="463" y="266" on="1"/>
        <pt x="364" y="559" on="1"/>
      </contour>
      <contour>
        <pt x="528" y="901" on="1"/>
        <pt x="531" y="898" on="1"/>
        <pt x="531" y="832" on="0"/>
        <pt x="450" y="744" on="0"/>
        <pt x="317" y="744" on="0"/>
        <pt x="235" y="829" on="0"/>
        <pt x="235" y="898" on="1"/>
        <pt x="238" y="901" on="1"/>
        <pt x="264" y="901" on="1"/>
        <pt x="284" y="808" on="0"/>
        <pt x="486" y="808" on="0"/>
        <pt x="502" y="901" on="1"/>
      </contour>
    </TTGlyph>
    <TTGlyph name="Abreveacute" xMin="31" yMin="0" xMax="725" yMax="1033">
      <contour>
        <pt x="725" y="31" on="1"/>
        <pt x="725" y="0" on="1"/>
        <pt x="465" y="0" on="1"/>
        <pt x="465" y="31" on="1"/>
        <pt x="545" y="31" on="1"/>
        <pt x="477" y="228" on="1"/>
        <pt x="236" y="228" on="1"/>
        <pt x="198" y="138" on="1"/>
        <pt x="180" y="92" on="0"/>
        <pt x="180" y="49" on="0"/>
        <pt x="192" y="31" on="0"/>
        <pt x="249" y="31" on="1"/>
        <pt x="249" y="0" on="1"/>
        <pt x="31" y="0" on="1"/>
        <pt x="31" y="31" on="1"/>
        <pt x="83" y="30" on="0"/>
        <pt x="130" y="59" on="0"/>
        <pt x="158" y="138" on="1"/>
        <pt x="375" y="708" on="1"/>
        <pt x="415" y="708" on="1"/>
        <pt x="651" y="31" on="1"/>
      </contour>
      <contour>
        <pt x="250" y="266" on="1"/>
        <pt x="463" y="266" on="1"/>
        <pt x="364" y="559" on="1"/>
      </contour>
      <contour>
        <pt x="545" y="895" on="1"/>
        <pt x="547" y="891" on="1"/>
        <pt x="547" y="825" on="0"/>
        <pt x="466" y="738" on="0"/>
        <pt x="334" y="738" on="0"/>
        <pt x="252" y="822" on="0"/>
        <pt x="252" y="891" on="1"/>
        <pt x="254" y="895" on="1"/>
        <pt x="280" y="895" on="1"/>
        <pt x="299" y="801" on="0"/>
        <pt x="503" y="801" on="0"/>
        <pt x="519" y="895" on="1"/>
      </contour>
      <contour>
        <pt x="552" y="999" on="1"/>
        <pt x="552" y="977" on="0"/>
        <pt x="539" y="964" on="1"/>
        <pt x="407" y="829" on="1"/>
        <pt x="385" y="832" on="1"/>
        <pt x="482" y="1013" on="1"/>
        <pt x="493" y="1033" on="0"/>
        <pt x="519" y="1033" on="1"/>
        <pt x="552" y="1033" on="0"/>
      </contour>
    </TTGlyph>
    <TTGlyph name="Abrevedotbelow" xMin="31" yMin="-241" xMax="725" yMax="893">
      <contour>
        <pt x="725" y="31" on="1"/>
        <pt x="725" y="0" on="1"/>
        <pt x="465" y="0" on="1"/>
        <pt x="465" y="31" on="1"/>
        <pt x="545" y="31" on="1"/>
        <pt x="477" y="228" on="1"/>
        <pt x="236" y="228" on="1"/>
        <pt x="198" y="138" on="1"/>
        <pt x="180" y="92" on="0"/>
        <pt x="180" y="49" on="0"/>
        <pt x="192" y="31" on="0"/>
        <pt x="249" y="31" on="1"/>
        <pt x="249" y="0" on="1"/>
        <pt x="31" y="0" on="1"/>
        <pt x="31" y="31" on="1"/>
        <pt x="83" y="30" on="0"/>
        <pt x="130" y="59" on="0"/>
        <pt x="158" y="138" on="1"/>
        <pt x="375" y="708" on="1"/>
        <pt x="415" y="708" on="1"/>
        <pt x="651" y="31" on="1"/>
      </contour>
      <contour>
        <pt x="250" y="266" on="1"/>
        <pt x="463" y="266" on="1"/>
        <pt x="364" y="559" on="1"/>
      </contour>
      <contour>
        <pt x="537" y="893" on="1"/>
        <pt x="540" y="890" on="1"/>
        <pt x="540" y="824" on="0"/>
        <pt x="459" y="736" on="0"/>
        <pt x="326" y="736" on="0"/>
        <pt x="244" y="821" on="0"/>
        <pt x="244" y="890" on="1"/>
        <pt x="247" y="893" on="1"/>
        <pt x="273" y="893" on="1"/>
        <pt x="292" y="800" on="0"/>
        <pt x="494" y="800" on="0"/>
        <pt x="511" y="893" on="1"/>
      </contour>
      <contour>
        <pt x="390" y="-135" on="0"/>
        <pt x="421" y="-166" on="0"/>
        <pt x="421" y="-210" on="0"/>
        <pt x="389" y="-241" on="0"/>
        <pt x="345" y="-241" on="0"/>
        <pt x="313" y="-210" on="0"/>
        <pt x="313" y="-166" on="0"/>
        <pt x="345" y="-135" on="0"/>
      </contour>
    </TTGlyph>
    <TTGlyph name="Abrevegrave" xMin="31" yMin="0" xMax="725" yMax="1047">
      <contour>
        <pt x="725" y="31" on="1"/>
        <pt x="725" y="0" on="1"/>
        <pt x="465" y="0" on="1"/>
        <pt x="465" y="31" on="1"/>
        <pt x="545" y="31" on="1"/>
        <pt x="477" y="228" on="1"/>
        <pt x="236" y="228" on="1"/>
        <pt x="198" y="138" on="1"/>
        <pt x="180" y="92" on="0"/>
        <pt x="180" y="49" on="0"/>
        <pt x="192" y="31" on="0"/>
        <pt x="249" y="31" on="1"/>
        <pt x="249" y="0" on="1"/>
        <pt x="31" y="0" on="1"/>
        <pt x="31" y="31" on="1"/>
        <pt x="83" y="30" on="0"/>
        <pt x="130" y="59" on="0"/>
        <pt x="158" y="138" on="1"/>
        <pt x="375" y="708" on="1"/>
        <pt x="415" y="708" on="1"/>
        <pt x="651" y="31" on="1"/>
      </contour>
      <contour>
        <pt x="250" y="266" on="1"/>
        <pt x="463" y="266" on="1"/>
        <pt x="364" y="559" on="1"/>
      </contour>
      <contour>
        <pt x="540" y="901" on="1"/>
        <pt x="543" y="897" on="1"/>
        <pt x="543" y="831" on="0"/>
        <pt x="462" y="743" on="0"/>
        <pt x="329" y="743" on="0"/>
        <pt x="247" y="828" on="0"/>
        <pt x="247" y="897" on="1"/>
        <pt x="250" y="901" on="1"/>
        <pt x="276" y="901" on="1"/>
        <pt x="295" y="807" on="0"/>
        <pt x="498" y="807" on="0"/>
        <pt x="514" y="901" on="1"/>
      </contour>
      <contour>
        <pt x="319" y="1026" on="1"/>
        <pt x="418" y="844" on="1"/>
        <pt x="393" y="844" on="1"/>
        <pt x="255" y="979" on="1"/>
        <pt x="243" y="992" on="0"/>
        <pt x="243" y="1010" on="1"/>
        <pt x="243" y="1047" on="0"/>
        <pt x="282" y="1047" on="1"/>
        <pt x="308" y="1047" on="0"/>
      </contour>
    </TTGlyph>
    <TTGlyph name="Abrevehookabove" xMin="31" yMin="0" xMax="725" yMax="1028">
      <contour>
        <pt x="725" y="31" on="1"/>
        <pt x="725" y="0" on="1"/>
        <pt x="465" y="0" on="1"/>
        <pt x="465" y="31" on="1"/>
        <pt x="545" y="31" on="1"/>
        <pt x="477" y="228" on="1"/>
        <pt x="236" y="228" on="1"/>
        <pt x="198" y="138" on="1"/>
        <pt x="180" y="92" on="0"/>
        <pt x="180" y="49" on="0"/>
        <pt x="192" y="31" on="0"/>
        <pt x="249" y="31" on="1"/>
        <pt x="249" y="0" on="1"/>
        <pt x="31" y="0" on="1"/>
        <pt x="31" y="31" on="1"/>
        <pt x="83" y="30" on="0"/>
        <pt x="130" y="59" on="0"/>
        <pt x="158" y="138" on="1"/>
        <pt x="375" y="708" on="1"/>
        <pt x="415" y="708" on="1"/>
        <pt x="651" y="31" on="1"/>
      </contour>
      <contour>
        <pt x="250" y="266" on="1"/>
        <pt x="463" y="266" on="1"/>
        <pt x="364" y="559" on="1"/>
      </contour>
      <contour>
        <pt x="542" y="895" on="1"/>
        <pt x="544" y="891" on="1"/>
        <pt x="544" y="825" on="0"/>
        <pt x="463" y="738" on="0"/>
        <pt x="331" y="738" on="0"/>
        <pt x="249" y="822" on="0"/>
        <pt x="249" y="891" on="1"/>
        <pt x="251" y="895" on="1"/>
        <pt x="277" y="895" on="1"/>
        <pt x="296" y="801" on="0"/>
        <pt x="499" y="801" on="0"/>
        <pt x="515" y="895" on="1"/>
      </contour>
      <contour>
        <pt x="396" y="857" on="0"/>
        <pt x="404" y="843" on="0"/>
        <pt x="400" y="834" on="0"/>
        <pt x="387" y="834" on="0"/>
        <pt x="374" y="853" on="0"/>
        <pt x="374" y="880" on="0"/>
        <pt x="429" y="942" on="0"/>
        <pt x="429" y="958" on="1"/>
        <pt x="429" y="996" on="0"/>
        <pt x="386" y="992" on="1"/>
        <pt x="367" y="991" on="0"/>
        <pt x="353" y="964" on="1"/>
        <pt x="349" y="954" on="0"/>
        <pt x="339" y="954" on="1"/>
        <pt x="326" y="954" on="0"/>
        <pt x="326" y="989" on="0"/>
        <pt x="342" y="1004" on="1"/>
        <pt x="368" y="1028" on="0"/>
        <pt x="431" y="1028" on="0"/>
        <pt x="470" y="994" on="0"/>
        <pt x="470" y="942" on="0"/>
        <pt x="396" y="870" on="0"/>
        <pt x="396" y="860" on="1"/>
      </contour>
    </TTGlyph>
    <TTGlyph name="Abrevetilde" xMin="31" yMin="0" xMax="725" yMax="1033">
      <contour>
        <pt x="725" y="31" on="1"/>
        <pt x="725" y="0" on="1"/>
        <pt x="465" y="0" on="1"/>
        <pt x="465" y="31" on="1"/>
        <pt x="545" y="31" on="1"/>
        <pt x="477" y="228" on="1"/>
        <pt x="236" y="228" on="1"/>
        <pt x="198" y="138" on="1"/>
        <pt x="180" y="92" on="0"/>
        <pt x="180" y="49" on="0"/>
        <pt x="192" y="31" on="0"/>
        <pt x="249" y="31" on="1"/>
        <pt x="249" y="0" on="1"/>
        <pt x="31" y="0" on="1"/>
        <pt x="31" y="31" on="1"/>
        <pt x="83" y="30" on="0"/>
        <pt x="130" y="59" on="0"/>
        <pt x="158" y="138" on="1"/>
        <pt x="375" y="708" on="1"/>
        <pt x="415" y="708" on="1"/>
        <pt x="651" y="31" on="1"/>
      </contour>
      <contour>
        <pt x="250" y="266" on="1"/>
        <pt x="463" y="266" on="1"/>
        <pt x="364" y="559" on="1"/>
      </contour>
      <contour>
        <pt x="534" y="898" on="1"/>
        <pt x="537" y="895" on="1"/>
        <pt x="537" y="829" on="0"/>
        <pt x="456" y="741" on="0"/>
        <pt x="323" y="741" on="0"/>
        <pt x="241" y="826" on="0"/>
        <pt x="241" y="895" on="1"/>
        <pt x="244" y="898" on="1"/>
        <pt x="270" y="898" on="1"/>
        <pt x="290" y="805" on="0"/>
        <pt x="492" y="805" on="0"/>
        <pt x="508" y="898" on="1"/>
      </contour>
      <contour>
        <pt x="534" y="1033" on="1"/>
        <pt x="551" y="1033" on="1"/>
        <pt x="546" y="929" on="0"/>
        <pt x="458" y="929" on="1"/>
        <pt x="427" y="929" on="0"/>
        <pt x="314" y="968" on="0"/>
        <pt x="270" y="968" on="0"/>
        <pt x="238" y="944" on="0"/>
        <pt x="236" y="927" on="1"/>
        <pt x="218" y="927" on="1"/>
        <pt x="224" y="1023" on="0"/>
        <pt x="308" y="1023" on="1"/>
        <pt x="337" y="1023" on="0"/>
        <pt x="457" y="989" on="0"/>
        <pt x="485" y="989" on="1"/>
        <pt x="523" y="989" on="0"/>
      </contour>
    </TTGlyph>
    <TTGlyph name="Acircumflex" xMin="31" yMin="0" xMax="725" yMax="905">
      <contour>
        <pt x="725" y="31" on="1"/>
        <pt x="725" y="0" on="1"/>
        <pt x="465" y="0" on="1"/>
        <pt x="465" y="31" on="1"/>
        <pt x="545" y="31" on="1"/>
        <pt x="477" y="228" on="1"/>
        <pt x="236" y="228" on="1"/>
        <pt x="198" y="138" on="1"/>
        <pt x="180" y="92" on="0"/>
        <pt x="180" y="49" on="0"/>
        <pt x="192" y="31" on="0"/>
        <pt x="249" y="31" on="1"/>
        <pt x="249" y="0" on="1"/>
        <pt x="31" y="0" on="1"/>
        <pt x="31" y="31" on="1"/>
        <pt x="83" y="30" on="0"/>
        <pt x="130" y="59" on="0"/>
        <pt x="158" y="138" on="1"/>
        <pt x="375" y="708" on="1"/>
        <pt x="415" y="708" on="1"/>
        <pt x="651" y="31" on="1"/>
      </contour>
      <contour>
        <pt x="250" y="266" on="1"/>
        <pt x="463" y="266" on="1"/>
        <pt x="364" y="559" on="1"/>
      </contour>
      <contour>
        <pt x="430" y="905" on="1"/>
        <pt x="552" y="741" on="1"/>
        <pt x="518" y="741" on="1"/>
        <pt x="399" y="842" on="1"/>
        <pt x="282" y="741" on="1"/>
        <pt x="247" y="741" on="1"/>
        <pt x="369" y="905" on="1"/>
      </contour>
    </TTGlyph>
    <TTGlyph name="Acircumflexacute" xMin="31" yMin="0" xMax="749" yMax="944">
      <contour>
        <pt x="725" y="31" on="1"/>
        <pt x="725" y="0" on="1"/>
        <pt x="465" y="0" on="1"/>
        <pt x="465" y="31" on="1"/>
        <pt x="545" y="31" on="1"/>
        <pt x="477" y="228" on="1"/>
        <pt x="236" y="228" on="1"/>
        <pt x="198" y="138" on="1"/>
        <pt x="180" y="92" on="0"/>
        <pt x="180" y="49" on="0"/>
        <pt x="192" y="31" on="0"/>
        <pt x="249" y="31" on="1"/>
        <pt x="249" y="0" on="1"/>
        <pt x="31" y="0" on="1"/>
        <pt x="31" y="31" on="1"/>
        <pt x="83" y="30" on="0"/>
        <pt x="130" y="59" on="0"/>
        <pt x="158" y="138" on="1"/>
        <pt x="375" y="708" on="1"/>
        <pt x="415" y="708" on="1"/>
        <pt x="651" y="31" on="1"/>
      </contour>
      <contour>
        <pt x="250" y="266" on="1"/>
        <pt x="463" y="266" on="1"/>
        <pt x="364" y="559" on="1"/>
      </contour>
      <contour>
        <pt x="749" y="910" on="1"/>
        <pt x="749" y="890" on="0"/>
        <pt x="737" y="876" on="1"/>
        <pt x="605" y="740" on="1"/>
        <pt x="583" y="743" on="1"/>
        <pt x="680" y="925" on="1"/>
        <pt x="690" y="944" on="0"/>
        <pt x="716" y="944" on="1"/>
        <pt x="749" y="944" on="0"/>
      </contour>
      <contour>
        <pt x="429" y="905" on="1"/>
        <pt x="551" y="741" on="1"/>
        <pt x="517" y="741" on="1"/>
        <pt x="398" y="842" on="1"/>
        <pt x="281" y="741" on="1"/>
        <pt x="246" y="741" on="1"/>
        <pt x="368" y="905" on="1"/>
      </contour>
    </TTGlyph>
    <TTGlyph name="Acircumflexdotbelow" xMin="31" yMin="-233" xMax="725" yMax="903">
      <contour>
        <pt x="725" y="31" on="1"/>
        <pt x="725" y="0" on="1"/>
        <pt x="465" y="0" on="1"/>
        <pt x="465" y="31" on="1"/>
        <pt x="545" y="31" on="1"/>
        <pt x="477" y="228" on="1"/>
        <pt x="236" y="228" on="1"/>
        <pt x="198" y="138" on="1"/>
        <pt x="180" y="92" on="0"/>
        <pt x="180" y="49" on="0"/>
        <pt x="192" y="31" on="0"/>
        <pt x="249" y="31" on="1"/>
        <pt x="249" y="0" on="1"/>
        <pt x="31" y="0" on="1"/>
        <pt x="31" y="31" on="1"/>
        <pt x="83" y="30" on="0"/>
        <pt x="130" y="59" on="0"/>
        <pt x="158" y="138" on="1"/>
        <pt x="375" y="708" on="1"/>
        <pt x="415" y="708" on="1"/>
        <pt x="651" y="31" on="1"/>
      </contour>
      <contour>
        <pt x="250" y="266" on="1"/>
        <pt x="463" y="266" on="1"/>
        <pt x="364" y="559" on="1"/>
      </contour>
      <contour>
        <pt x="390" y="-127" on="0"/>
        <pt x="421" y="-158" on="0"/>
        <pt x="421" y="-202" on="0"/>
        <pt x="389" y="-233" on="0"/>
        <pt x="345" y="-233" on="0"/>
        <pt x="313" y="-202" on="0"/>
        <pt x="313" y="-158" on="0"/>
        <pt x="345" y="-127" on="0"/>
      </contour>
      <contour>
        <pt x="425" y="903" on="1"/>
        <pt x="547" y="739" on="1"/>
        <pt x="513" y="739" on="1"/>
        <pt x="394" y="840" on="1"/>
        <pt x="277" y="739" on="1"/>
        <pt x="242" y="739" on="1"/>
        <pt x="364" y="903" on="1"/>
      </contour>
    </TTGlyph>
    <TTGlyph name="Acircumflexgrave" xMin="31" yMin="0" xMax="725" yMax="942">
      <contour>
        <pt x="725" y="31" on="1"/>
        <pt x="725" y="0" on="1"/>
        <pt x="465" y="0" on="1"/>
        <pt x="465" y="31" on="1"/>
        <pt x="545" y="31" on="1"/>
        <pt x="477" y="228" on="1"/>
        <pt x="236" y="228" on="1"/>
        <pt x="198" y="138" on="1"/>
        <pt x="180" y="92" on="0"/>
        <pt x="180" y="49" on="0"/>
        <pt x="192" y="31" on="0"/>
        <pt x="249" y="31" on="1"/>
        <pt x="249" y="0" on="1"/>
        <pt x="31" y="0" on="1"/>
        <pt x="31" y="31" on="1"/>
        <pt x="83" y="30" on="0"/>
        <pt x="130" y="59" on="0"/>
        <pt x="158" y="138" on="1"/>
        <pt x="375" y="708" on="1"/>
        <pt x="415" y="708" on="1"/>
        <pt x="651" y="31" on="1"/>
      </contour>
      <contour>
        <pt x="250" y="266" on="1"/>
        <pt x="463" y="266" on="1"/>
        <pt x="364" y="559" on="1"/>
      </contour>
      <contour>
        <pt x="551" y="921" on="1"/>
        <pt x="650" y="739" on="1"/>
        <pt x="625" y="739" on="1"/>
        <pt x="487" y="874" on="1"/>
        <pt x="475" y="888" on="0"/>
        <pt x="475" y="905" on="1"/>
        <pt x="475" y="942" on="0"/>
        <pt x="513" y="942" on="1"/>
        <pt x="540" y="942" on="0"/>
      </contour>
      <contour>
        <pt x="430" y="906" on="1"/>
        <pt x="552" y="742" on="1"/>
        <pt x="518" y="742" on="1"/>
        <pt x="399" y="843" on="1"/>
        <pt x="282" y="742" on="1"/>
        <pt x="247" y="742" on="1"/>
        <pt x="369" y="906" on="1"/>
      </contour>
    </TTGlyph>
    <TTGlyph name="Acircumflexhookabove" xMin="31" yMin="0" xMax="725" yMax="937">
      <contour>
        <pt x="725" y="31" on="1"/>
        <pt x="725" y="0" on="1"/>
        <pt x="465" y="0" on="1"/>
        <pt x="465" y="31" on="1"/>
        <pt x="545" y="31" on="1"/>
        <pt x="477" y="228" on="1"/>
        <pt x="236" y="228" on="1"/>
        <pt x="198" y="138" on="1"/>
        <pt x="180" y="92" on="0"/>
        <pt x="180" y="49" on="0"/>
        <pt x="192" y="31" on="0"/>
        <pt x="249" y="31" on="1"/>
        <pt x="249" y="0" on="1"/>
        <pt x="31" y="0" on="1"/>
        <pt x="31" y="31" on="1"/>
        <pt x="83" y="30" on="0"/>
        <pt x="130" y="59" on="0"/>
        <pt x="158" y="138" on="1"/>
        <pt x="375" y="708" on="1"/>
        <pt x="415" y="708" on="1"/>
        <pt x="651" y="31" on="1"/>
      </contour>
      <contour>
        <pt x="250" y="266" on="1"/>
        <pt x="463" y="266" on="1"/>
        <pt x="364" y="559" on="1"/>
      </contour>
      <contour>
        <pt x="607" y="768" on="1"/>
        <pt x="607" y="765" on="0"/>
        <pt x="620" y="743" on="0"/>
        <pt x="607" y="743" on="1"/>
        <pt x="598" y="743" on="0"/>
        <pt x="586" y="761" on="0"/>
        <pt x="586" y="788" on="0"/>
        <pt x="640" y="850" on="0"/>
        <pt x="640" y="866" on="1"/>
        <pt x="640" y="905" on="0"/>
        <pt x="598" y="900" on="1"/>
        <pt x="578" y="898" on="0"/>
        <pt x="565" y="873" on="1"/>
        <pt x="559" y="863" on="0"/>
        <pt x="550" y="863" on="1"/>
        <pt x="538" y="863" on="0"/>
        <pt x="538" y="897" on="0"/>
        <pt x="571" y="929" on="0"/>
        <pt x="591" y="933" on="1"/>
        <pt x="602" y="937" on="0"/>
        <pt x="642" y="937" on="0"/>
        <pt x="681" y="903" on="0"/>
        <pt x="681" y="850" on="0"/>
        <pt x="607" y="778" on="0"/>
      </contour>
      <contour>
        <pt x="432" y="908" on="1"/>
        <pt x="554" y="744" on="1"/>
        <pt x="520" y="744" on="1"/>
        <pt x="401" y="845" on="1"/>
        <pt x="284" y="744" on="1"/>
        <pt x="249" y="744" on="1"/>
        <pt x="371" y="908" on="1"/>
      </contour>
    </TTGlyph>
    <TTGlyph name="Acircumflexsmall" xMin="15" yMin="0" xMax="504" yMax="659">
      <contour>
        <pt x="504" y="21" on="1"/>
        <pt x="504" y="0" on="1"/>
        <pt x="301" y="0" on="1"/>
        <pt x="301" y="21" on="1"/>
        <pt x="353" y="21" on="1"/>
        <pt x="310" y="150" on="1"/>
        <pt x="150" y="150" on="1"/>
        <pt x="126" y="90" on="1"/>
        <pt x="113" y="60" on="0"/>
        <pt x="113" y="31" on="0"/>
        <pt x="122" y="21" on="0"/>
        <pt x="159" y="21" on="1"/>
        <pt x="159" y="0" on="1"/>
        <pt x="15" y="0" on="1"/>
        <pt x="15" y="21" on="1"/>
        <pt x="50" y="18" on="0"/>
        <pt x="63" y="27" on="1"/>
        <pt x="80" y="40" on="0"/>
        <pt x="99" y="90" on="1"/>
        <pt x="242" y="466" on="1"/>
        <pt x="299" y="466" on="1"/>
        <pt x="454" y="21" on="1"/>
      </contour>
      <contour>
        <pt x="160" y="175" on="1"/>
        <pt x="299" y="175" on="1"/>
        <pt x="233" y="368" on="1"/>
      </contour>
      <contour>
        <pt x="286" y="659" on="1"/>
        <pt x="383" y="530" on="1"/>
        <pt x="353" y="530" on="1"/>
        <pt x="262" y="608" on="1"/>
        <pt x="170" y="530" on="1"/>
        <pt x="141" y="530" on="1"/>
        <pt x="238" y="659" on="1"/>
      </contour>
    </TTGlyph>
    <TTGlyph name="Acircumflextilde" xMin="31" yMin="0" xMax="725" yMax="1044">
      <contour>
        <pt x="725" y="31" on="1"/>
        <pt x="725" y="0" on="1"/>
        <pt x="465" y="0" on="1"/>
        <pt x="465" y="31" on="1"/>
        <pt x="545" y="31" on="1"/>
        <pt x="477" y="228" on="1"/>
        <pt x="236" y="228" on="1"/>
        <pt x="198" y="138" on="1"/>
        <pt x="180" y="92" on="0"/>
        <pt x="180" y="49" on="0"/>
        <pt x="192" y="31" on="0"/>
        <pt x="249" y="31" on="1"/>
        <pt x="249" y="0" on="1"/>
        <pt x="31" y="0" on="1"/>
        <pt x="31" y="31" on="1"/>
        <pt x="83" y="30" on="0"/>
        <pt x="130" y="59" on="0"/>
        <pt x="158" y="138" on="1"/>
        <pt x="375" y="708" on="1"/>
        <pt x="415" y="708" on="1"/>
        <pt x="651" y="31" on="1"/>
      </contour>
      <contour>
        <pt x="250" y="266" on="1"/>
        <pt x="463" y="266" on="1"/>
        <pt x="364" y="559" on="1"/>
      </contour>
      <contour>
        <pt x="431" y="905" on="1"/>
        <pt x="553" y="741" on="1"/>
        <pt x="519" y="741" on="1"/>
        <pt x="400" y="842" on="1"/>
        <pt x="283" y="741" on="1"/>
        <pt x="248" y="741" on="1"/>
        <pt x="370" y="905" on="1"/>
      </contour>
      <contour>
        <pt x="547" y="1044" on="1"/>
        <pt x="564" y="1044" on="1"/>
        <pt x="559" y="940" on="0"/>
        <pt x="471" y="940" on="1"/>
        <pt x="440" y="940" on="0"/>
        <pt x="327" y="979" on="0"/>
        <pt x="283" y="979" on="0"/>
        <pt x="251" y="955" on="0"/>
        <pt x="249" y="938" on="1"/>
        <pt x="231" y="938" on="1"/>
        <pt x="237" y="1034" on="0"/>
        <pt x="321" y="1034" on="1"/>
        <pt x="350" y="1034" on="0"/>
        <pt x="470" y="1000" on="0"/>
        <pt x="498" y="1000" on="1"/>
        <pt x="536" y="1000" on="0"/>
      </contour>
    </TTGlyph>
    <TTGlyph name="Acute" xMin="50" yMin="658" xMax="242" yMax="809">
      <contour>
        <pt x="237" y="806" on="1"/>
        <pt x="242" y="793" on="1"/>
        <pt x="152" y="726" on="1"/>
        <pt x="67" y="659" on="1"/>
        <pt x="60" y="658" on="1"/>
        <pt x="50" y="668" on="1"/>
        <pt x="50" y="674" on="1"/>
        <pt x="112" y="748" on="1"/>
        <pt x="113" y="749" on="0"/>
        <pt x="153" y="798" on="1"/>
        <pt x="232" y="809" on="1"/>
      </contour>
    </TTGlyph>
    <TTGlyph name="Acutesmall" xMin="76" yMin="490" xMax="292" yMax="656">
      <contour>
        <pt x="292" y="621" on="1"/>
        <pt x="292" y="601" on="0"/>
        <pt x="253" y="577" on="1"/>
        <pt x="114" y="490" on="1"/>
        <pt x="76" y="490" on="1"/>
        <pt x="210" y="624" on="1"/>
        <pt x="242" y="656" on="0"/>
        <pt x="260" y="656" on="1"/>
        <pt x="292" y="656" on="0"/>
      </contour>
    </TTGlyph>
    <TTGlyph name="Adieresis" xMin="31" yMin="0" xMax="725" yMax="838">
      <contour>
        <pt x="725" y="31" on="1"/>
        <pt x="725" y="0" on="1"/>
        <pt x="465" y="0" on="1"/>
        <pt x="465" y="31" on="1"/>
        <pt x="545" y="31" on="1"/>
        <pt x="477" y="228" on="1"/>
        <pt x="236" y="228" on="1"/>
        <pt x="198" y="138" on="1"/>
        <pt x="180" y="92" on="0"/>
        <pt x="180" y="49" on="0"/>
        <pt x="192" y="31" on="0"/>
        <pt x="249" y="31" on="1"/>
        <pt x="249" y="0" on="1"/>
        <pt x="31" y="0" on="1"/>
        <pt x="31" y="31" on="1"/>
        <pt x="83" y="30" on="0"/>
        <pt x="130" y="59" on="0"/>
        <pt x="158" y="138" on="1"/>
        <pt x="375" y="708" on="1"/>
        <pt x="415" y="708" on="1"/>
        <pt x="651" y="31" on="1"/>
      </contour>
      <contour>
        <pt x="250" y="266" on="1"/>
        <pt x="463" y="266" on="1"/>
        <pt x="364" y="559" on="1"/>
      </contour>
      <contour>
        <pt x="542" y="838" on="0"/>
        <pt x="542" y="740" on="0"/>
        <pt x="445" y="740" on="0"/>
        <pt x="445" y="838" on="0"/>
      </contour>
      <contour>
        <pt x="347" y="838" on="0"/>
        <pt x="347" y="740" on="0"/>
        <pt x="249" y="740" on="0"/>
        <pt x="249" y="838" on="0"/>
      </contour>
    </TTGlyph>
    <TTGlyph name="Adieresissmall" xMin="15" yMin="0" xMax="504" yMax="629">
      <contour>
        <pt x="15" y="21" on="1"/>
        <pt x="31" y="20" on="1"/>
        <pt x="58" y="20" on="0"/>
        <pt x="82" y="47" on="0"/>
        <pt x="99" y="90" on="1"/>
        <pt x="242" y="466" on="1"/>
        <pt x="299" y="466" on="1"/>
        <pt x="454" y="21" on="1"/>
        <pt x="504" y="21" on="1"/>
        <pt x="504" y="0" on="1"/>
        <pt x="301" y="0" on="1"/>
        <pt x="301" y="21" on="1"/>
        <pt x="353" y="21" on="1"/>
        <pt x="310" y="150" on="1"/>
        <pt x="150" y="150" on="1"/>
        <pt x="126" y="90" on="1"/>
        <pt x="113" y="56" on="0"/>
        <pt x="113" y="29" on="0"/>
        <pt x="125" y="21" on="0"/>
        <pt x="159" y="21" on="1"/>
        <pt x="159" y="0" on="1"/>
        <pt x="15" y="0" on="1"/>
      </contour>
      <contour>
        <pt x="160" y="175" on="1"/>
        <pt x="299" y="175" on="1"/>
        <pt x="233" y="368" on="1"/>
      </contour>
      <contour>
        <pt x="410" y="629" on="0"/>
        <pt x="410" y="531" on="0"/>
        <pt x="313" y="531" on="0"/>
        <pt x="313" y="629" on="0"/>
      </contour>
      <contour>
        <pt x="216" y="629" on="0"/>
        <pt x="216" y="531" on="0"/>
        <pt x="119" y="531" on="0"/>
        <pt x="119" y="629" on="0"/>
      </contour>
    </TTGlyph>
    <TTGlyph name="Adotbelow" xMin="31" yMin="-234" xMax="725" yMax="708">
      <contour>
        <pt x="725" y="31" on="1"/>
        <pt x="725" y="0" on="1"/>
        <pt x="465" y="0" on="1"/>
        <pt x="465" y="31" on="1"/>
        <pt x="545" y="31" on="1"/>
        <pt x="477" y="228" on="1"/>
        <pt x="236" y="228" on="1"/>
        <pt x="198" y="138" on="1"/>
        <pt x="180" y="92" on="0"/>
        <pt x="180" y="49" on="0"/>
        <pt x="192" y="31" on="0"/>
        <pt x="249" y="31" on="1"/>
        <pt x="249" y="0" on="1"/>
        <pt x="31" y="0" on="1"/>
        <pt x="31" y="31" on="1"/>
        <pt x="83" y="30" on="0"/>
        <pt x="130" y="59" on="0"/>
        <pt x="158" y="138" on="1"/>
        <pt x="375" y="708" on="1"/>
        <pt x="415" y="708" on="1"/>
        <pt x="651" y="31" on="1"/>
      </contour>
      <contour>
        <pt x="250" y="266" on="1"/>
        <pt x="463" y="266" on="1"/>
        <pt x="364" y="559" on="1"/>
      </contour>
      <contour>
        <pt x="373" y="-128" on="0"/>
        <pt x="404" y="-159" on="0"/>
        <pt x="404" y="-203" on="0"/>
        <pt x="372" y="-234" on="0"/>
        <pt x="328" y="-234" on="0"/>
        <pt x="296" y="-203" on="0"/>
        <pt x="296" y="-159" on="0"/>
        <pt x="328" y="-128" on="0"/>
      </contour>
    </TTGlyph>
    <TTGlyph name="Agrave" xMin="31" yMin="0" xMax="725" yMax="907">
      <contour>
        <pt x="725" y="31" on="1"/>
        <pt x="725" y="0" on="1"/>
        <pt x="465" y="0" on="1"/>
        <pt x="465" y="31" on="1"/>
        <pt x="545" y="31" on="1"/>
        <pt x="477" y="228" on="1"/>
        <pt x="236" y="228" on="1"/>
        <pt x="198" y="138" on="1"/>
        <pt x="180" y="92" on="0"/>
        <pt x="180" y="49" on="0"/>
        <pt x="192" y="31" on="0"/>
        <pt x="249" y="31" on="1"/>
        <pt x="249" y="0" on="1"/>
        <pt x="31" y="0" on="1"/>
        <pt x="31" y="31" on="1"/>
        <pt x="83" y="30" on="0"/>
        <pt x="130" y="59" on="0"/>
        <pt x="158" y="138" on="1"/>
        <pt x="375" y="708" on="1"/>
        <pt x="415" y="708" on="1"/>
        <pt x="651" y="31" on="1"/>
      </contour>
      <contour>
        <pt x="250" y="266" on="1"/>
        <pt x="463" y="266" on="1"/>
        <pt x="364" y="559" on="1"/>
      </contour>
      <contour>
        <pt x="277" y="876" on="1"/>
        <pt x="410" y="742" on="1"/>
        <pt x="372" y="742" on="1"/>
        <pt x="232" y="829" on="1"/>
        <pt x="193" y="853" on="0"/>
        <pt x="193" y="874" on="1"/>
        <pt x="193" y="907" on="0"/>
        <pt x="225" y="907" on="1"/>
        <pt x="246" y="907" on="0"/>
      </contour>
    </TTGlyph>
    <TTGlyph name="Agravesmall" xMin="15" yMin="0" xMax="504" yMax="649">
      <contour>
        <pt x="504" y="21" on="1"/>
        <pt x="504" y="0" on="1"/>
        <pt x="301" y="0" on="1"/>
        <pt x="301" y="21" on="1"/>
        <pt x="353" y="21" on="1"/>
        <pt x="310" y="150" on="1"/>
        <pt x="150" y="150" on="1"/>
        <pt x="126" y="90" on="1"/>
        <pt x="113" y="60" on="0"/>
        <pt x="113" y="31" on="0"/>
        <pt x="122" y="21" on="0"/>
        <pt x="159" y="21" on="1"/>
        <pt x="159" y="0" on="1"/>
        <pt x="15" y="0" on="1"/>
        <pt x="15" y="21" on="1"/>
        <pt x="50" y="18" on="0"/>
        <pt x="63" y="27" on="1"/>
        <pt x="80" y="40" on="0"/>
        <pt x="99" y="90" on="1"/>
        <pt x="242" y="466" on="1"/>
        <pt x="299" y="466" on="1"/>
        <pt x="454" y="21" on="1"/>
      </contour>
      <contour>
        <pt x="160" y="175" on="1"/>
        <pt x="299" y="175" on="1"/>
        <pt x="233" y="368" on="1"/>
      </contour>
      <contour>
        <pt x="148" y="623" on="1"/>
        <pt x="282" y="515" on="1"/>
        <pt x="244" y="515" on="1"/>
        <pt x="105" y="585" on="1"/>
        <pt x="65" y="604" on="0"/>
        <pt x="65" y="622" on="1"/>
        <pt x="65" y="649" on="0"/>
        <pt x="97" y="649" on="1"/>
        <pt x="116" y="649" on="0"/>
      </contour>
    </TTGlyph>
    <TTGlyph name="Ahookabove" xMin="31" yMin="0" xMax="725" yMax="932">
      <contour>
        <pt x="725" y="31" on="1"/>
        <pt x="725" y="0" on="1"/>
        <pt x="465" y="0" on="1"/>
        <pt x="465" y="31" on="1"/>
        <pt x="545" y="31" on="1"/>
        <pt x="477" y="228" on="1"/>
        <pt x="236" y="228" on="1"/>
        <pt x="198" y="138" on="1"/>
        <pt x="180" y="92" on="0"/>
        <pt x="180" y="49" on="0"/>
        <pt x="192" y="31" on="0"/>
        <pt x="249" y="31" on="1"/>
        <pt x="249" y="0" on="1"/>
        <pt x="31" y="0" on="1"/>
        <pt x="31" y="31" on="1"/>
        <pt x="83" y="30" on="0"/>
        <pt x="130" y="59" on="0"/>
        <pt x="158" y="138" on="1"/>
        <pt x="375" y="708" on="1"/>
        <pt x="415" y="708" on="1"/>
        <pt x="651" y="31" on="1"/>
      </contour>
      <contour>
        <pt x="250" y="266" on="1"/>
        <pt x="463" y="266" on="1"/>
        <pt x="364" y="559" on="1"/>
      </contour>
      <contour>
        <pt x="398" y="763" on="1"/>
        <pt x="398" y="760" on="0"/>
        <pt x="411" y="738" on="0"/>
        <pt x="398" y="738" on="1"/>
        <pt x="389" y="738" on="0"/>
        <pt x="377" y="756" on="0"/>
        <pt x="377" y="782" on="0"/>
        <pt x="431" y="846" on="0"/>
        <pt x="431" y="861" on="1"/>
        <pt x="431" y="900" on="0"/>
        <pt x="389" y="895" on="1"/>
        <pt x="370" y="894" on="0"/>
        <pt x="356" y="868" on="1"/>
        <pt x="350" y="858" on="0"/>
        <pt x="341" y="858" on="1"/>
        <pt x="329" y="858" on="0"/>
        <pt x="329" y="892" on="0"/>
        <pt x="362" y="924" on="0"/>
        <pt x="382" y="928" on="1"/>
        <pt x="393" y="932" on="0"/>
        <pt x="433" y="932" on="0"/>
        <pt x="472" y="898" on="0"/>
        <pt x="472" y="845" on="0"/>
        <pt x="398" y="773" on="0"/>
      </contour>
    </TTGlyph>
    <TTGlyph name="Alpha" xMin="31" yMin="0" xMax="725" yMax="708">
      <contour>
        <pt x="725" y="31" on="1"/>
        <pt x="725" y="0" on="1"/>
        <pt x="465" y="0" on="1"/>
        <pt x="465" y="31" on="1"/>
        <pt x="545" y="31" on="1"/>
        <pt x="477" y="228" on="1"/>
        <pt x="236" y="228" on="1"/>
        <pt x="236" y="228" on="0"/>
        <pt x="220" y="192" on="1"/>
        <pt x="179" y="98" on="0"/>
        <pt x="179" y="38" on="0"/>
        <pt x="203" y="32" on="1"/>
        <pt x="206" y="31" on="0"/>
        <pt x="249" y="31" on="1"/>
        <pt x="249" y="0" on="1"/>
        <pt x="31" y="0" on="1"/>
        <pt x="31" y="31" on="1"/>
        <pt x="41" y="31" on="1"/>
        <pt x="96" y="30" on="0"/>
        <pt x="121" y="58" on="1"/>
        <pt x="137" y="77" on="0"/>
        <pt x="158" y="138" on="1"/>
        <pt x="375" y="708" on="1"/>
        <pt x="415" y="708" on="1"/>
        <pt x="651" y="31" on="1"/>
      </contour>
      <contour>
        <pt x="250" y="266" on="1"/>
        <pt x="463" y="266" on="1"/>
        <pt x="364" y="559" on="1"/>
      </contour>
    </TTGlyph>
    <TTGlyph name="Alphatonos" xMin="38" yMin="0" xMax="732" yMax="718">
      <contour>
        <pt x="211" y="684" on="1"/>
        <pt x="211" y="662" on="0"/>
        <pt x="198" y="650" on="1"/>
        <pt x="66" y="514" on="1"/>
        <pt x="44" y="518" on="1"/>
        <pt x="141" y="699" on="1"/>
        <pt x="151" y="718" on="0"/>
        <pt x="178" y="718" on="1"/>
        <pt x="211" y="718" on="0"/>
      </contour>
      <contour>
        <pt x="732" y="31" on="1"/>
        <pt x="732" y="0" on="1"/>
        <pt x="472" y="0" on="1"/>
        <pt x="472" y="31" on="1"/>
        <pt x="552" y="31" on="1"/>
        <pt x="483" y="228" on="1"/>
        <pt x="243" y="228" on="1"/>
        <pt x="243" y="228" on="0"/>
        <pt x="227" y="192" on="1"/>
        <pt x="215" y="164" on="0"/>
        <pt x="187" y="92" on="0"/>
        <pt x="187" y="38" on="0"/>
        <pt x="210" y="32" on="1"/>
        <pt x="213" y="31" on="0"/>
        <pt x="255" y="31" on="1"/>
        <pt x="255" y="0" on="1"/>
        <pt x="38" y="0" on="1"/>
        <pt x="38" y="31" on="1"/>
        <pt x="48" y="31" on="1"/>
        <pt x="103" y="30" on="0"/>
        <pt x="128" y="58" on="1"/>
        <pt x="141" y="74" on="0"/>
        <pt x="165" y="138" on="1"/>
        <pt x="382" y="708" on="1"/>
        <pt x="422" y="708" on="1"/>
        <pt x="658" y="31" on="1"/>
      </contour>
      <contour>
        <pt x="257" y="266" on="1"/>
        <pt x="470" y="266" on="1"/>
        <pt x="370" y="559" on="1"/>
      </contour>
    </TTGlyph>
    <TTGlyph name="Amacron" xMin="31" yMin="0" xMax="725" yMax="794">
      <contour>
        <pt x="725" y="31" on="1"/>
        <pt x="725" y="0" on="1"/>
        <pt x="465" y="0" on="1"/>
        <pt x="465" y="31" on="1"/>
        <pt x="545" y="31" on="1"/>
        <pt x="477" y="228" on="1"/>
        <pt x="236" y="228" on="1"/>
        <pt x="198" y="138" on="1"/>
        <pt x="180" y="92" on="0"/>
        <pt x="180" y="49" on="0"/>
        <pt x="192" y="31" on="0"/>
        <pt x="249" y="31" on="1"/>
        <pt x="249" y="0" on="1"/>
        <pt x="31" y="0" on="1"/>
        <pt x="31" y="31" on="1"/>
        <pt x="83" y="30" on="0"/>
        <pt x="130" y="59" on="0"/>
        <pt x="158" y="138" on="1"/>
        <pt x="375" y="708" on="1"/>
        <pt x="415" y="708" on="1"/>
        <pt x="651" y="31" on="1"/>
      </contour>
      <contour>
        <pt x="250" y="266" on="1"/>
        <pt x="463" y="266" on="1"/>
        <pt x="364" y="559" on="1"/>
      </contour>
      <contour>
        <pt x="546" y="794" on="1"/>
        <pt x="546" y="744" on="1"/>
        <pt x="230" y="744" on="1"/>
        <pt x="230" y="794" on="1"/>
      </contour>
    </TTGlyph>
    <TTGlyph name="Aogonek" xMin="31" yMin="-198" xMax="725" yMax="708">
      <contour>
        <pt x="698" y="-132" on="1"/>
        <pt x="677" y="-158" on="0"/>
        <pt x="600" y="-198" on="0"/>
        <pt x="530" y="-198" on="0"/>
        <pt x="489" y="-151" on="0"/>
        <pt x="489" y="-121" on="1"/>
        <pt x="489" y="-60" on="0"/>
        <pt x="569" y="0" on="1"/>
        <pt x="465" y="0" on="1"/>
        <pt x="465" y="31" on="1"/>
        <pt x="545" y="31" on="1"/>
        <pt x="477" y="228" on="1"/>
        <pt x="236" y="228" on="1"/>
        <pt x="198" y="138" on="1"/>
        <pt x="180" y="92" on="0"/>
        <pt x="180" y="49" on="0"/>
        <pt x="192" y="31" on="0"/>
        <pt x="249" y="31" on="1"/>
        <pt x="249" y="0" on="1"/>
        <pt x="31" y="0" on="1"/>
        <pt x="31" y="31" on="1"/>
        <pt x="83" y="30" on="0"/>
        <pt x="130" y="59" on="0"/>
        <pt x="158" y="138" on="1"/>
        <pt x="375" y="708" on="1"/>
        <pt x="415" y="708" on="1"/>
        <pt x="651" y="31" on="1"/>
        <pt x="725" y="31" on="1"/>
        <pt x="725" y="0" on="1"/>
        <pt x="606" y="0" on="1"/>
        <pt x="552" y="-63" on="0"/>
        <pt x="552" y="-106" on="1"/>
        <pt x="552" y="-144" on="0"/>
        <pt x="596" y="-144" on="1"/>
        <pt x="631" y="-144" on="0"/>
        <pt x="683" y="-112" on="1"/>
        <pt x="699" y="-132" on="0"/>
      </contour>
      <contour>
        <pt x="250" y="266" on="1"/>
        <pt x="463" y="266" on="1"/>
        <pt x="364" y="559" on="1"/>
      </contour>
    </TTGlyph>
    <TTGlyph name="Aring" xMin="31" yMin="0" xMax="725" yMax="914">
      <contour>
        <pt x="489" y="857" on="0"/>
        <pt x="489" y="777" on="0"/>
        <pt x="431" y="719" on="0"/>
        <pt x="351" y="719" on="0"/>
        <pt x="293" y="777" on="0"/>
        <pt x="293" y="857" on="0"/>
        <pt x="350" y="914" on="0"/>
        <pt x="431" y="914" on="0"/>
      </contour>
      <contour>
        <pt x="725" y="31" on="1"/>
        <pt x="725" y="0" on="1"/>
        <pt x="465" y="0" on="1"/>
        <pt x="465" y="31" on="1"/>
        <pt x="545" y="31" on="1"/>
        <pt x="477" y="228" on="1"/>
        <pt x="235" y="228" on="1"/>
        <pt x="199" y="138" on="1"/>
        <pt x="179" y="90" on="0"/>
        <pt x="179" y="49" on="0"/>
        <pt x="191" y="31" on="0"/>
        <pt x="249" y="31" on="1"/>
        <pt x="249" y="0" on="1"/>
        <pt x="31" y="0" on="1"/>
        <pt x="31" y="31" on="1"/>
        <pt x="83" y="30" on="0"/>
        <pt x="129" y="59" on="0"/>
        <pt x="159" y="138" on="1"/>
        <pt x="375" y="708" on="1"/>
        <pt x="415" y="708" on="1"/>
        <pt x="650" y="31" on="1"/>
      </contour>
      <contour>
        <pt x="418" y="755" on="0"/>
        <pt x="450" y="789" on="0"/>
        <pt x="450" y="846" on="0"/>
        <pt x="419" y="880" on="0"/>
        <pt x="364" y="880" on="0"/>
        <pt x="331" y="846" on="0"/>
        <pt x="331" y="789" on="0"/>
        <pt x="364" y="755" on="0"/>
      </contour>
      <contour>
        <pt x="250" y="266" on="1"/>
        <pt x="463" y="266" on="1"/>
        <pt x="363" y="559" on="1"/>
      </contour>
    </TTGlyph>
    <TTGlyph name="Aringacute" xMin="32" yMin="0" xMax="726" yMax="1145">
      <contour>
        <pt x="490" y="857" on="0"/>
        <pt x="490" y="777" on="0"/>
        <pt x="432" y="719" on="0"/>
        <pt x="352" y="719" on="0"/>
        <pt x="294" y="777" on="0"/>
        <pt x="294" y="857" on="0"/>
        <pt x="351" y="914" on="0"/>
        <pt x="432" y="914" on="0"/>
      </contour>
      <contour>
        <pt x="726" y="31" on="1"/>
        <pt x="726" y="0" on="1"/>
        <pt x="466" y="0" on="1"/>
        <pt x="466" y="31" on="1"/>
        <pt x="546" y="31" on="1"/>
        <pt x="478" y="228" on="1"/>
        <pt x="236" y="228" on="1"/>
        <pt x="199" y="138" on="1"/>
        <pt x="180" y="93" on="0"/>
        <pt x="180" y="49" on="0"/>
        <pt x="192" y="31" on="0"/>
        <pt x="250" y="31" on="1"/>
        <pt x="250" y="0" on="1"/>
        <pt x="32" y="0" on="1"/>
        <pt x="32" y="31" on="1"/>
        <pt x="84" y="30" on="0"/>
        <pt x="130" y="59" on="0"/>
        <pt x="160" y="138" on="1"/>
        <pt x="376" y="708" on="1"/>
        <pt x="416" y="708" on="1"/>
        <pt x="651" y="31" on="1"/>
      </contour>
      <contour>
        <pt x="419" y="755" on="0"/>
        <pt x="451" y="789" on="0"/>
        <pt x="451" y="846" on="0"/>
        <pt x="420" y="880" on="0"/>
        <pt x="365" y="880" on="0"/>
        <pt x="332" y="846" on="0"/>
        <pt x="332" y="789" on="0"/>
        <pt x="365" y="755" on="0"/>
      </contour>
      <contour>
        <pt x="251" y="266" on="1"/>
        <pt x="464" y="266" on="1"/>
        <pt x="364" y="559" on="1"/>
      </contour>
      <contour>
        <pt x="548" y="1109" on="1"/>
        <pt x="548" y="1090" on="0"/>
        <pt x="536" y="1076" on="1"/>
        <pt x="402" y="940" on="1"/>
        <pt x="382" y="944" on="1"/>
        <pt x="479" y="1125" on="1"/>
        <pt x="490" y="1145" on="0"/>
        <pt x="515" y="1145" on="1"/>
        <pt x="548" y="1145" on="0"/>
      </contour>
    </TTGlyph>
    <TTGlyph name="Aringsmall" xMin="15" yMin="0" xMax="504" yMax="670">
      <contour>
        <pt x="504" y="21" on="1"/>
        <pt x="504" y="0" on="1"/>
        <pt x="301" y="0" on="1"/>
        <pt x="301" y="21" on="1"/>
        <pt x="353" y="21" on="1"/>
        <pt x="310" y="150" on="1"/>
        <pt x="150" y="150" on="1"/>
        <pt x="126" y="90" on="1"/>
        <pt x="113" y="60" on="0"/>
        <pt x="113" y="31" on="0"/>
        <pt x="122" y="21" on="0"/>
        <pt x="159" y="21" on="1"/>
        <pt x="159" y="0" on="1"/>
        <pt x="15" y="0" on="1"/>
        <pt x="15" y="21" on="1"/>
        <pt x="50" y="18" on="0"/>
        <pt x="63" y="27" on="1"/>
        <pt x="80" y="40" on="0"/>
        <pt x="99" y="90" on="1"/>
        <pt x="242" y="466" on="1"/>
        <pt x="299" y="466" on="1"/>
        <pt x="454" y="21" on="1"/>
      </contour>
      <contour>
        <pt x="160" y="175" on="1"/>
        <pt x="299" y="175" on="1"/>
        <pt x="233" y="368" on="1"/>
      </contour>
      <contour>
        <pt x="289" y="670" on="0"/>
        <pt x="329" y="630" on="0"/>
        <pt x="329" y="573" on="0"/>
        <pt x="289" y="533" on="0"/>
        <pt x="233" y="533" on="0"/>
        <pt x="192" y="573" on="0"/>
        <pt x="192" y="629" on="0"/>
        <pt x="233" y="670" on="0"/>
      </contour>
      <contour>
        <pt x="300" y="560" on="0"/>
        <pt x="300" y="640" on="0"/>
        <pt x="224" y="640" on="0"/>
        <pt x="224" y="560" on="0"/>
      </contour>
    </TTGlyph>
    <TTGlyph name="Asmall" xMin="25" yMin="0" xMax="505" yMax="457">
      <contour>
        <pt x="505" y="21" on="1"/>
        <pt x="505" y="0" on="1"/>
        <pt x="305" y="0" on="1"/>
        <pt x="305" y="21" on="1"/>
        <pt x="356" y="21" on="1"/>
        <pt x="314" y="147" on="1"/>
        <pt x="157" y="147" on="1"/>
        <pt x="134" y="88" on="1"/>
        <pt x="121" y="59" on="0"/>
        <pt x="121" y="30" on="0"/>
        <pt x="130" y="21" on="0"/>
        <pt x="166" y="21" on="1"/>
        <pt x="166" y="0" on="1"/>
        <pt x="25" y="0" on="1"/>
        <pt x="25" y="21" on="1"/>
        <pt x="58" y="18" on="0"/>
        <pt x="72" y="26" on="1"/>
        <pt x="89" y="40" on="0"/>
        <pt x="107" y="88" on="1"/>
        <pt x="248" y="457" on="1"/>
        <pt x="304" y="457" on="1"/>
        <pt x="456" y="21" on="1"/>
      </contour>
      <contour>
        <pt x="170" y="175" on="1"/>
        <pt x="309" y="175" on="1"/>
        <pt x="243" y="368" on="1"/>
      </contour>
    </TTGlyph>
    <TTGlyph name="Atilde" xMin="31" yMin="0" xMax="725" yMax="842">
      <contour>
        <pt x="725" y="31" on="1"/>
        <pt x="725" y="0" on="1"/>
        <pt x="465" y="0" on="1"/>
        <pt x="465" y="31" on="1"/>
        <pt x="545" y="31" on="1"/>
        <pt x="477" y="228" on="1"/>
        <pt x="236" y="228" on="1"/>
        <pt x="198" y="138" on="1"/>
        <pt x="180" y="92" on="0"/>
        <pt x="180" y="49" on="0"/>
        <pt x="192" y="31" on="0"/>
        <pt x="249" y="31" on="1"/>
        <pt x="249" y="0" on="1"/>
        <pt x="31" y="0" on="1"/>
        <pt x="31" y="31" on="1"/>
        <pt x="83" y="30" on="0"/>
        <pt x="130" y="59" on="0"/>
        <pt x="158" y="138" on="1"/>
        <pt x="375" y="708" on="1"/>
        <pt x="415" y="708" on="1"/>
        <pt x="651" y="31" on="1"/>
      </contour>
      <contour>
        <pt x="250" y="266" on="1"/>
        <pt x="463" y="266" on="1"/>
        <pt x="364" y="559" on="1"/>
      </contour>
      <contour>
        <pt x="520" y="842" on="1"/>
        <pt x="548" y="842" on="1"/>
        <pt x="548" y="803" on="0"/>
        <pt x="485" y="740" on="0"/>
        <pt x="418" y="740" on="0"/>
        <pt x="322" y="784" on="0"/>
        <pt x="308" y="784" on="1"/>
        <pt x="274" y="784" on="0"/>
        <pt x="257" y="740" on="1"/>
        <pt x="229" y="740" on="1"/>
        <pt x="246" y="836" on="0"/>
        <pt x="335" y="836" on="1"/>
        <pt x="355" y="836" on="0"/>
        <pt x="407" y="813" on="1"/>
        <pt x="452" y="791" on="0"/>
        <pt x="488" y="794" on="0"/>
        <pt x="510" y="817" on="0"/>
      </contour>
    </TTGlyph>
    <TTGlyph name="Atildesmall" xMin="15" yMin="0" xMax="504" yMax="616">
      <contour>
        <pt x="504" y="21" on="1"/>
        <pt x="504" y="0" on="1"/>
        <pt x="301" y="0" on="1"/>
        <pt x="301" y="21" on="1"/>
        <pt x="353" y="21" on="1"/>
        <pt x="310" y="150" on="1"/>
        <pt x="150" y="150" on="1"/>
        <pt x="126" y="90" on="1"/>
        <pt x="113" y="60" on="0"/>
        <pt x="113" y="31" on="0"/>
        <pt x="122" y="21" on="0"/>
        <pt x="159" y="21" on="1"/>
        <pt x="159" y="0" on="1"/>
        <pt x="15" y="0" on="1"/>
        <pt x="15" y="21" on="1"/>
        <pt x="50" y="18" on="0"/>
        <pt x="63" y="27" on="1"/>
        <pt x="80" y="40" on="0"/>
        <pt x="99" y="90" on="1"/>
        <pt x="242" y="466" on="1"/>
        <pt x="299" y="466" on="1"/>
        <pt x="454" y="21" on="1"/>
      </contour>
      <contour>
        <pt x="160" y="175" on="1"/>
        <pt x="299" y="175" on="1"/>
        <pt x="233" y="368" on="1"/>
      </contour>
      <contour>
        <pt x="352" y="616" on="1"/>
        <pt x="375" y="616" on="1"/>
        <pt x="375" y="586" on="0"/>
        <pt x="324" y="535" on="0"/>
        <pt x="268" y="535" on="0"/>
        <pt x="220" y="558" on="1"/>
        <pt x="192" y="569" on="0"/>
        <pt x="181" y="569" on="1"/>
        <pt x="153" y="569" on="0"/>
        <pt x="140" y="535" on="1"/>
        <pt x="119" y="535" on="1"/>
        <pt x="132" y="611" on="0"/>
        <pt x="203" y="611" on="1"/>
        <pt x="220" y="611" on="0"/>
        <pt x="300" y="576" on="0"/>
        <pt x="308" y="577" on="1"/>
        <pt x="337" y="579" on="0"/>
      </contour>
    </TTGlyph>
    <TTGlyph name="B" xMin="52" yMin="0" xMax="637" yMax="689">
      <contour>
        <pt x="637" y="173" on="1"/>
        <pt x="635" y="0" on="0"/>
        <pt x="400" y="0" on="1"/>
        <pt x="52" y="0" on="1"/>
        <pt x="52" y="31" on="1"/>
        <pt x="146" y="31" on="1"/>
        <pt x="146" y="658" on="1"/>
        <pt x="52" y="658" on="1"/>
        <pt x="52" y="689" on="1"/>
        <pt x="402" y="689" on="1"/>
        <pt x="497" y="689" on="0"/>
        <pt x="606" y="597" on="0"/>
        <pt x="606" y="453" on="0"/>
        <pt x="518" y="365" on="0"/>
        <pt x="449" y="353" on="1"/>
        <pt x="515" y="352" on="0"/>
        <pt x="570" y="312" on="1"/>
        <pt x="639" y="262" on="0"/>
      </contour>
      <contour>
        <pt x="507" y="519" on="1"/>
        <pt x="507" y="658" on="0"/>
        <pt x="384" y="658" on="1"/>
        <pt x="237" y="658" on="1"/>
        <pt x="237" y="365" on="1"/>
        <pt x="368" y="365" on="1"/>
        <pt x="416" y="365" on="0"/>
        <pt x="456" y="397" on="1"/>
        <pt x="507" y="439" on="0"/>
      </contour>
      <contour>
        <pt x="474" y="57" on="1"/>
        <pt x="528" y="93" on="0"/>
        <pt x="526" y="262" on="0"/>
        <pt x="471" y="304" on="1"/>
        <pt x="430" y="335" on="0"/>
        <pt x="369" y="335" on="1"/>
        <pt x="237" y="335" on="1"/>
        <pt x="237" y="31" on="1"/>
        <pt x="377" y="31" on="1"/>
        <pt x="434" y="31" on="0"/>
      </contour>
    </TTGlyph>
    <TTGlyph name="Beta" xMin="52" yMin="0" xMax="637" yMax="689">
      <contour>
        <pt x="637" y="173" on="1"/>
        <pt x="637" y="0" on="0"/>
        <pt x="400" y="0" on="1"/>
        <pt x="52" y="0" on="1"/>
        <pt x="52" y="31" on="1"/>
        <pt x="146" y="31" on="1"/>
        <pt x="146" y="658" on="1"/>
        <pt x="52" y="658" on="1"/>
        <pt x="52" y="689" on="1"/>
        <pt x="402" y="689" on="1"/>
        <pt x="489" y="689" on="0"/>
        <pt x="606" y="602" on="0"/>
        <pt x="606" y="518" on="1"/>
        <pt x="606" y="452" on="0"/>
        <pt x="516" y="363" on="0"/>
        <pt x="449" y="353" on="1"/>
        <pt x="528" y="352" on="0"/>
        <pt x="637" y="252" on="0"/>
      </contour>
      <contour>
        <pt x="507" y="519" on="1"/>
        <pt x="507" y="658" on="0"/>
        <pt x="384" y="658" on="1"/>
        <pt x="237" y="658" on="1"/>
        <pt x="237" y="365" on="1"/>
        <pt x="368" y="365" on="1"/>
        <pt x="431" y="365" on="0"/>
        <pt x="471" y="410" on="1"/>
        <pt x="507" y="455" on="0"/>
      </contour>
      <contour>
        <pt x="528" y="176" on="1"/>
        <pt x="528" y="249" on="0"/>
        <pt x="441" y="335" on="0"/>
        <pt x="369" y="335" on="1"/>
        <pt x="237" y="335" on="1"/>
        <pt x="237" y="31" on="1"/>
        <pt x="377" y="31" on="1"/>
        <pt x="528" y="31" on="0"/>
      </contour>
    </TTGlyph>
    <TTGlyph name="Breve" xMin="18" yMin="757" xMax="314" yMax="914">
      <contour>
        <pt x="311" y="914" on="1"/>
        <pt x="314" y="911" on="1"/>
        <pt x="314" y="845" on="0"/>
        <pt x="233" y="757" on="0"/>
        <pt x="100" y="757" on="0"/>
        <pt x="18" y="842" on="0"/>
        <pt x="18" y="911" on="1"/>
        <pt x="21" y="914" on="1"/>
        <pt x="47" y="914" on="1"/>
        <pt x="66" y="821" on="0"/>
        <pt x="268" y="821" on="0"/>
        <pt x="285" y="914" on="1"/>
      </contour>
    </TTGlyph>
    <TTGlyph name="Brevesmall" xMin="30" yMin="529" xMax="302" yMax="679">
      <contour>
        <pt x="300" y="679" on="1"/>
        <pt x="302" y="676" on="1"/>
        <pt x="302" y="613" on="0"/>
        <pt x="231" y="529" on="0"/>
        <pt x="104" y="529" on="0"/>
        <pt x="30" y="609" on="0"/>
        <pt x="30" y="676" on="1"/>
        <pt x="32" y="679" on="1"/>
        <pt x="56" y="679" on="1"/>
        <pt x="72" y="589" on="0"/>
        <pt x="260" y="589" on="0"/>
        <pt x="276" y="679" on="1"/>
      </contour>
    </TTGlyph>
    <TTGlyph name="Bsmall" xMin="36" yMin="0" xMax="454" yMax="457">
      <contour>
        <pt x="454" y="115" on="1"/>
        <pt x="454" y="0" on="0"/>
        <pt x="296" y="0" on="1"/>
        <pt x="36" y="0" on="1"/>
        <pt x="36" y="21" on="1"/>
        <pt x="97" y="21" on="1"/>
        <pt x="97" y="436" on="1"/>
        <pt x="36" y="436" on="1"/>
        <pt x="36" y="457" on="1"/>
        <pt x="297" y="457" on="1"/>
        <pt x="360" y="457" on="0"/>
        <pt x="433" y="395" on="0"/>
        <pt x="433" y="300" on="0"/>
        <pt x="374" y="242" on="0"/>
        <pt x="328" y="235" on="1"/>
        <pt x="372" y="234" on="0"/>
        <pt x="409" y="207" on="1"/>
        <pt x="456" y="174" on="0"/>
      </contour>
      <contour>
        <pt x="303" y="263" on="1"/>
        <pt x="337" y="291" on="0"/>
        <pt x="337" y="387" on="0"/>
        <pt x="289" y="436" on="0"/>
        <pt x="254" y="436" on="1"/>
        <pt x="188" y="436" on="1"/>
        <pt x="188" y="242" on="1"/>
        <pt x="245" y="242" on="1"/>
        <pt x="278" y="242" on="0"/>
      </contour>
      <contour>
        <pt x="309" y="38" on="1"/>
        <pt x="350" y="64" on="0"/>
        <pt x="350" y="173" on="0"/>
        <pt x="312" y="202" on="1"/>
        <pt x="284" y="222" on="0"/>
        <pt x="246" y="222" on="1"/>
        <pt x="188" y="222" on="1"/>
        <pt x="188" y="21" on="1"/>
        <pt x="252" y="21" on="1"/>
        <pt x="280" y="21" on="0"/>
      </contour>
    </TTGlyph>
    <TTGlyph name="C" xMin="32" yMin="-16" xMax="599" yMax="704">
      <contour>
        <pt x="585" y="128" on="1"/>
        <pt x="599" y="112" on="1"/>
        <pt x="546" y="38" on="0"/>
        <pt x="426" y="-16" on="0"/>
        <pt x="339" y="-16" on="1"/>
        <pt x="211" y="-16" on="0"/>
        <pt x="121" y="89" on="1"/>
        <pt x="31" y="196" on="0"/>
        <pt x="34" y="507" on="0"/>
        <pt x="210" y="704" on="0"/>
        <pt x="339" y="704" on="1"/>
        <pt x="421" y="704" on="0"/>
        <pt x="495" y="689" on="0"/>
        <pt x="547" y="669" on="1"/>
        <pt x="547" y="512" on="1"/>
        <pt x="517" y="512" on="1"/>
        <pt x="510" y="600" on="0"/>
        <pt x="430" y="679" on="0"/>
        <pt x="342" y="675" on="1"/>
        <pt x="148" y="666" on="0"/>
        <pt x="148" y="344" on="1"/>
        <pt x="148" y="202" on="0"/>
        <pt x="198" y="111" on="1"/>
        <pt x="250" y="21" on="0"/>
        <pt x="418" y="18" on="0"/>
        <pt x="526" y="69" on="0"/>
      </contour>
    </TTGlyph>
    <TTGlyph name="Cacute" xMin="32" yMin="-16" xMax="599" yMax="947">
      <contour>
        <pt x="585" y="128" on="1"/>
        <pt x="599" y="112" on="1"/>
        <pt x="546" y="38" on="0"/>
        <pt x="426" y="-16" on="0"/>
        <pt x="339" y="-16" on="1"/>
        <pt x="211" y="-16" on="0"/>
        <pt x="121" y="89" on="1"/>
        <pt x="31" y="196" on="0"/>
        <pt x="34" y="507" on="0"/>
        <pt x="210" y="704" on="0"/>
        <pt x="339" y="704" on="1"/>
        <pt x="421" y="704" on="0"/>
        <pt x="495" y="689" on="0"/>
        <pt x="547" y="669" on="1"/>
        <pt x="547" y="512" on="1"/>
        <pt x="517" y="512" on="1"/>
        <pt x="510" y="600" on="0"/>
        <pt x="430" y="679" on="0"/>
        <pt x="342" y="675" on="1"/>
        <pt x="148" y="666" on="0"/>
        <pt x="148" y="344" on="1"/>
        <pt x="148" y="202" on="0"/>
        <pt x="198" y="111" on="1"/>
        <pt x="250" y="21" on="0"/>
        <pt x="418" y="18" on="0"/>
        <pt x="526" y="69" on="0"/>
      </contour>
      <contour>
        <pt x="483" y="911" on="1"/>
        <pt x="483" y="890" on="0"/>
        <pt x="470" y="877" on="1"/>
        <pt x="337" y="741" on="1"/>
        <pt x="316" y="746" on="1"/>
        <pt x="413" y="927" on="1"/>
        <pt x="424" y="947" on="0"/>
        <pt x="450" y="947" on="1"/>
        <pt x="483" y="947" on="0"/>
      </contour>
    </TTGlyph>
    <TTGlyph name="Caron" xMin="0" yMin="658" xMax="296" yMax="814">
      <contour>
        <pt x="293" y="814" on="1"/>
        <pt x="296" y="809" on="1"/>
        <pt x="176" y="658" on="1"/>
        <pt x="122" y="658" on="1"/>
        <pt x="0" y="809" on="1"/>
        <pt x="3" y="814" on="1"/>
        <pt x="29" y="814" on="1"/>
        <pt x="148" y="706" on="1"/>
        <pt x="265" y="814" on="1"/>
      </contour>
    </TTGlyph>
    <TTGlyph name="Caronsmall" xMin="6" yMin="526" xMax="326" yMax="684">
      <contour>
        <pt x="325" y="684" on="1"/>
        <pt x="326" y="679" on="1"/>
        <pt x="199" y="526" on="1"/>
        <pt x="132" y="526" on="1"/>
        <pt x="6" y="679" on="1"/>
        <pt x="8" y="684" on="1"/>
        <pt x="40" y="684" on="1"/>
        <pt x="166" y="573" on="1"/>
        <pt x="292" y="684" on="1"/>
      </contour>
    </TTGlyph>
    <TTGlyph name="Ccaron" xMin="32" yMin="-13" xMax="599" yMax="902">
      <contour>
        <pt x="599" y="115" on="1"/>
        <pt x="585" y="131" on="1"/>
        <pt x="526" y="72" on="0"/>
        <pt x="418" y="22" on="0"/>
        <pt x="250" y="24" on="0"/>
        <pt x="198" y="114" on="1"/>
        <pt x="148" y="205" on="0"/>
        <pt x="148" y="347" on="1"/>
        <pt x="148" y="669" on="0"/>
        <pt x="342" y="678" on="1"/>
        <pt x="430" y="682" on="0"/>
        <pt x="510" y="603" on="0"/>
        <pt x="517" y="515" on="1"/>
        <pt x="547" y="515" on="1"/>
        <pt x="547" y="672" on="1"/>
        <pt x="495" y="692" on="0"/>
        <pt x="421" y="707" on="0"/>
        <pt x="339" y="707" on="1"/>
        <pt x="210" y="707" on="0"/>
        <pt x="34" y="510" on="0"/>
        <pt x="31" y="199" on="0"/>
        <pt x="121" y="92" on="1"/>
        <pt x="211" y="-13" on="0"/>
        <pt x="339" y="-13" on="1"/>
        <pt x="426" y="-13" on="0"/>
        <pt x="546" y="41" on="0"/>
      </contour>
      <contour>
        <pt x="497" y="902" on="1"/>
        <pt x="375" y="739" on="1"/>
        <pt x="315" y="739" on="1"/>
        <pt x="193" y="902" on="1"/>
        <pt x="227" y="902" on="1"/>
        <pt x="344" y="802" on="1"/>
        <pt x="463" y="902" on="1"/>
      </contour>
    </TTGlyph>
    <TTGlyph name="Ccedilla" xMin="60" yMin="-218" xMax="625" yMax="703">
      <contour>
        <pt x="418" y="-68" on="0"/>
        <pt x="464" y="-105" on="0"/>
        <pt x="464" y="-179" on="0"/>
        <pt x="392" y="-218" on="0"/>
        <pt x="314" y="-218" on="0"/>
        <pt x="262" y="-203" on="1"/>
        <pt x="276" y="-172" on="1"/>
        <pt x="309" y="-182" on="0"/>
        <pt x="335" y="-182" on="1"/>
        <pt x="391" y="-182" on="0"/>
        <pt x="391" y="-139" on="1"/>
        <pt x="391" y="-104" on="0"/>
        <pt x="352" y="-104" on="1"/>
        <pt x="335" y="-104" on="0"/>
        <pt x="314" y="-111" on="1"/>
        <pt x="307" y="-105" on="1"/>
        <pt x="345" y="-15" on="1"/>
        <pt x="224" y="-4" on="0"/>
        <pt x="59" y="203" on="0"/>
        <pt x="61" y="505" on="0"/>
        <pt x="152" y="606" on="1"/>
        <pt x="237" y="703" on="0"/>
        <pt x="367" y="703" on="1"/>
        <pt x="452" y="703" on="0"/>
        <pt x="511" y="690" on="1"/>
        <pt x="541" y="681" on="0"/>
        <pt x="593" y="662" on="1"/>
        <pt x="575" y="580" on="0"/>
        <pt x="575" y="515" on="1"/>
        <pt x="545" y="515" on="1"/>
        <pt x="545" y="585" on="1"/>
        <pt x="545" y="603" on="0"/>
        <pt x="498" y="650" on="0"/>
        <pt x="475" y="657" on="1"/>
        <pt x="416" y="677" on="0"/>
        <pt x="372" y="675" on="1"/>
        <pt x="177" y="662" on="0"/>
        <pt x="177" y="344" on="1"/>
        <pt x="177" y="202" on="0"/>
        <pt x="276" y="23" on="0"/>
        <pt x="445" y="18" on="0"/>
        <pt x="554" y="69" on="0"/>
        <pt x="613" y="128" on="1"/>
        <pt x="625" y="114" on="1"/>
        <pt x="597" y="68" on="1"/>
        <pt x="552" y="34" on="1"/>
        <pt x="483" y="-13" on="0"/>
        <pt x="377" y="-16" on="1"/>
        <pt x="356" y="-73" on="1"/>
        <pt x="368" y="-68" on="0"/>
      </contour>
    </TTGlyph>
    <TTGlyph name="Ccedillasmall" xMin="40" yMin="-218" xMax="433" yMax="465">
      <contour>
        <pt x="279" y="-10" on="1"/>
        <pt x="255" y="-73" on="1"/>
        <pt x="264" y="-69" on="0"/>
        <pt x="318" y="-69" on="0"/>
        <pt x="363" y="-105" on="0"/>
        <pt x="363" y="-179" on="0"/>
        <pt x="292" y="-218" on="0"/>
        <pt x="214" y="-218" on="0"/>
        <pt x="161" y="-203" on="1"/>
        <pt x="176" y="-173" on="1"/>
        <pt x="207" y="-183" on="0"/>
        <pt x="234" y="-183" on="1"/>
        <pt x="290" y="-183" on="0"/>
        <pt x="290" y="-139" on="1"/>
        <pt x="290" y="-104" on="0"/>
        <pt x="251" y="-104" on="1"/>
        <pt x="234" y="-104" on="0"/>
        <pt x="213" y="-111" on="1"/>
        <pt x="206" y="-105" on="1"/>
        <pt x="247" y="-11" on="1"/>
        <pt x="169" y="-10" on="0"/>
        <pt x="40" y="130" on="0"/>
        <pt x="40" y="333" on="0"/>
        <pt x="166" y="465" on="0"/>
        <pt x="253" y="465" on="1"/>
        <pt x="322" y="465" on="0"/>
        <pt x="410" y="436" on="1"/>
        <pt x="410" y="310" on="1"/>
        <pt x="386" y="310" on="1"/>
        <pt x="380" y="378" on="0"/>
        <pt x="320" y="445" on="0"/>
        <pt x="202" y="445" on="0"/>
        <pt x="139" y="332" on="0"/>
        <pt x="139" y="225" on="1"/>
        <pt x="139" y="14" on="0"/>
        <pt x="274" y="14" on="1"/>
        <pt x="353" y="14" on="0"/>
        <pt x="422" y="89" on="1"/>
        <pt x="433" y="78" on="1"/>
        <pt x="399" y="33" on="0"/>
        <pt x="330" y="-7" on="0"/>
      </contour>
    </TTGlyph>
    <TTGlyph name="Ccircumflex" xMin="32" yMin="-16" xMax="599" yMax="903">
      <contour>
        <pt x="585" y="128" on="1"/>
        <pt x="599" y="112" on="1"/>
        <pt x="546" y="38" on="0"/>
        <pt x="426" y="-16" on="0"/>
        <pt x="339" y="-16" on="1"/>
        <pt x="211" y="-16" on="0"/>
        <pt x="121" y="89" on="1"/>
        <pt x="31" y="196" on="0"/>
        <pt x="34" y="507" on="0"/>
        <pt x="210" y="704" on="0"/>
        <pt x="339" y="704" on="1"/>
        <pt x="421" y="704" on="0"/>
        <pt x="495" y="689" on="0"/>
        <pt x="547" y="669" on="1"/>
        <pt x="547" y="512" on="1"/>
        <pt x="517" y="512" on="1"/>
        <pt x="510" y="600" on="0"/>
        <pt x="430" y="679" on="0"/>
        <pt x="342" y="675" on="1"/>
        <pt x="148" y="666" on="0"/>
        <pt x="148" y="344" on="1"/>
        <pt x="148" y="202" on="0"/>
        <pt x="198" y="111" on="1"/>
        <pt x="250" y="21" on="0"/>
        <pt x="418" y="18" on="0"/>
        <pt x="526" y="69" on="0"/>
      </contour>
      <contour>
        <pt x="372" y="903" on="1"/>
        <pt x="494" y="739" on="1"/>
        <pt x="460" y="739" on="1"/>
        <pt x="341" y="840" on="1"/>
        <pt x="224" y="739" on="1"/>
        <pt x="189" y="739" on="1"/>
        <pt x="311" y="903" on="1"/>
      </contour>
    </TTGlyph>
    <TTGlyph name="Cdotaccent" xMin="32" yMin="-16" xMax="599" yMax="848">
      <contour>
        <pt x="585" y="128" on="1"/>
        <pt x="599" y="112" on="1"/>
        <pt x="546" y="38" on="0"/>
        <pt x="426" y="-16" on="0"/>
        <pt x="339" y="-16" on="1"/>
        <pt x="211" y="-16" on="0"/>
        <pt x="121" y="89" on="1"/>
        <pt x="31" y="196" on="0"/>
        <pt x="34" y="507" on="0"/>
        <pt x="210" y="704" on="0"/>
        <pt x="339" y="704" on="1"/>
        <pt x="421" y="704" on="0"/>
        <pt x="495" y="689" on="0"/>
        <pt x="547" y="669" on="1"/>
        <pt x="547" y="512" on="1"/>
        <pt x="517" y="512" on="1"/>
        <pt x="510" y="600" on="0"/>
        <pt x="430" y="679" on="0"/>
        <pt x="342" y="675" on="1"/>
        <pt x="148" y="666" on="0"/>
        <pt x="148" y="344" on="1"/>
        <pt x="148" y="202" on="0"/>
        <pt x="198" y="111" on="1"/>
        <pt x="250" y="21" on="0"/>
        <pt x="418" y="18" on="0"/>
        <pt x="526" y="69" on="0"/>
      </contour>
      <contour>
        <pt x="402" y="771" on="0"/>
        <pt x="370" y="739" on="0"/>
        <pt x="325" y="739" on="0"/>
        <pt x="293" y="771" on="0"/>
        <pt x="293" y="816" on="0"/>
        <pt x="325" y="848" on="0"/>
        <pt x="370" y="848" on="0"/>
        <pt x="402" y="816" on="0"/>
      </contour>
    </TTGlyph>
    <TTGlyph name="Cedilla" xMin="92" yMin="-218" xMax="294" yMax="-10">
      <contour>
        <pt x="248" y="-68" on="0"/>
        <pt x="294" y="-105" on="0"/>
        <pt x="294" y="-179" on="0"/>
        <pt x="222" y="-218" on="0"/>
        <pt x="144" y="-218" on="0"/>
        <pt x="92" y="-203" on="1"/>
        <pt x="107" y="-172" on="1"/>
        <pt x="138" y="-182" on="0"/>
        <pt x="165" y="-182" on="1"/>
        <pt x="221" y="-182" on="0"/>
        <pt x="221" y="-139" on="1"/>
        <pt x="221" y="-104" on="0"/>
        <pt x="182" y="-104" on="1"/>
        <pt x="165" y="-104" on="0"/>
        <pt x="144" y="-111" on="1"/>
        <pt x="137" y="-105" on="1"/>
        <pt x="178" y="-10" on="1"/>
        <pt x="210" y="-10" on="1"/>
        <pt x="186" y="-73" on="1"/>
        <pt x="198" y="-68" on="0"/>
      </contour>
    </TTGlyph>
    <TTGlyph name="Cedillasmall" xMin="92" yMin="-218" xMax="294" yMax="-10">
      <contour>
        <pt x="248" y="-68" on="0"/>
        <pt x="294" y="-105" on="0"/>
        <pt x="294" y="-179" on="0"/>
        <pt x="222" y="-218" on="0"/>
        <pt x="144" y="-218" on="0"/>
        <pt x="92" y="-203" on="1"/>
        <pt x="107" y="-172" on="1"/>
        <pt x="138" y="-182" on="0"/>
        <pt x="165" y="-182" on="1"/>
        <pt x="221" y="-182" on="0"/>
        <pt x="221" y="-139" on="1"/>
        <pt x="221" y="-104" on="0"/>
        <pt x="182" y="-104" on="1"/>
        <pt x="165" y="-104" on="0"/>
        <pt x="144" y="-111" on="1"/>
        <pt x="137" y="-105" on="1"/>
        <pt x="178" y="-10" on="1"/>
        <pt x="210" y="-10" on="1"/>
        <pt x="186" y="-73" on="1"/>
        <pt x="198" y="-68" on="0"/>
      </contour>
    </TTGlyph>
    <TTGlyph name="Chi" xMin="3" yMin="0" xMax="744" yMax="689">
      <contour>
        <pt x="744" y="31" on="1"/>
        <pt x="744" y="0" on="1"/>
        <pt x="466" y="0" on="1"/>
        <pt x="466" y="31" on="1"/>
        <pt x="548" y="31" on="1"/>
        <pt x="349" y="307" on="1"/>
        <pt x="255" y="190" on="1"/>
        <pt x="170" y="83" on="0"/>
        <pt x="170" y="60" on="1"/>
        <pt x="170" y="31" on="0"/>
        <pt x="242" y="31" on="1"/>
        <pt x="242" y="0" on="1"/>
        <pt x="3" y="0" on="1"/>
        <pt x="3" y="31" on="1"/>
        <pt x="72" y="31" on="0"/>
        <pt x="139" y="88" on="1"/>
        <pt x="187" y="130" on="0"/>
        <pt x="245" y="212" on="1"/>
        <pt x="328" y="334" on="1"/>
        <pt x="96" y="658" on="1"/>
        <pt x="25" y="658" on="1"/>
        <pt x="25" y="689" on="1"/>
        <pt x="292" y="689" on="1"/>
        <pt x="292" y="658" on="1"/>
        <pt x="217" y="658" on="1"/>
        <pt x="391" y="417" on="1"/>
        <pt x="470" y="514" on="1"/>
        <pt x="542" y="606" on="0"/>
        <pt x="542" y="627" on="1"/>
        <pt x="542" y="658" on="0"/>
        <pt x="471" y="658" on="1"/>
        <pt x="471" y="689" on="1"/>
        <pt x="705" y="689" on="1"/>
        <pt x="705" y="658" on="1"/>
        <pt x="642" y="658" on="0"/>
        <pt x="537" y="568" on="0"/>
        <pt x="488" y="498" on="1"/>
        <pt x="413" y="389" on="1"/>
        <pt x="674" y="31" on="1"/>
      </contour>
    </TTGlyph>
    <TTGlyph name="Circumflexsmall" xMin="11" yMin="494" xMax="312" yMax="656">
      <contour>
        <pt x="192" y="656" on="1"/>
        <pt x="312" y="494" on="1"/>
        <pt x="278" y="494" on="1"/>
        <pt x="162" y="594" on="1"/>
        <pt x="44" y="494" on="1"/>
        <pt x="11" y="494" on="1"/>
        <pt x="132" y="656" on="1"/>
      </contour>
    </TTGlyph>
    <TTGlyph name="Commaaccentsmall" xMin="-47" yMin="-206" xMax="46" yMax="-41">
      <contour>
        <pt x="21" y="-41" on="0"/>
        <pt x="46" y="-78" on="0"/>
        <pt x="46" y="-137" on="0"/>
        <pt x="-6" y="-202" on="0"/>
        <pt x="-41" y="-206" on="1"/>
        <pt x="-41" y="-192" on="1"/>
        <pt x="-19" y="-186" on="0"/>
        <pt x="14" y="-146" on="0"/>
        <pt x="14" y="-112" on="0"/>
        <pt x="9" y="-112" on="1"/>
        <pt x="8" y="-112" on="0"/>
        <pt x="-4" y="-121" on="0"/>
        <pt x="-24" y="-121" on="0"/>
        <pt x="-47" y="-98" on="0"/>
        <pt x="-47" y="-63" on="0"/>
        <pt x="-21" y="-41" on="0"/>
      </contour>
    </TTGlyph>
    <TTGlyph name="Csmall" xMin="40" yMin="-11" xMax="433" yMax="465">
      <contour>
        <pt x="252" y="-11" on="1"/>
        <pt x="170" y="-11" on="0"/>
        <pt x="40" y="130" on="0"/>
        <pt x="40" y="333" on="0"/>
        <pt x="166" y="465" on="0"/>
        <pt x="253" y="465" on="1"/>
        <pt x="322" y="465" on="0"/>
        <pt x="410" y="436" on="1"/>
        <pt x="410" y="310" on="1"/>
        <pt x="386" y="310" on="1"/>
        <pt x="380" y="378" on="0"/>
        <pt x="320" y="445" on="0"/>
        <pt x="202" y="445" on="0"/>
        <pt x="139" y="332" on="0"/>
        <pt x="139" y="225" on="1"/>
        <pt x="139" y="14" on="0"/>
        <pt x="274" y="14" on="1"/>
        <pt x="353" y="14" on="0"/>
        <pt x="422" y="89" on="1"/>
        <pt x="433" y="78" on="1"/>
        <pt x="396" y="28" on="0"/>
        <pt x="316" y="-11" on="0"/>
      </contour>
    </TTGlyph>
    <TTGlyph name="D" xMin="44" yMin="-2" xMax="691" yMax="689">
      <contour>
        <pt x="691" y="336" on="1"/>
        <pt x="691" y="196" on="0"/>
        <pt x="506" y="-6" on="0"/>
        <pt x="385" y="-2" on="1"/>
        <pt x="203" y="4" on="0"/>
        <pt x="44" y="0" on="1"/>
        <pt x="44" y="31" on="1"/>
        <pt x="138" y="31" on="1"/>
        <pt x="138" y="658" on="1"/>
        <pt x="44" y="658" on="1"/>
        <pt x="44" y="689" on="1"/>
        <pt x="133" y="684" on="0"/>
        <pt x="271" y="686" on="0"/>
        <pt x="388" y="685" on="1"/>
        <pt x="529" y="683" on="0"/>
        <pt x="691" y="496" on="0"/>
      </contour>
      <contour>
        <pt x="538" y="127" on="1"/>
        <pt x="587" y="205" on="0"/>
        <pt x="584" y="480" on="0"/>
        <pt x="546" y="554" on="1"/>
        <pt x="499" y="649" on="0"/>
        <pt x="388" y="658" on="1"/>
        <pt x="298" y="663" on="0"/>
        <pt x="227" y="654" on="1"/>
        <pt x="227" y="31" on="1"/>
        <pt x="295" y="25" on="0"/>
        <pt x="364" y="25" on="0"/>
        <pt x="386" y="27" on="1"/>
        <pt x="489" y="42" on="0"/>
      </contour>
    </TTGlyph>
    <TTGlyph name="Dcaron" xMin="44" yMin="-2" xMax="691" yMax="906">
      <contour>
        <pt x="691" y="336" on="1"/>
        <pt x="691" y="496" on="0"/>
        <pt x="529" y="683" on="0"/>
        <pt x="388" y="685" on="1"/>
        <pt x="271" y="686" on="0"/>
        <pt x="133" y="684" on="0"/>
        <pt x="44" y="689" on="1"/>
        <pt x="44" y="658" on="1"/>
        <pt x="138" y="658" on="1"/>
        <pt x="138" y="31" on="1"/>
        <pt x="44" y="31" on="1"/>
        <pt x="44" y="0" on="1"/>
        <pt x="203" y="4" on="0"/>
        <pt x="385" y="-2" on="1"/>
        <pt x="506" y="-6" on="0"/>
        <pt x="691" y="196" on="0"/>
      </contour>
      <contour>
        <pt x="546" y="554" on="1"/>
        <pt x="584" y="480" on="0"/>
        <pt x="587" y="205" on="0"/>
        <pt x="538" y="127" on="1"/>
        <pt x="489" y="42" on="0"/>
        <pt x="386" y="27" on="1"/>
        <pt x="364" y="25" on="0"/>
        <pt x="294" y="25" on="0"/>
        <pt x="227" y="31" on="1"/>
        <pt x="227" y="654" on="1"/>
        <pt x="298" y="663" on="0"/>
        <pt x="388" y="658" on="1"/>
        <pt x="499" y="649" on="0"/>
      </contour>
      <contour>
        <pt x="481" y="906" on="1"/>
        <pt x="359" y="743" on="1"/>
        <pt x="299" y="743" on="1"/>
        <pt x="177" y="906" on="1"/>
        <pt x="211" y="906" on="1"/>
        <pt x="328" y="806" on="1"/>
        <pt x="447" y="906" on="1"/>
      </contour>
    </TTGlyph>
    <TTGlyph name="Delta" xMin="32" yMin="0" xMax="587" yMax="707">
      <contour>
        <pt x="344" y="707" on="1"/>
        <pt x="587" y="0" on="1"/>
        <pt x="32" y="0" on="1"/>
        <pt x="304" y="707" on="1"/>
      </contour>
      <contour>
        <pt x="106" y="81" on="1"/>
        <pt x="464" y="81" on="1"/>
        <pt x="295" y="565" on="1"/>
      </contour>
    </TTGlyph>
    <TTGlyph name="Dieresis" xMin="-8" yMin="685" xMax="299" yMax="781">
      <contour>
        <pt x="271" y="685" on="0"/>
        <pt x="231" y="685" on="0"/>
        <pt x="203" y="713" on="0"/>
        <pt x="203" y="753" on="0"/>
        <pt x="231" y="781" on="0"/>
        <pt x="271" y="781" on="0"/>
        <pt x="299" y="753" on="0"/>
        <pt x="299" y="713" on="0"/>
      </contour>
      <contour>
        <pt x="88" y="713" on="0"/>
        <pt x="61" y="685" on="0"/>
        <pt x="20" y="685" on="0"/>
        <pt x="-8" y="713" on="0"/>
        <pt x="-8" y="753" on="0"/>
        <pt x="20" y="781" on="0"/>
        <pt x="61" y="781" on="0"/>
        <pt x="88" y="753" on="0"/>
      </contour>
    </TTGlyph>
    <TTGlyph name="Dieresissmall" xMin="16" yMin="520" xMax="307" yMax="617">
      <contour>
        <pt x="307" y="617" on="0"/>
        <pt x="307" y="520" on="0"/>
        <pt x="210" y="520" on="0"/>
        <pt x="210" y="617" on="0"/>
      </contour>
      <contour>
        <pt x="113" y="617" on="0"/>
        <pt x="113" y="520" on="0"/>
        <pt x="16" y="520" on="0"/>
        <pt x="16" y="617" on="0"/>
      </contour>
    </TTGlyph>
    <TTGlyph name="Dmacron" xMin="44" yMin="-2" xMax="691" yMax="689">
      <contour>
        <pt x="691" y="336" on="1"/>
        <pt x="691" y="196" on="0"/>
        <pt x="506" y="-6" on="0"/>
        <pt x="385" y="-2" on="1"/>
        <pt x="203" y="4" on="0"/>
        <pt x="44" y="0" on="1"/>
        <pt x="44" y="31" on="1"/>
        <pt x="138" y="31" on="1"/>
        <pt x="138" y="327" on="1"/>
        <pt x="46" y="327" on="1"/>
        <pt x="46" y="361" on="1"/>
        <pt x="138" y="361" on="1"/>
        <pt x="138" y="658" on="1"/>
        <pt x="44" y="658" on="1"/>
        <pt x="44" y="689" on="1"/>
        <pt x="133" y="684" on="0"/>
        <pt x="271" y="686" on="0"/>
        <pt x="388" y="685" on="1"/>
        <pt x="529" y="683" on="0"/>
        <pt x="691" y="496" on="0"/>
      </contour>
      <contour>
        <pt x="538" y="127" on="1"/>
        <pt x="587" y="205" on="0"/>
        <pt x="584" y="480" on="0"/>
        <pt x="546" y="554" on="1"/>
        <pt x="499" y="649" on="0"/>
        <pt x="388" y="658" on="1"/>
        <pt x="298" y="663" on="0"/>
        <pt x="227" y="654" on="1"/>
        <pt x="227" y="361" on="1"/>
        <pt x="376" y="361" on="1"/>
        <pt x="376" y="327" on="1"/>
        <pt x="227" y="327" on="1"/>
        <pt x="227" y="31" on="1"/>
        <pt x="295" y="25" on="0"/>
        <pt x="364" y="25" on="0"/>
        <pt x="386" y="27" on="1"/>
        <pt x="489" y="42" on="0"/>
      </contour>
    </TTGlyph>
    <TTGlyph name="Dotaccent" xMin="112" yMin="781" xMax="221" yMax="890">
      <contour>
        <pt x="221" y="813" on="0"/>
        <pt x="189" y="781" on="0"/>
        <pt x="144" y="781" on="0"/>
        <pt x="112" y="813" on="0"/>
        <pt x="112" y="858" on="0"/>
        <pt x="144" y="890" on="0"/>
        <pt x="189" y="890" on="0"/>
        <pt x="221" y="858" on="0"/>
      </contour>
    </TTGlyph>
    <TTGlyph name="Dotaccentsmall" xMin="113" yMin="552" xMax="219" yMax="658">
      <contour>
        <pt x="219" y="583" on="0"/>
        <pt x="188" y="552" on="0"/>
        <pt x="145" y="552" on="0"/>
        <pt x="113" y="583" on="0"/>
        <pt x="113" y="627" on="0"/>
        <pt x="144" y="658" on="0"/>
        <pt x="188" y="658" on="0"/>
        <pt x="219" y="627" on="0"/>
      </contour>
    </TTGlyph>
    <TTGlyph name="Dsmall" xMin="41" yMin="0" xMax="502" yMax="457">
      <contour>
        <pt x="116" y="32" on="1"/>
        <pt x="117" y="215" on="1"/>
        <pt x="117" y="320" on="0"/>
        <pt x="116" y="428" on="1"/>
        <pt x="109" y="438" on="0"/>
        <pt x="64" y="438" on="1"/>
        <pt x="41" y="438" on="1"/>
        <pt x="41" y="457" on="1"/>
        <pt x="111" y="460" on="0"/>
        <pt x="279" y="455" on="1"/>
        <pt x="502" y="433" on="0"/>
        <pt x="502" y="231" on="1"/>
        <pt x="502" y="119" on="0"/>
        <pt x="363" y="1" on="0"/>
        <pt x="263" y="1" on="1"/>
        <pt x="59" y="1" on="0"/>
        <pt x="41" y="0" on="1"/>
        <pt x="41" y="22" on="1"/>
        <pt x="64" y="22" on="1"/>
        <pt x="109" y="22" on="0"/>
      </contour>
      <contour>
        <pt x="195" y="430" on="1"/>
        <pt x="195" y="28" on="1"/>
        <pt x="240" y="28" on="1"/>
        <pt x="333" y="28" on="0"/>
        <pt x="371" y="72" on="1"/>
        <pt x="410" y="121" on="0"/>
        <pt x="410" y="233" on="1"/>
        <pt x="410" y="310" on="0"/>
        <pt x="345" y="416" on="0"/>
        <pt x="263" y="426" on="1"/>
        <pt x="231" y="432" on="0"/>
      </contour>
    </TTGlyph>
    <TTGlyph name="E" xMin="51" yMin="0" xMax="643" yMax="689">
      <contour>
        <pt x="611" y="239" on="1"/>
        <pt x="643" y="239" on="1"/>
        <pt x="632" y="0" on="1"/>
        <pt x="51" y="0" on="1"/>
        <pt x="51" y="31" on="1"/>
        <pt x="145" y="31" on="1"/>
        <pt x="145" y="658" on="1"/>
        <pt x="51" y="658" on="1"/>
        <pt x="51" y="689" on="1"/>
        <pt x="616" y="689" on="1"/>
        <pt x="618" y="486" on="1"/>
        <pt x="587" y="486" on="1"/>
        <pt x="580" y="573" on="0"/>
        <pt x="498" y="654" on="0"/>
        <pt x="405" y="656" on="1"/>
        <pt x="234" y="658" on="1"/>
        <pt x="234" y="368" on="1"/>
        <pt x="356" y="368" on="1"/>
        <pt x="399" y="368" on="0"/>
        <pt x="420" y="393" on="1"/>
        <pt x="443" y="425" on="0"/>
        <pt x="443" y="486" on="1"/>
        <pt x="474" y="486" on="1"/>
        <pt x="474" y="209" on="1"/>
        <pt x="443" y="209" on="1"/>
        <pt x="443" y="268" on="0"/>
        <pt x="394" y="334" on="0"/>
        <pt x="356" y="334" on="1"/>
        <pt x="234" y="334" on="1"/>
        <pt x="234" y="31" on="1"/>
        <pt x="421" y="34" on="1"/>
        <pt x="449" y="34" on="0"/>
        <pt x="528" y="64" on="0"/>
        <pt x="547" y="83" on="1"/>
        <pt x="607" y="139" on="0"/>
      </contour>
    </TTGlyph>
    <TTGlyph name="Eacute" xMin="51" yMin="0" xMax="643" yMax="946">
      <contour>
        <pt x="611" y="239" on="1"/>
        <pt x="643" y="239" on="1"/>
        <pt x="632" y="0" on="1"/>
        <pt x="51" y="0" on="1"/>
        <pt x="51" y="31" on="1"/>
        <pt x="145" y="31" on="1"/>
        <pt x="145" y="658" on="1"/>
        <pt x="51" y="658" on="1"/>
        <pt x="51" y="689" on="1"/>
        <pt x="616" y="689" on="1"/>
        <pt x="618" y="486" on="1"/>
        <pt x="587" y="486" on="1"/>
        <pt x="580" y="573" on="0"/>
        <pt x="499" y="654" on="0"/>
        <pt x="405" y="656" on="1"/>
        <pt x="234" y="658" on="1"/>
        <pt x="234" y="368" on="1"/>
        <pt x="356" y="368" on="1"/>
        <pt x="400" y="368" on="0"/>
        <pt x="419" y="393" on="1"/>
        <pt x="442" y="425" on="0"/>
        <pt x="442" y="486" on="1"/>
        <pt x="474" y="486" on="1"/>
        <pt x="474" y="209" on="1"/>
        <pt x="442" y="209" on="1"/>
        <pt x="442" y="268" on="0"/>
        <pt x="394" y="334" on="0"/>
        <pt x="356" y="334" on="1"/>
        <pt x="234" y="334" on="1"/>
        <pt x="234" y="31" on="1"/>
        <pt x="421" y="34" on="1"/>
        <pt x="449" y="34" on="0"/>
        <pt x="528" y="64" on="0"/>
        <pt x="547" y="83" on="1"/>
        <pt x="606" y="138" on="0"/>
      </contour>
      <contour>
        <pt x="487" y="911" on="1"/>
        <pt x="487" y="890" on="0"/>
        <pt x="474" y="878" on="1"/>
        <pt x="342" y="742" on="1"/>
        <pt x="321" y="746" on="1"/>
        <pt x="417" y="927" on="1"/>
        <pt x="427" y="946" on="0"/>
        <pt x="454" y="946" on="1"/>
        <pt x="487" y="946" on="0"/>
      </contour>
    </TTGlyph>
    <TTGlyph name="Eacutesmall" xMin="46" yMin="0" xMax="469" yMax="678">
      <contour>
        <pt x="442" y="158" on="1"/>
        <pt x="469" y="158" on="1"/>
        <pt x="459" y="0" on="1"/>
        <pt x="46" y="0" on="1"/>
        <pt x="46" y="21" on="1"/>
        <pt x="107" y="21" on="1"/>
        <pt x="107" y="433" on="1"/>
        <pt x="46" y="433" on="1"/>
        <pt x="46" y="454" on="1"/>
        <pt x="449" y="454" on="1"/>
        <pt x="450" y="320" on="1"/>
        <pt x="423" y="320" on="1"/>
        <pt x="418" y="375" on="0"/>
        <pt x="363" y="426" on="0"/>
        <pt x="303" y="427" on="1"/>
        <pt x="198" y="429" on="1"/>
        <pt x="198" y="243" on="1"/>
        <pt x="275" y="243" on="1"/>
        <pt x="305" y="243" on="0"/>
        <pt x="333" y="279" on="0"/>
        <pt x="333" y="320" on="1"/>
        <pt x="357" y="320" on="1"/>
        <pt x="357" y="137" on="1"/>
        <pt x="333" y="137" on="1"/>
        <pt x="333" y="176" on="0"/>
        <pt x="302" y="218" on="0"/>
        <pt x="275" y="218" on="1"/>
        <pt x="198" y="218" on="1"/>
        <pt x="198" y="24" on="1"/>
        <pt x="318" y="26" on="1"/>
        <pt x="336" y="26" on="0"/>
        <pt x="385" y="46" on="0"/>
        <pt x="400" y="58" on="1"/>
        <pt x="439" y="96" on="0"/>
      </contour>
      <contour>
        <pt x="378" y="650" on="1"/>
        <pt x="378" y="633" on="0"/>
        <pt x="367" y="622" on="1"/>
        <pt x="248" y="513" on="1"/>
        <pt x="227" y="517" on="1"/>
        <pt x="315" y="662" on="1"/>
        <pt x="324" y="678" on="0"/>
        <pt x="348" y="678" on="1"/>
        <pt x="378" y="678" on="0"/>
      </contour>
    </TTGlyph>
    <TTGlyph name="Ebreve" xMin="51" yMin="0" xMax="643" yMax="898">
      <contour>
        <pt x="611" y="239" on="1"/>
        <pt x="643" y="239" on="1"/>
        <pt x="632" y="0" on="1"/>
        <pt x="51" y="0" on="1"/>
        <pt x="51" y="31" on="1"/>
        <pt x="145" y="31" on="1"/>
        <pt x="145" y="658" on="1"/>
        <pt x="51" y="658" on="1"/>
        <pt x="51" y="689" on="1"/>
        <pt x="616" y="689" on="1"/>
        <pt x="618" y="486" on="1"/>
        <pt x="587" y="486" on="1"/>
        <pt x="580" y="573" on="0"/>
        <pt x="498" y="654" on="0"/>
        <pt x="405" y="656" on="1"/>
        <pt x="234" y="658" on="1"/>
        <pt x="234" y="368" on="1"/>
        <pt x="356" y="368" on="1"/>
        <pt x="399" y="368" on="0"/>
        <pt x="420" y="393" on="1"/>
        <pt x="443" y="425" on="0"/>
        <pt x="443" y="486" on="1"/>
        <pt x="474" y="486" on="1"/>
        <pt x="474" y="209" on="1"/>
        <pt x="443" y="209" on="1"/>
        <pt x="443" y="268" on="0"/>
        <pt x="394" y="334" on="0"/>
        <pt x="356" y="334" on="1"/>
        <pt x="234" y="334" on="1"/>
        <pt x="234" y="31" on="1"/>
        <pt x="421" y="34" on="1"/>
        <pt x="449" y="34" on="0"/>
        <pt x="528" y="64" on="0"/>
        <pt x="547" y="83" on="1"/>
        <pt x="607" y="139" on="0"/>
      </contour>
      <contour>
        <pt x="505" y="898" on="1"/>
        <pt x="508" y="895" on="1"/>
        <pt x="508" y="829" on="0"/>
        <pt x="427" y="741" on="0"/>
        <pt x="294" y="741" on="0"/>
        <pt x="212" y="826" on="0"/>
        <pt x="212" y="895" on="1"/>
        <pt x="215" y="898" on="1"/>
        <pt x="241" y="898" on="1"/>
        <pt x="260" y="805" on="0"/>
        <pt x="462" y="805" on="0"/>
        <pt x="479" y="898" on="1"/>
      </contour>
    </TTGlyph>
    <TTGlyph name="Ecaron" xMin="51" yMin="0" xMax="643" yMax="903">
      <contour>
        <pt x="643" y="239" on="1"/>
        <pt x="611" y="239" on="1"/>
        <pt x="607" y="139" on="0"/>
        <pt x="547" y="83" on="1"/>
        <pt x="528" y="64" on="0"/>
        <pt x="449" y="34" on="0"/>
        <pt x="421" y="34" on="1"/>
        <pt x="234" y="31" on="1"/>
        <pt x="234" y="334" on="1"/>
        <pt x="356" y="334" on="1"/>
        <pt x="394" y="334" on="0"/>
        <pt x="443" y="268" on="0"/>
        <pt x="443" y="209" on="1"/>
        <pt x="474" y="209" on="1"/>
        <pt x="474" y="486" on="1"/>
        <pt x="443" y="486" on="1"/>
        <pt x="443" y="425" on="0"/>
        <pt x="420" y="393" on="1"/>
        <pt x="399" y="368" on="0"/>
        <pt x="356" y="368" on="1"/>
        <pt x="234" y="368" on="1"/>
        <pt x="234" y="658" on="1"/>
        <pt x="405" y="656" on="1"/>
        <pt x="498" y="654" on="0"/>
        <pt x="580" y="573" on="0"/>
        <pt x="587" y="486" on="1"/>
        <pt x="618" y="486" on="1"/>
        <pt x="616" y="689" on="1"/>
        <pt x="51" y="689" on="1"/>
        <pt x="51" y="658" on="1"/>
        <pt x="145" y="658" on="1"/>
        <pt x="145" y="31" on="1"/>
        <pt x="51" y="31" on="1"/>
        <pt x="51" y="0" on="1"/>
        <pt x="632" y="0" on="1"/>
      </contour>
      <contour>
        <pt x="512" y="903" on="1"/>
        <pt x="390" y="740" on="1"/>
        <pt x="330" y="740" on="1"/>
        <pt x="208" y="903" on="1"/>
        <pt x="242" y="903" on="1"/>
        <pt x="359" y="803" on="1"/>
        <pt x="478" y="903" on="1"/>
      </contour>
    </TTGlyph>
    <TTGlyph name="Ecircumflex" xMin="51" yMin="0" xMax="643" yMax="905">
      <contour>
        <pt x="611" y="239" on="1"/>
        <pt x="643" y="239" on="1"/>
        <pt x="632" y="0" on="1"/>
        <pt x="51" y="0" on="1"/>
        <pt x="51" y="31" on="1"/>
        <pt x="145" y="31" on="1"/>
        <pt x="145" y="658" on="1"/>
        <pt x="51" y="658" on="1"/>
        <pt x="51" y="689" on="1"/>
        <pt x="616" y="689" on="1"/>
        <pt x="618" y="486" on="1"/>
        <pt x="587" y="486" on="1"/>
        <pt x="580" y="573" on="0"/>
        <pt x="498" y="654" on="0"/>
        <pt x="405" y="656" on="1"/>
        <pt x="234" y="658" on="1"/>
        <pt x="234" y="368" on="1"/>
        <pt x="356" y="368" on="1"/>
        <pt x="399" y="368" on="0"/>
        <pt x="420" y="393" on="1"/>
        <pt x="443" y="425" on="0"/>
        <pt x="443" y="486" on="1"/>
        <pt x="474" y="486" on="1"/>
        <pt x="474" y="209" on="1"/>
        <pt x="443" y="209" on="1"/>
        <pt x="443" y="268" on="0"/>
        <pt x="394" y="334" on="0"/>
        <pt x="356" y="334" on="1"/>
        <pt x="234" y="334" on="1"/>
        <pt x="234" y="31" on="1"/>
        <pt x="421" y="34" on="1"/>
        <pt x="449" y="34" on="0"/>
        <pt x="528" y="64" on="0"/>
        <pt x="547" y="83" on="1"/>
        <pt x="607" y="139" on="0"/>
      </contour>
      <contour>
        <pt x="349" y="905" on="1"/>
        <pt x="471" y="741" on="1"/>
        <pt x="437" y="741" on="1"/>
        <pt x="318" y="842" on="1"/>
        <pt x="201" y="741" on="1"/>
        <pt x="166" y="741" on="1"/>
        <pt x="288" y="905" on="1"/>
      </contour>
    </TTGlyph>
    <TTGlyph name="Ecircumflexacute" xMin="51" yMin="0" xMax="666" yMax="947">
      <contour>
        <pt x="611" y="239" on="1"/>
        <pt x="643" y="239" on="1"/>
        <pt x="632" y="0" on="1"/>
        <pt x="51" y="0" on="1"/>
        <pt x="51" y="31" on="1"/>
        <pt x="145" y="31" on="1"/>
        <pt x="145" y="658" on="1"/>
        <pt x="51" y="658" on="1"/>
        <pt x="51" y="689" on="1"/>
        <pt x="616" y="689" on="1"/>
        <pt x="618" y="486" on="1"/>
        <pt x="587" y="486" on="1"/>
        <pt x="580" y="573" on="0"/>
        <pt x="498" y="654" on="0"/>
        <pt x="405" y="656" on="1"/>
        <pt x="234" y="658" on="1"/>
        <pt x="234" y="368" on="1"/>
        <pt x="356" y="368" on="1"/>
        <pt x="399" y="368" on="0"/>
        <pt x="420" y="393" on="1"/>
        <pt x="443" y="425" on="0"/>
        <pt x="443" y="486" on="1"/>
        <pt x="474" y="486" on="1"/>
        <pt x="474" y="209" on="1"/>
        <pt x="443" y="209" on="1"/>
        <pt x="443" y="268" on="0"/>
        <pt x="394" y="334" on="0"/>
        <pt x="356" y="334" on="1"/>
        <pt x="234" y="334" on="1"/>
        <pt x="234" y="31" on="1"/>
        <pt x="421" y="34" on="1"/>
        <pt x="449" y="34" on="0"/>
        <pt x="528" y="64" on="0"/>
        <pt x="547" y="83" on="1"/>
        <pt x="607" y="139" on="0"/>
      </contour>
      <contour>
        <pt x="666" y="913" on="1"/>
        <pt x="666" y="892" on="0"/>
        <pt x="654" y="879" on="1"/>
        <pt x="522" y="743" on="1"/>
        <pt x="500" y="746" on="1"/>
        <pt x="597" y="928" on="1"/>
        <pt x="607" y="947" on="0"/>
        <pt x="633" y="947" on="1"/>
        <pt x="666" y="947" on="0"/>
      </contour>
      <contour>
        <pt x="358" y="900" on="1"/>
        <pt x="480" y="736" on="1"/>
        <pt x="446" y="736" on="1"/>
        <pt x="327" y="837" on="1"/>
        <pt x="210" y="736" on="1"/>
        <pt x="175" y="736" on="1"/>
        <pt x="297" y="900" on="1"/>
      </contour>
    </TTGlyph>
    <TTGlyph name="Ecircumflexdotbelow" xMin="51" yMin="-239" xMax="643" yMax="904">
      <contour>
        <pt x="611" y="239" on="1"/>
        <pt x="643" y="239" on="1"/>
        <pt x="632" y="0" on="1"/>
        <pt x="51" y="0" on="1"/>
        <pt x="51" y="31" on="1"/>
        <pt x="145" y="31" on="1"/>
        <pt x="145" y="658" on="1"/>
        <pt x="51" y="658" on="1"/>
        <pt x="51" y="689" on="1"/>
        <pt x="616" y="689" on="1"/>
        <pt x="618" y="486" on="1"/>
        <pt x="587" y="486" on="1"/>
        <pt x="580" y="573" on="0"/>
        <pt x="498" y="654" on="0"/>
        <pt x="405" y="656" on="1"/>
        <pt x="234" y="658" on="1"/>
        <pt x="234" y="368" on="1"/>
        <pt x="356" y="368" on="1"/>
        <pt x="399" y="368" on="0"/>
        <pt x="420" y="393" on="1"/>
        <pt x="443" y="425" on="0"/>
        <pt x="443" y="486" on="1"/>
        <pt x="474" y="486" on="1"/>
        <pt x="474" y="209" on="1"/>
        <pt x="443" y="209" on="1"/>
        <pt x="443" y="268" on="0"/>
        <pt x="394" y="334" on="0"/>
        <pt x="356" y="334" on="1"/>
        <pt x="234" y="334" on="1"/>
        <pt x="234" y="31" on="1"/>
        <pt x="421" y="34" on="1"/>
        <pt x="449" y="34" on="0"/>
        <pt x="528" y="64" on="0"/>
        <pt x="547" y="83" on="1"/>
        <pt x="607" y="139" on="0"/>
      </contour>
      <contour>
        <pt x="381" y="-133" on="0"/>
        <pt x="412" y="-164" on="0"/>
        <pt x="412" y="-208" on="0"/>
        <pt x="380" y="-239" on="0"/>
        <pt x="336" y="-239" on="0"/>
        <pt x="304" y="-208" on="0"/>
        <pt x="304" y="-164" on="0"/>
        <pt x="336" y="-133" on="0"/>
      </contour>
      <contour>
        <pt x="374" y="904" on="1"/>
        <pt x="496" y="740" on="1"/>
        <pt x="462" y="740" on="1"/>
        <pt x="343" y="841" on="1"/>
        <pt x="226" y="740" on="1"/>
        <pt x="191" y="740" on="1"/>
        <pt x="313" y="904" on="1"/>
      </contour>
    </TTGlyph>
    <TTGlyph name="Ecircumflexgrave" xMin="51" yMin="0" xMax="643" yMax="940">
      <contour>
        <pt x="611" y="239" on="1"/>
        <pt x="643" y="239" on="1"/>
        <pt x="632" y="0" on="1"/>
        <pt x="51" y="0" on="1"/>
        <pt x="51" y="31" on="1"/>
        <pt x="145" y="31" on="1"/>
        <pt x="145" y="658" on="1"/>
        <pt x="51" y="658" on="1"/>
        <pt x="51" y="689" on="1"/>
        <pt x="616" y="689" on="1"/>
        <pt x="618" y="486" on="1"/>
        <pt x="587" y="486" on="1"/>
        <pt x="580" y="573" on="0"/>
        <pt x="498" y="654" on="0"/>
        <pt x="405" y="656" on="1"/>
        <pt x="234" y="658" on="1"/>
        <pt x="234" y="368" on="1"/>
        <pt x="356" y="368" on="1"/>
        <pt x="399" y="368" on="0"/>
        <pt x="420" y="393" on="1"/>
        <pt x="443" y="425" on="0"/>
        <pt x="443" y="486" on="1"/>
        <pt x="474" y="486" on="1"/>
        <pt x="474" y="209" on="1"/>
        <pt x="443" y="209" on="1"/>
        <pt x="443" y="268" on="0"/>
        <pt x="394" y="334" on="0"/>
        <pt x="356" y="334" on="1"/>
        <pt x="234" y="334" on="1"/>
        <pt x="234" y="31" on="1"/>
        <pt x="421" y="34" on="1"/>
        <pt x="449" y="34" on="0"/>
        <pt x="528" y="64" on="0"/>
        <pt x="547" y="83" on="1"/>
        <pt x="607" y="139" on="0"/>
      </contour>
      <contour>
        <pt x="455" y="919" on="1"/>
        <pt x="554" y="737" on="1"/>
        <pt x="529" y="737" on="1"/>
        <pt x="391" y="872" on="1"/>
        <pt x="379" y="885" on="0"/>
        <pt x="379" y="903" on="1"/>
        <pt x="379" y="940" on="0"/>
        <pt x="417" y="940" on="1"/>
        <pt x="444" y="940" on="0"/>
      </contour>
      <contour>
        <pt x="339" y="904" on="1"/>
        <pt x="461" y="740" on="1"/>
        <pt x="427" y="740" on="1"/>
        <pt x="308" y="841" on="1"/>
        <pt x="191" y="740" on="1"/>
        <pt x="156" y="740" on="1"/>
        <pt x="278" y="904" on="1"/>
      </contour>
    </TTGlyph>
    <TTGlyph name="Ecircumflexhookabove" xMin="51" yMin="0" xMax="643" yMax="937">
      <contour>
        <pt x="611" y="239" on="1"/>
        <pt x="643" y="239" on="1"/>
        <pt x="632" y="0" on="1"/>
        <pt x="51" y="0" on="1"/>
        <pt x="51" y="31" on="1"/>
        <pt x="145" y="31" on="1"/>
        <pt x="145" y="658" on="1"/>
        <pt x="51" y="658" on="1"/>
        <pt x="51" y="689" on="1"/>
        <pt x="616" y="689" on="1"/>
        <pt x="618" y="486" on="1"/>
        <pt x="587" y="486" on="1"/>
        <pt x="580" y="573" on="0"/>
        <pt x="498" y="654" on="0"/>
        <pt x="405" y="656" on="1"/>
        <pt x="234" y="658" on="1"/>
        <pt x="234" y="368" on="1"/>
        <pt x="356" y="368" on="1"/>
        <pt x="399" y="368" on="0"/>
        <pt x="420" y="393" on="1"/>
        <pt x="443" y="425" on="0"/>
        <pt x="443" y="486" on="1"/>
        <pt x="474" y="486" on="1"/>
        <pt x="474" y="209" on="1"/>
        <pt x="443" y="209" on="1"/>
        <pt x="443" y="268" on="0"/>
        <pt x="394" y="334" on="0"/>
        <pt x="356" y="334" on="1"/>
        <pt x="234" y="334" on="1"/>
        <pt x="234" y="31" on="1"/>
        <pt x="421" y="34" on="1"/>
        <pt x="449" y="34" on="0"/>
        <pt x="528" y="64" on="0"/>
        <pt x="547" y="83" on="1"/>
        <pt x="607" y="139" on="0"/>
      </contour>
      <contour>
        <pt x="524" y="768" on="1"/>
        <pt x="524" y="765" on="0"/>
        <pt x="537" y="743" on="0"/>
        <pt x="524" y="743" on="1"/>
        <pt x="515" y="743" on="0"/>
        <pt x="503" y="761" on="0"/>
        <pt x="503" y="788" on="0"/>
        <pt x="557" y="850" on="0"/>
        <pt x="557" y="866" on="1"/>
        <pt x="557" y="905" on="0"/>
        <pt x="515" y="900" on="1"/>
        <pt x="496" y="898" on="0"/>
        <pt x="482" y="873" on="1"/>
        <pt x="476" y="863" on="0"/>
        <pt x="467" y="863" on="1"/>
        <pt x="455" y="863" on="0"/>
        <pt x="455" y="897" on="0"/>
        <pt x="488" y="929" on="0"/>
        <pt x="508" y="933" on="1"/>
        <pt x="519" y="937" on="0"/>
        <pt x="559" y="937" on="0"/>
        <pt x="598" y="903" on="0"/>
        <pt x="598" y="850" on="0"/>
        <pt x="524" y="778" on="0"/>
      </contour>
      <contour>
        <pt x="354" y="903" on="1"/>
        <pt x="476" y="739" on="1"/>
        <pt x="442" y="739" on="1"/>
        <pt x="323" y="840" on="1"/>
        <pt x="206" y="739" on="1"/>
        <pt x="171" y="739" on="1"/>
        <pt x="293" y="903" on="1"/>
      </contour>
    </TTGlyph>
    <TTGlyph name="Ecircumflexsmall" xMin="46" yMin="0" xMax="469" yMax="659">
      <contour>
        <pt x="442" y="158" on="1"/>
        <pt x="469" y="158" on="1"/>
        <pt x="459" y="0" on="1"/>
        <pt x="46" y="0" on="1"/>
        <pt x="46" y="21" on="1"/>
        <pt x="107" y="21" on="1"/>
        <pt x="107" y="433" on="1"/>
        <pt x="46" y="433" on="1"/>
        <pt x="46" y="454" on="1"/>
        <pt x="449" y="454" on="1"/>
        <pt x="450" y="320" on="1"/>
        <pt x="423" y="320" on="1"/>
        <pt x="418" y="375" on="0"/>
        <pt x="363" y="426" on="0"/>
        <pt x="303" y="427" on="1"/>
        <pt x="198" y="429" on="1"/>
        <pt x="198" y="243" on="1"/>
        <pt x="275" y="243" on="1"/>
        <pt x="305" y="243" on="0"/>
        <pt x="333" y="279" on="0"/>
        <pt x="333" y="320" on="1"/>
        <pt x="357" y="320" on="1"/>
        <pt x="357" y="137" on="1"/>
        <pt x="333" y="137" on="1"/>
        <pt x="333" y="176" on="0"/>
        <pt x="302" y="218" on="0"/>
        <pt x="275" y="218" on="1"/>
        <pt x="198" y="218" on="1"/>
        <pt x="198" y="24" on="1"/>
        <pt x="318" y="26" on="1"/>
        <pt x="336" y="26" on="0"/>
        <pt x="385" y="46" on="0"/>
        <pt x="400" y="58" on="1"/>
        <pt x="439" y="96" on="0"/>
      </contour>
      <contour>
        <pt x="293" y="659" on="1"/>
        <pt x="390" y="530" on="1"/>
        <pt x="360" y="530" on="1"/>
        <pt x="269" y="608" on="1"/>
        <pt x="177" y="530" on="1"/>
        <pt x="148" y="530" on="1"/>
        <pt x="245" y="659" on="1"/>
      </contour>
    </TTGlyph>
    <TTGlyph name="Ecircumflextilde" xMin="51" yMin="0" xMax="643" yMax="1040">
      <contour>
        <pt x="611" y="239" on="1"/>
        <pt x="643" y="239" on="1"/>
        <pt x="632" y="0" on="1"/>
        <pt x="51" y="0" on="1"/>
        <pt x="51" y="31" on="1"/>
        <pt x="145" y="31" on="1"/>
        <pt x="145" y="658" on="1"/>
        <pt x="51" y="658" on="1"/>
        <pt x="51" y="689" on="1"/>
        <pt x="616" y="689" on="1"/>
        <pt x="618" y="486" on="1"/>
        <pt x="587" y="486" on="1"/>
        <pt x="580" y="573" on="0"/>
        <pt x="498" y="654" on="0"/>
        <pt x="405" y="656" on="1"/>
        <pt x="234" y="658" on="1"/>
        <pt x="234" y="368" on="1"/>
        <pt x="356" y="368" on="1"/>
        <pt x="399" y="368" on="0"/>
        <pt x="420" y="393" on="1"/>
        <pt x="443" y="425" on="0"/>
        <pt x="443" y="486" on="1"/>
        <pt x="474" y="486" on="1"/>
        <pt x="474" y="209" on="1"/>
        <pt x="443" y="209" on="1"/>
        <pt x="443" y="268" on="0"/>
        <pt x="394" y="334" on="0"/>
        <pt x="356" y="334" on="1"/>
        <pt x="234" y="334" on="1"/>
        <pt x="234" y="31" on="1"/>
        <pt x="421" y="34" on="1"/>
        <pt x="449" y="34" on="0"/>
        <pt x="528" y="64" on="0"/>
        <pt x="547" y="83" on="1"/>
        <pt x="607" y="139" on="0"/>
      </contour>
      <contour>
        <pt x="483" y="1040" on="1"/>
        <pt x="500" y="1040" on="1"/>
        <pt x="495" y="936" on="0"/>
        <pt x="407" y="936" on="1"/>
        <pt x="376" y="936" on="0"/>
        <pt x="263" y="975" on="0"/>
        <pt x="219" y="975" on="0"/>
        <pt x="187" y="951" on="0"/>
        <pt x="185" y="934" on="1"/>
        <pt x="167" y="934" on="1"/>
        <pt x="173" y="1030" on="0"/>
        <pt x="257" y="1030" on="1"/>
        <pt x="286" y="1030" on="0"/>
        <pt x="406" y="996" on="0"/>
        <pt x="434" y="996" on="1"/>
        <pt x="472" y="996" on="0"/>
      </contour>
      <contour>
        <pt x="366" y="905" on="1"/>
        <pt x="488" y="741" on="1"/>
        <pt x="454" y="741" on="1"/>
        <pt x="335" y="842" on="1"/>
        <pt x="218" y="741" on="1"/>
        <pt x="183" y="741" on="1"/>
        <pt x="305" y="905" on="1"/>
      </contour>
    </TTGlyph>
    <TTGlyph name="Edieresis" xMin="51" yMin="0" xMax="643" yMax="835">
      <contour>
        <pt x="611" y="239" on="1"/>
        <pt x="643" y="239" on="1"/>
        <pt x="632" y="0" on="1"/>
        <pt x="51" y="0" on="1"/>
        <pt x="51" y="31" on="1"/>
        <pt x="145" y="31" on="1"/>
        <pt x="145" y="658" on="1"/>
        <pt x="51" y="658" on="1"/>
        <pt x="51" y="689" on="1"/>
        <pt x="616" y="689" on="1"/>
        <pt x="618" y="486" on="1"/>
        <pt x="587" y="486" on="1"/>
        <pt x="580" y="573" on="0"/>
        <pt x="498" y="654" on="0"/>
        <pt x="405" y="656" on="1"/>
        <pt x="234" y="658" on="1"/>
        <pt x="234" y="368" on="1"/>
        <pt x="356" y="368" on="1"/>
        <pt x="399" y="368" on="0"/>
        <pt x="420" y="393" on="1"/>
        <pt x="443" y="425" on="0"/>
        <pt x="443" y="486" on="1"/>
        <pt x="474" y="486" on="1"/>
        <pt x="474" y="209" on="1"/>
        <pt x="443" y="209" on="1"/>
        <pt x="443" y="268" on="0"/>
        <pt x="394" y="334" on="0"/>
        <pt x="356" y="334" on="1"/>
        <pt x="234" y="334" on="1"/>
        <pt x="234" y="31" on="1"/>
        <pt x="421" y="34" on="1"/>
        <pt x="449" y="34" on="0"/>
        <pt x="528" y="64" on="0"/>
        <pt x="547" y="83" on="1"/>
        <pt x="607" y="139" on="0"/>
      </contour>
      <contour>
        <pt x="496" y="835" on="0"/>
        <pt x="496" y="737" on="0"/>
        <pt x="399" y="737" on="0"/>
        <pt x="399" y="835" on="0"/>
      </contour>
      <contour>
        <pt x="301" y="835" on="0"/>
        <pt x="301" y="737" on="0"/>
        <pt x="203" y="737" on="0"/>
        <pt x="203" y="835" on="0"/>
      </contour>
    </TTGlyph>
    <TTGlyph name="Edieresissmall" xMin="46" yMin="0" xMax="469" yMax="629">
      <contour>
        <pt x="442" y="158" on="1"/>
        <pt x="469" y="158" on="1"/>
        <pt x="459" y="0" on="1"/>
        <pt x="46" y="0" on="1"/>
        <pt x="46" y="21" on="1"/>
        <pt x="107" y="21" on="1"/>
        <pt x="107" y="433" on="1"/>
        <pt x="46" y="433" on="1"/>
        <pt x="46" y="454" on="1"/>
        <pt x="449" y="454" on="1"/>
        <pt x="450" y="320" on="1"/>
        <pt x="423" y="320" on="1"/>
        <pt x="418" y="375" on="0"/>
        <pt x="363" y="426" on="0"/>
        <pt x="303" y="427" on="1"/>
        <pt x="198" y="429" on="1"/>
        <pt x="198" y="243" on="1"/>
        <pt x="275" y="243" on="1"/>
        <pt x="305" y="243" on="0"/>
        <pt x="333" y="279" on="0"/>
        <pt x="333" y="320" on="1"/>
        <pt x="357" y="320" on="1"/>
        <pt x="357" y="137" on="1"/>
        <pt x="333" y="137" on="1"/>
        <pt x="333" y="176" on="0"/>
        <pt x="302" y="218" on="0"/>
        <pt x="275" y="218" on="1"/>
        <pt x="198" y="218" on="1"/>
        <pt x="198" y="24" on="1"/>
        <pt x="318" y="26" on="1"/>
        <pt x="336" y="26" on="0"/>
        <pt x="385" y="46" on="0"/>
        <pt x="400" y="58" on="1"/>
        <pt x="439" y="96" on="0"/>
      </contour>
      <contour>
        <pt x="394" y="629" on="0"/>
        <pt x="394" y="531" on="0"/>
        <pt x="297" y="531" on="0"/>
        <pt x="297" y="629" on="0"/>
      </contour>
      <contour>
        <pt x="200" y="629" on="0"/>
        <pt x="200" y="531" on="0"/>
        <pt x="103" y="531" on="0"/>
        <pt x="103" y="629" on="0"/>
      </contour>
    </TTGlyph>
    <TTGlyph name="Edotaccent" xMin="51" yMin="0" xMax="643" yMax="857">
      <contour>
        <pt x="611" y="239" on="1"/>
        <pt x="643" y="239" on="1"/>
        <pt x="632" y="0" on="1"/>
        <pt x="51" y="0" on="1"/>
        <pt x="51" y="31" on="1"/>
        <pt x="145" y="31" on="1"/>
        <pt x="145" y="658" on="1"/>
        <pt x="51" y="658" on="1"/>
        <pt x="51" y="689" on="1"/>
        <pt x="616" y="689" on="1"/>
        <pt x="618" y="486" on="1"/>
        <pt x="587" y="486" on="1"/>
        <pt x="580" y="573" on="0"/>
        <pt x="498" y="654" on="0"/>
        <pt x="405" y="656" on="1"/>
        <pt x="234" y="658" on="1"/>
        <pt x="234" y="368" on="1"/>
        <pt x="356" y="368" on="1"/>
        <pt x="399" y="368" on="0"/>
        <pt x="420" y="393" on="1"/>
        <pt x="443" y="425" on="0"/>
        <pt x="443" y="486" on="1"/>
        <pt x="474" y="486" on="1"/>
        <pt x="474" y="209" on="1"/>
        <pt x="443" y="209" on="1"/>
        <pt x="443" y="268" on="0"/>
        <pt x="394" y="334" on="0"/>
        <pt x="356" y="334" on="1"/>
        <pt x="234" y="334" on="1"/>
        <pt x="234" y="31" on="1"/>
        <pt x="421" y="34" on="1"/>
        <pt x="449" y="34" on="0"/>
        <pt x="528" y="64" on="0"/>
        <pt x="547" y="83" on="1"/>
        <pt x="607" y="139" on="0"/>
      </contour>
      <contour>
        <pt x="416" y="780" on="0"/>
        <pt x="384" y="748" on="0"/>
        <pt x="339" y="748" on="0"/>
        <pt x="307" y="780" on="0"/>
        <pt x="307" y="825" on="0"/>
        <pt x="339" y="857" on="0"/>
        <pt x="384" y="857" on="0"/>
        <pt x="416" y="825" on="0"/>
      </contour>
    </TTGlyph>
    <TTGlyph name="Edotbelow" xMin="51" yMin="-236" xMax="643" yMax="689">
      <contour>
        <pt x="611" y="239" on="1"/>
        <pt x="643" y="239" on="1"/>
        <pt x="632" y="0" on="1"/>
        <pt x="51" y="0" on="1"/>
        <pt x="51" y="31" on="1"/>
        <pt x="145" y="31" on="1"/>
        <pt x="145" y="658" on="1"/>
        <pt x="51" y="658" on="1"/>
        <pt x="51" y="689" on="1"/>
        <pt x="616" y="689" on="1"/>
        <pt x="618" y="486" on="1"/>
        <pt x="587" y="486" on="1"/>
        <pt x="580" y="573" on="0"/>
        <pt x="498" y="654" on="0"/>
        <pt x="405" y="656" on="1"/>
        <pt x="234" y="658" on="1"/>
        <pt x="234" y="368" on="1"/>
        <pt x="356" y="368" on="1"/>
        <pt x="399" y="368" on="0"/>
        <pt x="420" y="393" on="1"/>
        <pt x="443" y="425" on="0"/>
        <pt x="443" y="486" on="1"/>
        <pt x="474" y="486" on="1"/>
        <pt x="474" y="209" on="1"/>
        <pt x="443" y="209" on="1"/>
        <pt x="443" y="268" on="0"/>
        <pt x="394" y="334" on="0"/>
        <pt x="356" y="334" on="1"/>
        <pt x="234" y="334" on="1"/>
        <pt x="234" y="31" on="1"/>
        <pt x="421" y="34" on="1"/>
        <pt x="449" y="34" on="0"/>
        <pt x="528" y="64" on="0"/>
        <pt x="547" y="83" on="1"/>
        <pt x="607" y="139" on="0"/>
      </contour>
      <contour>
        <pt x="380" y="-130" on="0"/>
        <pt x="411" y="-161" on="0"/>
        <pt x="411" y="-205" on="0"/>
        <pt x="379" y="-236" on="0"/>
        <pt x="335" y="-236" on="0"/>
        <pt x="303" y="-205" on="0"/>
        <pt x="303" y="-161" on="0"/>
        <pt x="335" y="-130" on="0"/>
      </contour>
    </TTGlyph>
    <TTGlyph name="Egrave" xMin="51" yMin="0" xMax="643" yMax="908">
      <contour>
        <pt x="611" y="239" on="1"/>
        <pt x="643" y="239" on="1"/>
        <pt x="632" y="0" on="1"/>
        <pt x="51" y="0" on="1"/>
        <pt x="51" y="31" on="1"/>
        <pt x="145" y="31" on="1"/>
        <pt x="145" y="658" on="1"/>
        <pt x="51" y="658" on="1"/>
        <pt x="51" y="689" on="1"/>
        <pt x="616" y="689" on="1"/>
        <pt x="618" y="486" on="1"/>
        <pt x="587" y="486" on="1"/>
        <pt x="580" y="573" on="0"/>
        <pt x="498" y="654" on="0"/>
        <pt x="405" y="656" on="1"/>
        <pt x="234" y="658" on="1"/>
        <pt x="234" y="368" on="1"/>
        <pt x="356" y="368" on="1"/>
        <pt x="399" y="368" on="0"/>
        <pt x="420" y="393" on="1"/>
        <pt x="443" y="425" on="0"/>
        <pt x="443" y="486" on="1"/>
        <pt x="474" y="486" on="1"/>
        <pt x="474" y="209" on="1"/>
        <pt x="443" y="209" on="1"/>
        <pt x="443" y="268" on="0"/>
        <pt x="394" y="334" on="0"/>
        <pt x="356" y="334" on="1"/>
        <pt x="234" y="334" on="1"/>
        <pt x="234" y="31" on="1"/>
        <pt x="421" y="34" on="1"/>
        <pt x="449" y="34" on="0"/>
        <pt x="528" y="64" on="0"/>
        <pt x="547" y="83" on="1"/>
        <pt x="607" y="139" on="0"/>
      </contour>
      <contour>
        <pt x="244" y="877" on="1"/>
        <pt x="377" y="743" on="1"/>
        <pt x="339" y="743" on="1"/>
        <pt x="199" y="830" on="1"/>
        <pt x="160" y="854" on="0"/>
        <pt x="160" y="875" on="1"/>
        <pt x="160" y="908" on="0"/>
        <pt x="192" y="908" on="1"/>
        <pt x="213" y="908" on="0"/>
      </contour>
    </TTGlyph>
    <TTGlyph name="Egravesmall" xMin="46" yMin="0" xMax="469" yMax="649">
      <contour>
        <pt x="442" y="158" on="1"/>
        <pt x="469" y="158" on="1"/>
        <pt x="459" y="0" on="1"/>
        <pt x="46" y="0" on="1"/>
        <pt x="46" y="21" on="1"/>
        <pt x="107" y="21" on="1"/>
        <pt x="107" y="433" on="1"/>
        <pt x="46" y="433" on="1"/>
        <pt x="46" y="454" on="1"/>
        <pt x="449" y="454" on="1"/>
        <pt x="450" y="320" on="1"/>
        <pt x="423" y="320" on="1"/>
        <pt x="418" y="375" on="0"/>
        <pt x="363" y="426" on="0"/>
        <pt x="303" y="427" on="1"/>
        <pt x="198" y="429" on="1"/>
        <pt x="198" y="243" on="1"/>
        <pt x="275" y="243" on="1"/>
        <pt x="305" y="243" on="0"/>
        <pt x="333" y="279" on="0"/>
        <pt x="333" y="320" on="1"/>
        <pt x="357" y="320" on="1"/>
        <pt x="357" y="137" on="1"/>
        <pt x="333" y="137" on="1"/>
        <pt x="333" y="176" on="0"/>
        <pt x="302" y="218" on="0"/>
        <pt x="275" y="218" on="1"/>
        <pt x="198" y="218" on="1"/>
        <pt x="198" y="24" on="1"/>
        <pt x="318" y="26" on="1"/>
        <pt x="336" y="26" on="0"/>
        <pt x="385" y="46" on="0"/>
        <pt x="400" y="58" on="1"/>
        <pt x="439" y="96" on="0"/>
      </contour>
      <contour>
        <pt x="143" y="623" on="1"/>
        <pt x="277" y="515" on="1"/>
        <pt x="239" y="515" on="1"/>
        <pt x="100" y="585" on="1"/>
        <pt x="60" y="604" on="0"/>
        <pt x="60" y="622" on="1"/>
        <pt x="60" y="649" on="0"/>
        <pt x="92" y="649" on="1"/>
        <pt x="111" y="649" on="0"/>
      </contour>
    </TTGlyph>
    <TTGlyph name="Ehookabove" xMin="51" yMin="0" xMax="643" yMax="932">
      <contour>
        <pt x="611" y="239" on="1"/>
        <pt x="643" y="239" on="1"/>
        <pt x="632" y="0" on="1"/>
        <pt x="51" y="0" on="1"/>
        <pt x="51" y="31" on="1"/>
        <pt x="145" y="31" on="1"/>
        <pt x="145" y="658" on="1"/>
        <pt x="51" y="658" on="1"/>
        <pt x="51" y="689" on="1"/>
        <pt x="616" y="689" on="1"/>
        <pt x="618" y="486" on="1"/>
        <pt x="587" y="486" on="1"/>
        <pt x="580" y="573" on="0"/>
        <pt x="498" y="654" on="0"/>
        <pt x="405" y="656" on="1"/>
        <pt x="234" y="658" on="1"/>
        <pt x="234" y="368" on="1"/>
        <pt x="356" y="368" on="1"/>
        <pt x="399" y="368" on="0"/>
        <pt x="420" y="393" on="1"/>
        <pt x="443" y="425" on="0"/>
        <pt x="443" y="486" on="1"/>
        <pt x="474" y="486" on="1"/>
        <pt x="474" y="209" on="1"/>
        <pt x="443" y="209" on="1"/>
        <pt x="443" y="268" on="0"/>
        <pt x="394" y="334" on="0"/>
        <pt x="356" y="334" on="1"/>
        <pt x="234" y="334" on="1"/>
        <pt x="234" y="31" on="1"/>
        <pt x="421" y="34" on="1"/>
        <pt x="449" y="34" on="0"/>
        <pt x="528" y="64" on="0"/>
        <pt x="547" y="83" on="1"/>
        <pt x="607" y="139" on="0"/>
      </contour>
      <contour>
        <pt x="344" y="763" on="1"/>
        <pt x="344" y="760" on="0"/>
        <pt x="357" y="738" on="0"/>
        <pt x="344" y="738" on="1"/>
        <pt x="335" y="738" on="0"/>
        <pt x="323" y="756" on="0"/>
        <pt x="323" y="782" on="0"/>
        <pt x="377" y="846" on="0"/>
        <pt x="377" y="861" on="1"/>
        <pt x="377" y="900" on="0"/>
        <pt x="335" y="895" on="1"/>
        <pt x="316" y="894" on="0"/>
        <pt x="302" y="868" on="1"/>
        <pt x="296" y="858" on="0"/>
        <pt x="287" y="858" on="1"/>
        <pt x="275" y="858" on="0"/>
        <pt x="275" y="892" on="0"/>
        <pt x="308" y="924" on="0"/>
        <pt x="328" y="928" on="1"/>
        <pt x="339" y="932" on="0"/>
        <pt x="379" y="932" on="0"/>
        <pt x="418" y="898" on="0"/>
        <pt x="418" y="845" on="0"/>
        <pt x="344" y="773" on="0"/>
      </contour>
    </TTGlyph>
    <TTGlyph name="Emacron" xMin="51" yMin="0" xMax="643" yMax="788">
      <contour>
        <pt x="611" y="239" on="1"/>
        <pt x="643" y="239" on="1"/>
        <pt x="632" y="0" on="1"/>
        <pt x="51" y="0" on="1"/>
        <pt x="51" y="31" on="1"/>
        <pt x="145" y="31" on="1"/>
        <pt x="145" y="658" on="1"/>
        <pt x="51" y="658" on="1"/>
        <pt x="51" y="689" on="1"/>
        <pt x="616" y="689" on="1"/>
        <pt x="618" y="486" on="1"/>
        <pt x="587" y="486" on="1"/>
        <pt x="580" y="573" on="0"/>
        <pt x="498" y="654" on="0"/>
        <pt x="405" y="656" on="1"/>
        <pt x="234" y="658" on="1"/>
        <pt x="234" y="368" on="1"/>
        <pt x="356" y="368" on="1"/>
        <pt x="399" y="368" on="0"/>
        <pt x="420" y="393" on="1"/>
        <pt x="443" y="425" on="0"/>
        <pt x="443" y="486" on="1"/>
        <pt x="474" y="486" on="1"/>
        <pt x="474" y="209" on="1"/>
        <pt x="443" y="209" on="1"/>
        <pt x="443" y="268" on="0"/>
        <pt x="394" y="334" on="0"/>
        <pt x="356" y="334" on="1"/>
        <pt x="234" y="334" on="1"/>
        <pt x="234" y="31" on="1"/>
        <pt x="421" y="34" on="1"/>
        <pt x="449" y="34" on="0"/>
        <pt x="528" y="64" on="0"/>
        <pt x="547" y="83" on="1"/>
        <pt x="607" y="139" on="0"/>
      </contour>
      <contour>
        <pt x="501" y="788" on="1"/>
        <pt x="501" y="738" on="1"/>
        <pt x="185" y="738" on="1"/>
        <pt x="185" y="788" on="1"/>
      </contour>
    </TTGlyph>
    <TTGlyph name="Eng" xMin="42" yMin="-272" xMax="708" yMax="689">
      <contour>
        <pt x="708" y="689" on="1"/>
        <pt x="708" y="658" on="1"/>
        <pt x="650" y="658" on="0"/>
        <pt x="640" y="648" on="1"/>
        <pt x="614" y="622" on="0"/>
        <pt x="614" y="571" on="1"/>
        <pt x="617" y="-16" on="1"/>
        <pt x="621" y="-167" on="0"/>
        <pt x="606" y="-203" on="1"/>
        <pt x="578" y="-272" on="0"/>
        <pt x="514" y="-272" on="1"/>
        <pt x="497" y="-272" on="0"/>
        <pt x="477" y="-268" on="1"/>
        <pt x="439" y="-260" on="0"/>
        <pt x="439" y="-192" on="0"/>
        <pt x="463" y="-182" on="1"/>
        <pt x="503" y="-212" on="0"/>
        <pt x="560" y="-204" on="0"/>
        <pt x="570" y="-173" on="1"/>
        <pt x="574" y="-161" on="0"/>
        <pt x="576" y="-17" on="0"/>
        <pt x="572" y="2" on="1"/>
        <pt x="170" y="635" on="1"/>
        <pt x="170" y="117" on="1"/>
        <pt x="170" y="65" on="0"/>
        <pt x="195" y="41" on="1"/>
        <pt x="205" y="31" on="0"/>
        <pt x="263" y="31" on="1"/>
        <pt x="263" y="0" on="1"/>
        <pt x="42" y="0" on="1"/>
        <pt x="42" y="31" on="1"/>
        <pt x="98" y="31" on="0"/>
        <pt x="108" y="40" on="1"/>
        <pt x="136" y="64" on="0"/>
        <pt x="136" y="117" on="1"/>
        <pt x="136" y="635" on="1"/>
        <pt x="133" y="658" on="0"/>
        <pt x="106" y="658" on="1"/>
        <pt x="50" y="658" on="1"/>
        <pt x="50" y="689" on="1"/>
        <pt x="250" y="689" on="1"/>
        <pt x="581" y="174" on="1"/>
        <pt x="581" y="571" on="1"/>
        <pt x="581" y="622" on="0"/>
        <pt x="553" y="649" on="1"/>
        <pt x="542" y="658" on="0"/>
        <pt x="487" y="658" on="1"/>
        <pt x="487" y="689" on="1"/>
      </contour>
    </TTGlyph>
    <TTGlyph name="Engalt" xMin="14" yMin="-277" xMax="585" yMax="710">
      <contour>
        <pt x="584" y="537" on="1"/>
        <pt x="585" y="-18" on="1"/>
        <pt x="585" y="-137" on="0"/>
        <pt x="474" y="-277" on="0"/>
        <pt x="402" y="-277" on="1"/>
        <pt x="390" y="-239" on="1"/>
        <pt x="403" y="-243" on="0"/>
        <pt x="423" y="-243" on="1"/>
        <pt x="454" y="-243" on="0"/>
        <pt x="503" y="-152" on="0"/>
        <pt x="503" y="-7" on="1"/>
        <pt x="502" y="524" on="1"/>
        <pt x="502" y="578" on="0"/>
        <pt x="435" y="640" on="0"/>
        <pt x="389" y="648" on="1"/>
        <pt x="371" y="650" on="0"/>
        <pt x="361" y="650" on="1"/>
        <pt x="300" y="650" on="0"/>
        <pt x="178" y="584" on="0"/>
        <pt x="178" y="556" on="1"/>
        <pt x="178" y="100" on="1"/>
        <pt x="178" y="70" on="0"/>
        <pt x="182" y="26" on="1"/>
        <pt x="259" y="26" on="1"/>
        <pt x="259" y="0" on="1"/>
        <pt x="14" y="0" on="1"/>
        <pt x="14" y="26" on="1"/>
        <pt x="90" y="26" on="1"/>
        <pt x="96" y="75" on="0"/>
        <pt x="96" y="100" on="1"/>
        <pt x="96" y="650" on="1"/>
        <pt x="60" y="642" on="0"/>
        <pt x="17" y="638" on="1"/>
        <pt x="17" y="667" on="1"/>
        <pt x="97" y="674" on="0"/>
        <pt x="169" y="708" on="1"/>
        <pt x="178" y="703" on="1"/>
        <pt x="178" y="621" on="1"/>
        <pt x="180" y="621" on="1"/>
        <pt x="257" y="679" on="1"/>
        <pt x="295" y="710" on="0"/>
        <pt x="363" y="710" on="1"/>
        <pt x="388" y="710" on="0"/>
        <pt x="426" y="705" on="1"/>
        <pt x="511" y="690" on="0"/>
        <pt x="584" y="613" on="0"/>
      </contour>
    </TTGlyph>
    <TTGlyph name="Eogonek" xMin="51" yMin="-198" xMax="643" yMax="689">
      <contour>
        <pt x="357" y="-144" on="1"/>
        <pt x="391" y="-144" on="0"/>
        <pt x="443" y="-112" on="1"/>
        <pt x="461" y="-132" on="0"/>
        <pt x="458" y="-132" on="1"/>
        <pt x="439" y="-157" on="0"/>
        <pt x="360" y="-198" on="0"/>
        <pt x="288" y="-198" on="0"/>
        <pt x="251" y="-149" on="0"/>
        <pt x="251" y="-122" on="1"/>
        <pt x="251" y="-63" on="0"/>
        <pt x="328" y="0" on="1"/>
        <pt x="51" y="0" on="1"/>
        <pt x="51" y="31" on="1"/>
        <pt x="145" y="31" on="1"/>
        <pt x="145" y="658" on="1"/>
        <pt x="51" y="658" on="1"/>
        <pt x="51" y="689" on="1"/>
        <pt x="616" y="689" on="1"/>
        <pt x="618" y="486" on="1"/>
        <pt x="587" y="486" on="1"/>
        <pt x="580" y="573" on="0"/>
        <pt x="498" y="654" on="0"/>
        <pt x="405" y="656" on="1"/>
        <pt x="234" y="658" on="1"/>
        <pt x="234" y="368" on="1"/>
        <pt x="356" y="368" on="1"/>
        <pt x="399" y="368" on="0"/>
        <pt x="420" y="393" on="1"/>
        <pt x="443" y="425" on="0"/>
        <pt x="443" y="486" on="1"/>
        <pt x="474" y="486" on="1"/>
        <pt x="474" y="209" on="1"/>
        <pt x="443" y="209" on="1"/>
        <pt x="443" y="268" on="0"/>
        <pt x="394" y="334" on="0"/>
        <pt x="356" y="334" on="1"/>
        <pt x="234" y="334" on="1"/>
        <pt x="234" y="31" on="1"/>
        <pt x="421" y="34" on="1"/>
        <pt x="449" y="34" on="0"/>
        <pt x="528" y="64" on="0"/>
        <pt x="547" y="83" on="1"/>
        <pt x="607" y="139" on="0"/>
        <pt x="611" y="239" on="1"/>
        <pt x="643" y="239" on="1"/>
        <pt x="632" y="0" on="1"/>
        <pt x="367" y="0" on="1"/>
        <pt x="312" y="-62" on="0"/>
        <pt x="312" y="-106" on="1"/>
        <pt x="312" y="-144" on="0"/>
      </contour>
    </TTGlyph>
    <TTGlyph name="Epsilon" xMin="46" yMin="0" xMax="638" yMax="689">
      <contour>
        <pt x="358" y="659" on="1"/>
        <pt x="228" y="658" on="1"/>
        <pt x="228" y="368" on="1"/>
        <pt x="351" y="368" on="1"/>
        <pt x="438" y="368" on="0"/>
        <pt x="438" y="486" on="1"/>
        <pt x="469" y="486" on="1"/>
        <pt x="469" y="209" on="1"/>
        <pt x="438" y="209" on="1"/>
        <pt x="438" y="258" on="0"/>
        <pt x="398" y="334" on="0"/>
        <pt x="351" y="334" on="1"/>
        <pt x="228" y="334" on="1"/>
        <pt x="228" y="31" on="1"/>
        <pt x="390" y="32" on="0"/>
        <pt x="404" y="34" on="1"/>
        <pt x="498" y="43" on="0"/>
        <pt x="544" y="83" on="1"/>
        <pt x="601" y="132" on="0"/>
        <pt x="606" y="239" on="1"/>
        <pt x="638" y="239" on="1"/>
        <pt x="627" y="0" on="1"/>
        <pt x="46" y="0" on="1"/>
        <pt x="46" y="31" on="1"/>
        <pt x="140" y="31" on="1"/>
        <pt x="140" y="658" on="1"/>
        <pt x="46" y="658" on="1"/>
        <pt x="46" y="689" on="1"/>
        <pt x="611" y="689" on="1"/>
        <pt x="612" y="486" on="1"/>
        <pt x="583" y="486" on="1"/>
        <pt x="572" y="593" on="0"/>
        <pt x="510" y="630" on="1"/>
        <pt x="460" y="659" on="0"/>
      </contour>
    </TTGlyph>
    <TTGlyph name="Epsilontonos" xMin="-120" yMin="0" xMax="722" yMax="710">
      <contour>
        <pt x="442" y="659" on="1"/>
        <pt x="312" y="658" on="1"/>
        <pt x="312" y="368" on="1"/>
        <pt x="435" y="368" on="1"/>
        <pt x="522" y="368" on="0"/>
        <pt x="522" y="486" on="1"/>
        <pt x="553" y="486" on="1"/>
        <pt x="553" y="209" on="1"/>
        <pt x="522" y="209" on="1"/>
        <pt x="522" y="258" on="0"/>
        <pt x="482" y="334" on="0"/>
        <pt x="435" y="334" on="1"/>
        <pt x="312" y="334" on="1"/>
        <pt x="312" y="31" on="1"/>
        <pt x="474" y="32" on="0"/>
        <pt x="488" y="34" on="1"/>
        <pt x="582" y="43" on="0"/>
        <pt x="628" y="83" on="1"/>
        <pt x="685" y="132" on="0"/>
        <pt x="690" y="239" on="1"/>
        <pt x="722" y="239" on="1"/>
        <pt x="711" y="0" on="1"/>
        <pt x="130" y="0" on="1"/>
        <pt x="130" y="31" on="1"/>
        <pt x="224" y="31" on="1"/>
        <pt x="224" y="658" on="1"/>
        <pt x="130" y="658" on="1"/>
        <pt x="130" y="689" on="1"/>
        <pt x="695" y="689" on="1"/>
        <pt x="696" y="486" on="1"/>
        <pt x="667" y="486" on="1"/>
        <pt x="656" y="593" on="0"/>
        <pt x="594" y="630" on="1"/>
        <pt x="544" y="659" on="0"/>
      </contour>
      <contour>
        <pt x="47" y="674" on="1"/>
        <pt x="47" y="653" on="0"/>
        <pt x="34" y="640" on="1"/>
        <pt x="-99" y="504" on="1"/>
        <pt x="-120" y="509" on="1"/>
        <pt x="-23" y="690" on="1"/>
        <pt x="-12" y="710" on="0"/>
        <pt x="14" y="710" on="1"/>
        <pt x="47" y="710" on="0"/>
      </contour>
    </TTGlyph>
    <TTGlyph name="Esmall" xMin="35" yMin="0" xMax="461" yMax="457">
      <contour>
        <pt x="434" y="159" on="1"/>
        <pt x="461" y="159" on="1"/>
        <pt x="451" y="0" on="1"/>
        <pt x="35" y="0" on="1"/>
        <pt x="35" y="21" on="1"/>
        <pt x="97" y="21" on="1"/>
        <pt x="97" y="436" on="1"/>
        <pt x="35" y="436" on="1"/>
        <pt x="35" y="457" on="1"/>
        <pt x="441" y="457" on="1"/>
        <pt x="442" y="322" on="1"/>
        <pt x="415" y="322" on="1"/>
        <pt x="410" y="377" on="0"/>
        <pt x="354" y="429" on="0"/>
        <pt x="294" y="430" on="1"/>
        <pt x="188" y="432" on="1"/>
        <pt x="188" y="245" on="1"/>
        <pt x="266" y="245" on="1"/>
        <pt x="296" y="245" on="0"/>
        <pt x="324" y="281" on="0"/>
        <pt x="324" y="322" on="1"/>
        <pt x="348" y="322" on="1"/>
        <pt x="348" y="138" on="1"/>
        <pt x="324" y="138" on="1"/>
        <pt x="324" y="177" on="0"/>
        <pt x="293" y="219" on="0"/>
        <pt x="266" y="219" on="1"/>
        <pt x="188" y="219" on="1"/>
        <pt x="188" y="24" on="1"/>
        <pt x="309" y="26" on="1"/>
        <pt x="327" y="26" on="0"/>
        <pt x="377" y="46" on="0"/>
        <pt x="392" y="58" on="1"/>
        <pt x="431" y="95" on="0"/>
      </contour>
    </TTGlyph>
    <TTGlyph name="Eta" xMin="44" yMin="0" xMax="718" yMax="689">
      <contour>
        <pt x="718" y="31" on="1"/>
        <pt x="718" y="0" on="1"/>
        <pt x="440" y="0" on="1"/>
        <pt x="440" y="31" on="1"/>
        <pt x="534" y="31" on="1"/>
        <pt x="534" y="345" on="1"/>
        <pt x="227" y="345" on="1"/>
        <pt x="227" y="31" on="1"/>
        <pt x="320" y="31" on="1"/>
        <pt x="320" y="0" on="1"/>
        <pt x="44" y="0" on="1"/>
        <pt x="44" y="31" on="1"/>
        <pt x="138" y="31" on="1"/>
        <pt x="138" y="658" on="1"/>
        <pt x="44" y="658" on="1"/>
        <pt x="44" y="689" on="1"/>
        <pt x="320" y="689" on="1"/>
        <pt x="320" y="658" on="1"/>
        <pt x="227" y="658" on="1"/>
        <pt x="227" y="380" on="1"/>
        <pt x="534" y="380" on="1"/>
        <pt x="534" y="658" on="1"/>
        <pt x="440" y="658" on="1"/>
        <pt x="440" y="689" on="1"/>
        <pt x="718" y="689" on="1"/>
        <pt x="718" y="658" on="1"/>
        <pt x="625" y="658" on="1"/>
        <pt x="625" y="31" on="1"/>
      </contour>
    </TTGlyph>
    <TTGlyph name="Etatonos" xMin="-120" yMin="-3" xMax="768" yMax="707">
      <contour>
        <pt x="768" y="28" on="1"/>
        <pt x="768" y="-3" on="1"/>
        <pt x="490" y="-3" on="1"/>
        <pt x="490" y="28" on="1"/>
        <pt x="584" y="28" on="1"/>
        <pt x="584" y="342" on="1"/>
        <pt x="277" y="342" on="1"/>
        <pt x="277" y="28" on="1"/>
        <pt x="370" y="28" on="1"/>
        <pt x="370" y="-3" on="1"/>
        <pt x="94" y="-3" on="1"/>
        <pt x="94" y="28" on="1"/>
        <pt x="188" y="28" on="1"/>
        <pt x="188" y="655" on="1"/>
        <pt x="94" y="655" on="1"/>
        <pt x="94" y="686" on="1"/>
        <pt x="370" y="686" on="1"/>
        <pt x="370" y="655" on="1"/>
        <pt x="277" y="655" on="1"/>
        <pt x="277" y="377" on="1"/>
        <pt x="584" y="377" on="1"/>
        <pt x="584" y="655" on="1"/>
        <pt x="490" y="655" on="1"/>
        <pt x="490" y="686" on="1"/>
        <pt x="768" y="686" on="1"/>
        <pt x="768" y="655" on="1"/>
        <pt x="675" y="655" on="1"/>
        <pt x="675" y="28" on="1"/>
      </contour>
      <contour>
        <pt x="47" y="671" on="1"/>
        <pt x="47" y="650" on="0"/>
        <pt x="34" y="637" on="1"/>
        <pt x="-99" y="501" on="1"/>
        <pt x="-120" y="506" on="1"/>
        <pt x="-23" y="687" on="1"/>
        <pt x="-12" y="707" on="0"/>
        <pt x="14" y="707" on="1"/>
        <pt x="47" y="707" on="0"/>
      </contour>
    </TTGlyph>
    <TTGlyph name="Eth" xMin="44" yMin="-2" xMax="691" yMax="689">
      <contour>
        <pt x="691" y="336" on="1"/>
        <pt x="691" y="196" on="0"/>
        <pt x="506" y="-6" on="0"/>
        <pt x="385" y="-2" on="1"/>
        <pt x="203" y="4" on="0"/>
        <pt x="44" y="0" on="1"/>
        <pt x="44" y="31" on="1"/>
        <pt x="138" y="31" on="1"/>
        <pt x="138" y="327" on="1"/>
        <pt x="46" y="327" on="1"/>
        <pt x="46" y="361" on="1"/>
        <pt x="138" y="361" on="1"/>
        <pt x="138" y="658" on="1"/>
        <pt x="44" y="658" on="1"/>
        <pt x="44" y="689" on="1"/>
        <pt x="133" y="684" on="0"/>
        <pt x="271" y="686" on="0"/>
        <pt x="388" y="685" on="1"/>
        <pt x="529" y="683" on="0"/>
        <pt x="691" y="496" on="0"/>
      </contour>
      <contour>
        <pt x="538" y="127" on="1"/>
        <pt x="587" y="205" on="0"/>
        <pt x="584" y="480" on="0"/>
        <pt x="546" y="554" on="1"/>
        <pt x="499" y="649" on="0"/>
        <pt x="388" y="658" on="1"/>
        <pt x="298" y="663" on="0"/>
        <pt x="227" y="654" on="1"/>
        <pt x="227" y="361" on="1"/>
        <pt x="376" y="361" on="1"/>
        <pt x="376" y="327" on="1"/>
        <pt x="227" y="327" on="1"/>
        <pt x="227" y="31" on="1"/>
        <pt x="295" y="25" on="0"/>
        <pt x="364" y="25" on="0"/>
        <pt x="386" y="27" on="1"/>
        <pt x="489" y="42" on="0"/>
      </contour>
    </TTGlyph>
    <TTGlyph name="Ethsmall" xMin="35" yMin="0" xMax="518" yMax="479">
      <contour>
        <pt x="35" y="248" on="1"/>
        <pt x="120" y="248" on="1"/>
        <pt x="120" y="333" on="0"/>
        <pt x="119" y="449" on="1"/>
        <pt x="112" y="459" on="0"/>
        <pt x="65" y="459" on="1"/>
        <pt x="41" y="459" on="1"/>
        <pt x="41" y="479" on="1"/>
        <pt x="114" y="482" on="0"/>
        <pt x="287" y="477" on="1"/>
        <pt x="518" y="454" on="0"/>
        <pt x="518" y="239" on="1"/>
        <pt x="518" y="123" on="0"/>
        <pt x="441" y="58" on="1"/>
        <pt x="374" y="1" on="0"/>
        <pt x="271" y="1" on="1"/>
        <pt x="60" y="1" on="0"/>
        <pt x="41" y="0" on="1"/>
        <pt x="41" y="23" on="1"/>
        <pt x="65" y="23" on="1"/>
        <pt x="112" y="23" on="0"/>
        <pt x="119" y="33" on="1"/>
        <pt x="120" y="222" on="1"/>
        <pt x="35" y="222" on="1"/>
      </contour>
      <contour>
        <pt x="297" y="248" on="1"/>
        <pt x="297" y="222" on="1"/>
        <pt x="200" y="222" on="1"/>
        <pt x="200" y="29" on="1"/>
        <pt x="247" y="29" on="1"/>
        <pt x="343" y="29" on="0"/>
        <pt x="382" y="74" on="1"/>
        <pt x="423" y="126" on="0"/>
        <pt x="423" y="327" on="0"/>
        <pt x="392" y="377" on="1"/>
        <pt x="358" y="435" on="0"/>
        <pt x="271" y="447" on="1"/>
        <pt x="237" y="453" on="0"/>
        <pt x="200" y="451" on="1"/>
        <pt x="200" y="248" on="1"/>
      </contour>
    </TTGlyph>
    <TTGlyph name="Etilde" xMin="51" yMin="0" xMax="643" yMax="849">
      <contour>
        <pt x="611" y="239" on="1"/>
        <pt x="643" y="239" on="1"/>
        <pt x="632" y="0" on="1"/>
        <pt x="51" y="0" on="1"/>
        <pt x="51" y="31" on="1"/>
        <pt x="145" y="31" on="1"/>
        <pt x="145" y="658" on="1"/>
        <pt x="51" y="658" on="1"/>
        <pt x="51" y="689" on="1"/>
        <pt x="616" y="689" on="1"/>
        <pt x="618" y="486" on="1"/>
        <pt x="587" y="486" on="1"/>
        <pt x="580" y="573" on="0"/>
        <pt x="498" y="654" on="0"/>
        <pt x="405" y="656" on="1"/>
        <pt x="234" y="658" on="1"/>
        <pt x="234" y="368" on="1"/>
        <pt x="356" y="368" on="1"/>
        <pt x="399" y="368" on="0"/>
        <pt x="420" y="393" on="1"/>
        <pt x="443" y="425" on="0"/>
        <pt x="443" y="486" on="1"/>
        <pt x="474" y="486" on="1"/>
        <pt x="474" y="209" on="1"/>
        <pt x="443" y="209" on="1"/>
        <pt x="443" y="268" on="0"/>
        <pt x="394" y="334" on="0"/>
        <pt x="356" y="334" on="1"/>
        <pt x="234" y="334" on="1"/>
        <pt x="234" y="31" on="1"/>
        <pt x="421" y="34" on="1"/>
        <pt x="449" y="34" on="0"/>
        <pt x="528" y="64" on="0"/>
        <pt x="547" y="83" on="1"/>
        <pt x="607" y="139" on="0"/>
      </contour>
      <contour>
        <pt x="512" y="849" on="1"/>
        <pt x="529" y="849" on="1"/>
        <pt x="524" y="745" on="0"/>
        <pt x="436" y="745" on="1"/>
        <pt x="405" y="745" on="0"/>
        <pt x="292" y="784" on="0"/>
        <pt x="248" y="784" on="0"/>
        <pt x="216" y="760" on="0"/>
        <pt x="214" y="743" on="1"/>
        <pt x="196" y="743" on="1"/>
        <pt x="202" y="839" on="0"/>
        <pt x="286" y="839" on="1"/>
        <pt x="315" y="839" on="0"/>
        <pt x="435" y="805" on="0"/>
        <pt x="463" y="805" on="1"/>
        <pt x="501" y="805" on="0"/>
      </contour>
    </TTGlyph>
    <TTGlyph name="Euro" xMin="49" yMin="0" xMax="690" yMax="645">
      <contour>
        <pt x="145" y="242" on="1"/>
        <pt x="49" y="242" on="1"/>
        <pt x="72" y="295" on="1"/>
        <pt x="137" y="295" on="1"/>
        <pt x="136" y="303" on="0"/>
        <pt x="136" y="341" on="0"/>
        <pt x="137" y="349" on="1"/>
        <pt x="49" y="349" on="1"/>
        <pt x="72" y="403" on="1"/>
        <pt x="145" y="403" on="1"/>
        <pt x="165" y="489" on="0"/>
        <pt x="228" y="552" on="1"/>
        <pt x="320" y="645" on="0"/>
        <pt x="596" y="645" on="0"/>
        <pt x="690" y="549" on="1"/>
        <pt x="667" y="495" on="1"/>
        <pt x="578" y="591" on="0"/>
        <pt x="345" y="591" on="0"/>
        <pt x="267" y="513" on="1"/>
        <pt x="220" y="466" on="0"/>
        <pt x="201" y="403" on="1"/>
        <pt x="628" y="403" on="1"/>
        <pt x="606" y="349" on="1"/>
        <pt x="190" y="349" on="1"/>
        <pt x="189" y="341" on="0"/>
        <pt x="189" y="303" on="0"/>
        <pt x="190" y="295" on="1"/>
        <pt x="583" y="295" on="1"/>
        <pt x="560" y="242" on="1"/>
        <pt x="200" y="242" on="1"/>
        <pt x="218" y="180" on="0"/>
        <pt x="267" y="131" on="1"/>
        <pt x="346" y="54" on="0"/>
        <pt x="580" y="54" on="0"/>
        <pt x="667" y="152" on="1"/>
        <pt x="667" y="73" on="1"/>
        <pt x="584" y="0" on="0"/>
        <pt x="320" y="0" on="0"/>
        <pt x="228" y="92" on="1"/>
        <pt x="164" y="157" on="0"/>
      </contour>
    </TTGlyph>
    <TTGlyph name="Ezh" xMin="24" yMin="-13" xMax="477" yMax="689">
      <contour>
        <pt x="40" y="689" on="1"/>
        <pt x="465" y="689" on="1"/>
        <pt x="244" y="417" on="1"/>
        <pt x="263" y="420" on="0"/>
        <pt x="284" y="420" on="1"/>
        <pt x="377" y="420" on="0"/>
        <pt x="477" y="308" on="0"/>
        <pt x="477" y="223" on="1"/>
        <pt x="477" y="104" on="0"/>
        <pt x="295" y="-17" on="0"/>
        <pt x="169" y="-13" on="1"/>
        <pt x="96" y="-8" on="0"/>
        <pt x="24" y="24" on="1"/>
        <pt x="33" y="80" on="0"/>
        <pt x="31" y="174" on="1"/>
        <pt x="63" y="174" on="1"/>
        <pt x="71" y="108" on="1"/>
        <pt x="74" y="79" on="0"/>
        <pt x="114" y="48" on="1"/>
        <pt x="149" y="17" on="0"/>
        <pt x="179" y="17" on="1"/>
        <pt x="264" y="17" on="0"/>
        <pt x="370" y="122" on="0"/>
        <pt x="370" y="204" on="1"/>
        <pt x="370" y="248" on="0"/>
        <pt x="337" y="321" on="0"/>
        <pt x="275" y="365" on="0"/>
        <pt x="219" y="365" on="0"/>
        <pt x="192" y="355" on="1"/>
        <pt x="172" y="389" on="1"/>
        <pt x="348" y="604" on="1"/>
        <pt x="127" y="603" on="1"/>
        <pt x="71" y="603" on="0"/>
        <pt x="67" y="527" on="1"/>
        <pt x="40" y="527" on="1"/>
      </contour>
    </TTGlyph>
    <TTGlyph name="F" xMin="44" yMin="0" xMax="611" yMax="689">
      <contour>
        <pt x="609" y="689" on="1"/>
        <pt x="611" y="486" on="1"/>
        <pt x="580" y="486" on="1"/>
        <pt x="573" y="573" on="0"/>
        <pt x="492" y="654" on="0"/>
        <pt x="398" y="656" on="1"/>
        <pt x="227" y="658" on="1"/>
        <pt x="227" y="368" on="1"/>
        <pt x="349" y="368" on="1"/>
        <pt x="393" y="368" on="0"/>
        <pt x="412" y="393" on="1"/>
        <pt x="435" y="425" on="0"/>
        <pt x="435" y="486" on="1"/>
        <pt x="467" y="486" on="1"/>
        <pt x="467" y="209" on="1"/>
        <pt x="435" y="209" on="1"/>
        <pt x="435" y="268" on="0"/>
        <pt x="387" y="334" on="0"/>
        <pt x="349" y="334" on="1"/>
        <pt x="227" y="334" on="1"/>
        <pt x="227" y="31" on="1"/>
        <pt x="320" y="31" on="1"/>
        <pt x="320" y="0" on="1"/>
        <pt x="44" y="0" on="1"/>
        <pt x="44" y="31" on="1"/>
        <pt x="138" y="31" on="1"/>
        <pt x="138" y="658" on="1"/>
        <pt x="44" y="658" on="1"/>
        <pt x="44" y="689" on="1"/>
      </contour>
    </TTGlyph>
    <TTGlyph name="Fsmall" xMin="34" yMin="0" xMax="442" yMax="457">
      <contour>
        <pt x="441" y="457" on="1"/>
        <pt x="442" y="323" on="1"/>
        <pt x="415" y="323" on="1"/>
        <pt x="412" y="346" on="0"/>
        <pt x="406" y="366" on="1"/>
        <pt x="389" y="428" on="0"/>
        <pt x="294" y="431" on="1"/>
        <pt x="187" y="433" on="1"/>
        <pt x="187" y="245" on="1"/>
        <pt x="264" y="245" on="1"/>
        <pt x="294" y="245" on="0"/>
        <pt x="322" y="282" on="0"/>
        <pt x="322" y="323" on="1"/>
        <pt x="347" y="323" on="1"/>
        <pt x="347" y="138" on="1"/>
        <pt x="322" y="138" on="1"/>
        <pt x="322" y="219" on="0"/>
        <pt x="264" y="219" on="1"/>
        <pt x="187" y="219" on="1"/>
        <pt x="187" y="21" on="1"/>
        <pt x="249" y="21" on="1"/>
        <pt x="249" y="0" on="1"/>
        <pt x="34" y="0" on="1"/>
        <pt x="34" y="21" on="1"/>
        <pt x="96" y="21" on="1"/>
        <pt x="96" y="437" on="1"/>
        <pt x="34" y="437" on="1"/>
        <pt x="34" y="457" on="1"/>
      </contour>
    </TTGlyph>
    <TTGlyph name="G" xMin="55" yMin="-14" xMax="647" yMax="704">
      <contour>
        <pt x="647" y="271" on="1"/>
        <pt x="647" y="239" on="1"/>
        <pt x="613" y="239" on="1"/>
        <pt x="613" y="35" on="1"/>
        <pt x="592" y="29" on="0"/>
        <pt x="516" y="4" on="0"/>
        <pt x="509" y="2" on="1"/>
        <pt x="443" y="-14" on="0"/>
        <pt x="360" y="-14" on="1"/>
        <pt x="235" y="-14" on="0"/>
        <pt x="142" y="90" on="1"/>
        <pt x="54" y="196" on="0"/>
        <pt x="56" y="505" on="0"/>
        <pt x="145" y="607" on="1"/>
        <pt x="233" y="704" on="0"/>
        <pt x="360" y="704" on="1"/>
        <pt x="446" y="704" on="0"/>
        <pt x="495" y="692" on="1"/>
        <pt x="515" y="688" on="0"/>
        <pt x="569" y="667" on="1"/>
        <pt x="569" y="510" on="1"/>
        <pt x="539" y="510" on="1"/>
        <pt x="532" y="597" on="0"/>
        <pt x="450" y="677" on="0"/>
        <pt x="365" y="673" on="1"/>
        <pt x="170" y="661" on="0"/>
        <pt x="170" y="345" on="1"/>
        <pt x="170" y="202" on="0"/>
        <pt x="272" y="23" on="0"/>
        <pt x="357" y="22" on="1"/>
        <pt x="407" y="21" on="0"/>
        <pt x="466" y="44" on="1"/>
        <pt x="518" y="62" on="0"/>
        <pt x="523" y="80" on="1"/>
        <pt x="528" y="90" on="0"/>
        <pt x="528" y="120" on="1"/>
        <pt x="528" y="239" on="1"/>
        <pt x="415" y="239" on="1"/>
        <pt x="415" y="271" on="1"/>
      </contour>
    </TTGlyph>
    <TTGlyph name="Gamma" xMin="52" yMin="0" xMax="616" yMax="689">
      <contour>
        <pt x="364" y="659" on="1"/>
        <pt x="239" y="658" on="1"/>
        <pt x="239" y="31" on="1"/>
        <pt x="333" y="31" on="1"/>
        <pt x="333" y="0" on="1"/>
        <pt x="52" y="0" on="1"/>
        <pt x="52" y="31" on="1"/>
        <pt x="146" y="31" on="1"/>
        <pt x="146" y="658" on="1"/>
        <pt x="52" y="658" on="1"/>
        <pt x="52" y="689" on="1"/>
        <pt x="613" y="689" on="1"/>
        <pt x="616" y="486" on="1"/>
        <pt x="586" y="486" on="1"/>
        <pt x="577" y="593" on="0"/>
        <pt x="513" y="630" on="1"/>
        <pt x="466" y="659" on="0"/>
      </contour>
    </TTGlyph>
    <TTGlyph name="Gbreve" xMin="55" yMin="-14" xMax="647" yMax="900">
      <contour>
        <pt x="647" y="271" on="1"/>
        <pt x="647" y="239" on="1"/>
        <pt x="613" y="239" on="1"/>
        <pt x="613" y="35" on="1"/>
        <pt x="592" y="29" on="0"/>
        <pt x="516" y="4" on="0"/>
        <pt x="509" y="2" on="1"/>
        <pt x="443" y="-14" on="0"/>
        <pt x="360" y="-14" on="1"/>
        <pt x="235" y="-14" on="0"/>
        <pt x="142" y="90" on="1"/>
        <pt x="54" y="196" on="0"/>
        <pt x="56" y="505" on="0"/>
        <pt x="145" y="607" on="1"/>
        <pt x="233" y="704" on="0"/>
        <pt x="360" y="704" on="1"/>
        <pt x="446" y="704" on="0"/>
        <pt x="495" y="692" on="1"/>
        <pt x="515" y="688" on="0"/>
        <pt x="569" y="667" on="1"/>
        <pt x="569" y="510" on="1"/>
        <pt x="539" y="510" on="1"/>
        <pt x="532" y="597" on="0"/>
        <pt x="450" y="677" on="0"/>
        <pt x="365" y="673" on="1"/>
        <pt x="170" y="661" on="0"/>
        <pt x="170" y="345" on="1"/>
        <pt x="170" y="202" on="0"/>
        <pt x="272" y="23" on="0"/>
        <pt x="357" y="22" on="1"/>
        <pt x="407" y="21" on="0"/>
        <pt x="466" y="44" on="1"/>
        <pt x="518" y="62" on="0"/>
        <pt x="523" y="80" on="1"/>
        <pt x="528" y="90" on="0"/>
        <pt x="528" y="120" on="1"/>
        <pt x="528" y="239" on="1"/>
        <pt x="415" y="239" on="1"/>
        <pt x="415" y="271" on="1"/>
      </contour>
      <contour>
        <pt x="520" y="900" on="1"/>
        <pt x="523" y="897" on="1"/>
        <pt x="523" y="831" on="0"/>
        <pt x="442" y="743" on="0"/>
        <pt x="309" y="743" on="0"/>
        <pt x="227" y="828" on="0"/>
        <pt x="227" y="897" on="1"/>
        <pt x="230" y="900" on="1"/>
        <pt x="256" y="900" on="1"/>
        <pt x="276" y="807" on="0"/>
        <pt x="478" y="807" on="0"/>
        <pt x="494" y="900" on="1"/>
      </contour>
    </TTGlyph>
    <TTGlyph name="Gcircumflex" xMin="55" yMin="-14" xMax="647" yMax="919">
      <contour>
        <pt x="647" y="271" on="1"/>
        <pt x="647" y="239" on="1"/>
        <pt x="613" y="239" on="1"/>
        <pt x="613" y="35" on="1"/>
        <pt x="592" y="29" on="0"/>
        <pt x="516" y="4" on="0"/>
        <pt x="509" y="2" on="1"/>
        <pt x="443" y="-14" on="0"/>
        <pt x="360" y="-14" on="1"/>
        <pt x="235" y="-14" on="0"/>
        <pt x="142" y="90" on="1"/>
        <pt x="54" y="196" on="0"/>
        <pt x="56" y="505" on="0"/>
        <pt x="145" y="607" on="1"/>
        <pt x="233" y="704" on="0"/>
        <pt x="360" y="704" on="1"/>
        <pt x="446" y="704" on="0"/>
        <pt x="495" y="692" on="1"/>
        <pt x="515" y="688" on="0"/>
        <pt x="569" y="667" on="1"/>
        <pt x="569" y="510" on="1"/>
        <pt x="539" y="510" on="1"/>
        <pt x="532" y="597" on="0"/>
        <pt x="450" y="677" on="0"/>
        <pt x="365" y="673" on="1"/>
        <pt x="170" y="661" on="0"/>
        <pt x="170" y="345" on="1"/>
        <pt x="170" y="202" on="0"/>
        <pt x="272" y="23" on="0"/>
        <pt x="357" y="22" on="1"/>
        <pt x="407" y="21" on="0"/>
        <pt x="466" y="44" on="1"/>
        <pt x="518" y="62" on="0"/>
        <pt x="523" y="80" on="1"/>
        <pt x="528" y="90" on="0"/>
        <pt x="528" y="120" on="1"/>
        <pt x="528" y="239" on="1"/>
        <pt x="415" y="239" on="1"/>
        <pt x="415" y="271" on="1"/>
      </contour>
      <contour>
        <pt x="394" y="919" on="1"/>
        <pt x="532" y="746" on="1"/>
        <pt x="529" y="741" on="1"/>
        <pt x="498" y="741" on="1"/>
        <pt x="370" y="855" on="1"/>
        <pt x="242" y="741" on="1"/>
        <pt x="211" y="741" on="1"/>
        <pt x="207" y="746" on="1"/>
        <pt x="348" y="919" on="1"/>
      </contour>
    </TTGlyph>
    <TTGlyph name="Gcommaaccent" xMin="55" yMin="-274" xMax="647" yMax="704">
      <contour>
        <pt x="647" y="271" on="1"/>
        <pt x="647" y="239" on="1"/>
        <pt x="613" y="239" on="1"/>
        <pt x="613" y="35" on="1"/>
        <pt x="592" y="29" on="0"/>
        <pt x="516" y="4" on="0"/>
        <pt x="509" y="2" on="1"/>
        <pt x="443" y="-14" on="0"/>
        <pt x="360" y="-14" on="1"/>
        <pt x="235" y="-14" on="0"/>
        <pt x="142" y="90" on="1"/>
        <pt x="54" y="196" on="0"/>
        <pt x="56" y="505" on="0"/>
        <pt x="145" y="607" on="1"/>
        <pt x="233" y="704" on="0"/>
        <pt x="360" y="704" on="1"/>
        <pt x="446" y="704" on="0"/>
        <pt x="495" y="692" on="1"/>
        <pt x="515" y="688" on="0"/>
        <pt x="569" y="667" on="1"/>
        <pt x="569" y="510" on="1"/>
        <pt x="539" y="510" on="1"/>
        <pt x="532" y="597" on="0"/>
        <pt x="450" y="677" on="0"/>
        <pt x="365" y="673" on="1"/>
        <pt x="170" y="661" on="0"/>
        <pt x="170" y="345" on="1"/>
        <pt x="170" y="202" on="0"/>
        <pt x="272" y="23" on="0"/>
        <pt x="357" y="22" on="1"/>
        <pt x="407" y="21" on="0"/>
        <pt x="466" y="44" on="1"/>
        <pt x="518" y="62" on="0"/>
        <pt x="523" y="80" on="1"/>
        <pt x="528" y="90" on="0"/>
        <pt x="528" y="120" on="1"/>
        <pt x="528" y="239" on="1"/>
        <pt x="415" y="239" on="1"/>
        <pt x="415" y="271" on="1"/>
      </contour>
      <contour>
        <pt x="358" y="-274" on="1"/>
        <pt x="353" y="-253" on="1"/>
        <pt x="439" y="-239" on="0"/>
        <pt x="439" y="-190" on="1"/>
        <pt x="439" y="-176" on="0"/>
        <pt x="419" y="-174" on="1"/>
        <pt x="354" y="-172" on="0"/>
        <pt x="354" y="-114" on="1"/>
        <pt x="354" y="-89" on="0"/>
        <pt x="388" y="-58" on="0"/>
        <pt x="415" y="-58" on="1"/>
        <pt x="483" y="-58" on="0"/>
        <pt x="483" y="-138" on="1"/>
        <pt x="483" y="-262" on="0"/>
      </contour>
    </TTGlyph>
    <TTGlyph name="Gdotaccent" xMin="55" yMin="-14" xMax="647" yMax="847">
      <contour>
        <pt x="647" y="271" on="1"/>
        <pt x="647" y="239" on="1"/>
        <pt x="613" y="239" on="1"/>
        <pt x="613" y="35" on="1"/>
        <pt x="592" y="29" on="0"/>
        <pt x="516" y="4" on="0"/>
        <pt x="509" y="2" on="1"/>
        <pt x="443" y="-14" on="0"/>
        <pt x="360" y="-14" on="1"/>
        <pt x="235" y="-14" on="0"/>
        <pt x="142" y="90" on="1"/>
        <pt x="54" y="196" on="0"/>
        <pt x="56" y="505" on="0"/>
        <pt x="145" y="607" on="1"/>
        <pt x="233" y="704" on="0"/>
        <pt x="360" y="704" on="1"/>
        <pt x="446" y="704" on="0"/>
        <pt x="495" y="692" on="1"/>
        <pt x="515" y="688" on="0"/>
        <pt x="569" y="667" on="1"/>
        <pt x="569" y="510" on="1"/>
        <pt x="539" y="510" on="1"/>
        <pt x="532" y="597" on="0"/>
        <pt x="450" y="677" on="0"/>
        <pt x="365" y="673" on="1"/>
        <pt x="170" y="661" on="0"/>
        <pt x="170" y="345" on="1"/>
        <pt x="170" y="202" on="0"/>
        <pt x="272" y="23" on="0"/>
        <pt x="357" y="22" on="1"/>
        <pt x="407" y="21" on="0"/>
        <pt x="466" y="44" on="1"/>
        <pt x="518" y="62" on="0"/>
        <pt x="523" y="80" on="1"/>
        <pt x="528" y="90" on="0"/>
        <pt x="528" y="120" on="1"/>
        <pt x="528" y="239" on="1"/>
        <pt x="415" y="239" on="1"/>
        <pt x="415" y="271" on="1"/>
      </contour>
      <contour>
        <pt x="433" y="770" on="0"/>
        <pt x="401" y="738" on="0"/>
        <pt x="356" y="738" on="0"/>
        <pt x="324" y="770" on="0"/>
        <pt x="324" y="815" on="0"/>
        <pt x="356" y="847" on="0"/>
        <pt x="401" y="847" on="0"/>
        <pt x="433" y="815" on="0"/>
      </contour>
    </TTGlyph>
    <TTGlyph name="Grave" xMin="50" yMin="658" xMax="242" yMax="809">
      <contour>
        <pt x="241" y="674" on="1"/>
        <pt x="242" y="668" on="1"/>
        <pt x="231" y="658" on="1"/>
        <pt x="225" y="659" on="1"/>
        <pt x="139" y="726" on="1"/>
        <pt x="50" y="793" on="1"/>
        <pt x="55" y="806" on="1"/>
        <pt x="59" y="809" on="1"/>
        <pt x="139" y="798" on="1"/>
      </contour>
    </TTGlyph>
    <TTGlyph name="Gravesmall" xMin="30" yMin="490" xMax="246" yMax="656">
      <contour>
        <pt x="113" y="624" on="1"/>
        <pt x="246" y="490" on="1"/>
        <pt x="209" y="490" on="1"/>
        <pt x="68" y="577" on="1"/>
        <pt x="30" y="601" on="0"/>
        <pt x="30" y="621" on="1"/>
        <pt x="30" y="656" on="0"/>
        <pt x="62" y="656" on="1"/>
        <pt x="81" y="656" on="0"/>
      </contour>
    </TTGlyph>
    <TTGlyph name="Gsmall" xMin="44" yMin="-11" xMax="473" yMax="464">
      <contour>
        <pt x="383" y="377" on="0"/>
        <pt x="323" y="444" on="0"/>
        <pt x="194" y="444" on="0"/>
        <pt x="165" y="378" on="1"/>
        <pt x="144" y="327" on="0"/>
        <pt x="144" y="120" on="0"/>
        <pt x="165" y="71" on="1"/>
        <pt x="193" y="13" on="0"/>
        <pt x="328" y="15" on="0"/>
        <pt x="358" y="43" on="1"/>
        <pt x="358" y="155" on="1"/>
        <pt x="285" y="155" on="1"/>
        <pt x="285" y="182" on="1"/>
        <pt x="473" y="182" on="1"/>
        <pt x="473" y="158" on="1"/>
        <pt x="446" y="158" on="1"/>
        <pt x="446" y="29" on="1"/>
        <pt x="386" y="3" on="0"/>
        <pt x="312" y="-11" on="0"/>
        <pt x="256" y="-11" on="1"/>
        <pt x="170" y="-11" on="0"/>
        <pt x="44" y="130" on="0"/>
        <pt x="44" y="332" on="0"/>
        <pt x="107" y="400" on="1"/>
        <pt x="168" y="463" on="0"/>
        <pt x="325" y="464" on="0"/>
        <pt x="413" y="435" on="1"/>
        <pt x="413" y="309" on="1"/>
        <pt x="389" y="309" on="1"/>
      </contour>
    </TTGlyph>
    <TTGlyph name="H" xMin="44" yMin="0" xMax="718" yMax="689">
      <contour>
        <pt x="718" y="31" on="1"/>
        <pt x="718" y="0" on="1"/>
        <pt x="440" y="0" on="1"/>
        <pt x="440" y="31" on="1"/>
        <pt x="534" y="31" on="1"/>
        <pt x="534" y="345" on="1"/>
        <pt x="227" y="345" on="1"/>
        <pt x="227" y="31" on="1"/>
        <pt x="320" y="31" on="1"/>
        <pt x="320" y="0" on="1"/>
        <pt x="44" y="0" on="1"/>
        <pt x="44" y="31" on="1"/>
        <pt x="138" y="31" on="1"/>
        <pt x="138" y="658" on="1"/>
        <pt x="44" y="658" on="1"/>
        <pt x="44" y="689" on="1"/>
        <pt x="320" y="689" on="1"/>
        <pt x="320" y="658" on="1"/>
        <pt x="227" y="658" on="1"/>
        <pt x="227" y="380" on="1"/>
        <pt x="534" y="380" on="1"/>
        <pt x="534" y="658" on="1"/>
        <pt x="440" y="658" on="1"/>
        <pt x="440" y="689" on="1"/>
        <pt x="718" y="689" on="1"/>
        <pt x="718" y="658" on="1"/>
        <pt x="625" y="658" on="1"/>
        <pt x="625" y="31" on="1"/>
      </contour>
    </TTGlyph>
    <TTGlyph name="H18533" xMin="51" yMin="47" xMax="334" yMax="329">
      <contour>
        <pt x="133" y="47" on="0"/>
        <pt x="51" y="129" on="0"/>
        <pt x="51" y="248" on="0"/>
        <pt x="136" y="329" on="0"/>
        <pt x="252" y="329" on="0"/>
        <pt x="334" y="246" on="0"/>
        <pt x="334" y="129" on="0"/>
        <pt x="252" y="47" on="0"/>
      </contour>
    </TTGlyph>
    <TTGlyph name="H18543" xMin="65" yMin="91" xMax="251" yMax="277">
      <contour>
        <pt x="65" y="277" on="1"/>
        <pt x="251" y="277" on="1"/>
        <pt x="251" y="91" on="1"/>
        <pt x="65" y="91" on="1"/>
      </contour>
    </TTGlyph>
    <TTGlyph name="H18551" xMin="67" yMin="93" xMax="253" yMax="279">
      <contour>
        <pt x="67" y="279" on="1"/>
        <pt x="253" y="279" on="1"/>
        <pt x="253" y="93" on="1"/>
        <pt x="67" y="93" on="1"/>
      </contour>
      <contour>
        <pt x="222" y="124" on="1"/>
        <pt x="222" y="249" on="1"/>
        <pt x="98" y="249" on="1"/>
        <pt x="98" y="124" on="1"/>
      </contour>
    </TTGlyph>
    <TTGlyph name="H22073" xMin="28" yMin="-5" xMax="407" yMax="374">
      <contour>
        <pt x="28" y="-5" on="1"/>
        <pt x="28" y="374" on="1"/>
        <pt x="407" y="374" on="1"/>
        <pt x="407" y="-5" on="1"/>
      </contour>
      <contour>
        <pt x="377" y="344" on="1"/>
        <pt x="59" y="344" on="1"/>
        <pt x="59" y="26" on="1"/>
        <pt x="377" y="26" on="1"/>
      </contour>
    </TTGlyph>
    <TTGlyph name="Hbar" xMin="44" yMin="0" xMax="718" yMax="689">
      <contour>
        <pt x="534" y="492" on="1"/>
        <pt x="227" y="492" on="1"/>
        <pt x="227" y="380" on="1"/>
        <pt x="534" y="380" on="1"/>
      </contour>
      <contour>
        <pt x="718" y="31" on="1"/>
        <pt x="718" y="0" on="1"/>
        <pt x="440" y="0" on="1"/>
        <pt x="440" y="31" on="1"/>
        <pt x="534" y="31" on="1"/>
        <pt x="534" y="345" on="1"/>
        <pt x="227" y="345" on="1"/>
        <pt x="227" y="31" on="1"/>
        <pt x="320" y="31" on="1"/>
        <pt x="320" y="0" on="1"/>
        <pt x="44" y="0" on="1"/>
        <pt x="44" y="31" on="1"/>
        <pt x="138" y="31" on="1"/>
        <pt x="138" y="492" on="1"/>
        <pt x="48" y="492" on="1"/>
        <pt x="48" y="530" on="1"/>
        <pt x="138" y="530" on="1"/>
        <pt x="138" y="658" on="1"/>
        <pt x="44" y="658" on="1"/>
        <pt x="44" y="689" on="1"/>
        <pt x="320" y="689" on="1"/>
        <pt x="320" y="658" on="1"/>
        <pt x="227" y="658" on="1"/>
        <pt x="227" y="530" on="1"/>
        <pt x="534" y="530" on="1"/>
        <pt x="534" y="658" on="1"/>
        <pt x="440" y="658" on="1"/>
        <pt x="440" y="689" on="1"/>
        <pt x="718" y="689" on="1"/>
        <pt x="718" y="658" on="1"/>
        <pt x="625" y="658" on="1"/>
        <pt x="625" y="530" on="1"/>
        <pt x="716" y="530" on="1"/>
        <pt x="716" y="492" on="1"/>
        <pt x="625" y="492" on="1"/>
        <pt x="625" y="31" on="1"/>
      </contour>
    </TTGlyph>
    <TTGlyph name="Hcircumflex" xMin="44" yMin="0" xMax="718" yMax="902">
      <contour>
        <pt x="718" y="31" on="1"/>
        <pt x="718" y="0" on="1"/>
        <pt x="440" y="0" on="1"/>
        <pt x="440" y="31" on="1"/>
        <pt x="534" y="31" on="1"/>
        <pt x="534" y="345" on="1"/>
        <pt x="227" y="345" on="1"/>
        <pt x="227" y="31" on="1"/>
        <pt x="320" y="31" on="1"/>
        <pt x="320" y="0" on="1"/>
        <pt x="44" y="0" on="1"/>
        <pt x="44" y="31" on="1"/>
        <pt x="138" y="31" on="1"/>
        <pt x="138" y="658" on="1"/>
        <pt x="44" y="658" on="1"/>
        <pt x="44" y="689" on="1"/>
        <pt x="320" y="689" on="1"/>
        <pt x="320" y="658" on="1"/>
        <pt x="227" y="658" on="1"/>
        <pt x="227" y="380" on="1"/>
        <pt x="534" y="380" on="1"/>
        <pt x="534" y="658" on="1"/>
        <pt x="440" y="658" on="1"/>
        <pt x="440" y="689" on="1"/>
        <pt x="718" y="689" on="1"/>
        <pt x="718" y="658" on="1"/>
        <pt x="625" y="658" on="1"/>
        <pt x="625" y="31" on="1"/>
      </contour>
      <contour>
        <pt x="408" y="902" on="1"/>
        <pt x="530" y="738" on="1"/>
        <pt x="496" y="738" on="1"/>
        <pt x="377" y="839" on="1"/>
        <pt x="260" y="738" on="1"/>
        <pt x="225" y="738" on="1"/>
        <pt x="347" y="902" on="1"/>
      </contour>
    </TTGlyph>
    <TTGlyph name="Hsmall" xMin="36" yMin="0" xMax="509" yMax="457">
      <contour>
        <pt x="509" y="21" on="1"/>
        <pt x="509" y="0" on="1"/>
        <pt x="295" y="0" on="1"/>
        <pt x="295" y="21" on="1"/>
        <pt x="357" y="21" on="1"/>
        <pt x="357" y="230" on="1"/>
        <pt x="187" y="230" on="1"/>
        <pt x="187" y="21" on="1"/>
        <pt x="247" y="21" on="1"/>
        <pt x="247" y="0" on="1"/>
        <pt x="36" y="0" on="1"/>
        <pt x="36" y="21" on="1"/>
        <pt x="95" y="21" on="1"/>
        <pt x="95" y="436" on="1"/>
        <pt x="36" y="436" on="1"/>
        <pt x="36" y="457" on="1"/>
        <pt x="247" y="457" on="1"/>
        <pt x="247" y="436" on="1"/>
        <pt x="187" y="436" on="1"/>
        <pt x="187" y="253" on="1"/>
        <pt x="357" y="253" on="1"/>
        <pt x="357" y="436" on="1"/>
        <pt x="295" y="436" on="1"/>
        <pt x="295" y="457" on="1"/>
        <pt x="509" y="457" on="1"/>
        <pt x="509" y="436" on="1"/>
        <pt x="447" y="436" on="1"/>
        <pt x="447" y="21" on="1"/>
      </contour>
    </TTGlyph>
    <TTGlyph name="Hungarumlaut" xMin="-7" yMin="740" xMax="406" yMax="880">
      <contour>
        <pt x="188" y="807" on="1"/>
        <pt x="10" y="740" on="1"/>
        <pt x="-7" y="752" on="1"/>
        <pt x="157" y="877" on="1"/>
        <pt x="173" y="889" on="0"/>
        <pt x="218" y="870" on="0"/>
        <pt x="218" y="819" on="0"/>
      </contour>
      <contour>
        <pt x="376" y="807" on="1"/>
        <pt x="198" y="740" on="1"/>
        <pt x="181" y="752" on="1"/>
        <pt x="345" y="877" on="1"/>
        <pt x="363" y="889" on="0"/>
        <pt x="386" y="878" on="1"/>
        <pt x="406" y="870" on="0"/>
        <pt x="406" y="819" on="0"/>
      </contour>
    </TTGlyph>
    <TTGlyph name="Hungarumlautsmall" xMin="1" yMin="507" xMax="414" yMax="647">
      <contour>
        <pt x="196" y="575" on="1"/>
        <pt x="18" y="507" on="1"/>
        <pt x="1" y="520" on="1"/>
        <pt x="165" y="644" on="1"/>
        <pt x="181" y="657" on="0"/>
        <pt x="226" y="636" on="0"/>
        <pt x="226" y="617" on="1"/>
        <pt x="226" y="586" on="0"/>
      </contour>
      <contour>
        <pt x="384" y="575" on="1"/>
        <pt x="206" y="507" on="1"/>
        <pt x="189" y="520" on="1"/>
        <pt x="353" y="644" on="1"/>
        <pt x="369" y="657" on="0"/>
        <pt x="414" y="636" on="0"/>
        <pt x="414" y="617" on="1"/>
        <pt x="414" y="586" on="0"/>
      </contour>
    </TTGlyph>
    <TTGlyph name="I" xMin="49" yMin="0" xMax="335" yMax="689">
      <contour>
        <pt x="335" y="31" on="1"/>
        <pt x="335" y="0" on="1"/>
        <pt x="49" y="0" on="1"/>
        <pt x="49" y="31" on="1"/>
        <pt x="143" y="31" on="1"/>
        <pt x="143" y="658" on="1"/>
        <pt x="49" y="658" on="1"/>
        <pt x="49" y="689" on="1"/>
        <pt x="335" y="689" on="1"/>
        <pt x="335" y="658" on="1"/>
        <pt x="242" y="658" on="1"/>
        <pt x="242" y="31" on="1"/>
      </contour>
    </TTGlyph>
    <TTGlyph name="IJ" xMin="49" yMin="-192" xMax="618" yMax="689">
      <contour>
        <pt x="425" y="658" on="1"/>
        <pt x="242" y="658" on="1"/>
        <pt x="242" y="31" on="1"/>
        <pt x="335" y="31" on="1"/>
        <pt x="335" y="0" on="1"/>
        <pt x="49" y="0" on="1"/>
        <pt x="49" y="31" on="1"/>
        <pt x="143" y="31" on="1"/>
        <pt x="143" y="658" on="1"/>
        <pt x="49" y="658" on="1"/>
        <pt x="49" y="689" on="1"/>
        <pt x="618" y="689" on="1"/>
        <pt x="618" y="658" on="1"/>
        <pt x="523" y="658" on="1"/>
        <pt x="523" y="115" on="1"/>
        <pt x="523" y="-41" on="0"/>
        <pt x="456" y="-127" on="1"/>
        <pt x="410" y="-186" on="0"/>
        <pt x="326" y="-192" on="1"/>
        <pt x="307" y="-193" on="0"/>
        <pt x="283" y="-165" on="0"/>
        <pt x="283" y="-145" on="1"/>
        <pt x="283" y="-114" on="0"/>
        <pt x="313" y="-106" on="1"/>
        <pt x="321" y="-104" on="0"/>
        <pt x="368" y="-134" on="0"/>
        <pt x="386" y="-131" on="1"/>
        <pt x="409" y="-128" on="0"/>
        <pt x="419" y="-97" on="1"/>
        <pt x="425" y="-81" on="0"/>
        <pt x="425" y="-15" on="1"/>
      </contour>
    </TTGlyph>
    <TTGlyph name="Iacute" xMin="49" yMin="0" xMax="351" yMax="947">
      <contour>
        <pt x="335" y="31" on="1"/>
        <pt x="335" y="0" on="1"/>
        <pt x="49" y="0" on="1"/>
        <pt x="49" y="31" on="1"/>
        <pt x="143" y="31" on="1"/>
        <pt x="143" y="658" on="1"/>
        <pt x="49" y="658" on="1"/>
        <pt x="49" y="689" on="1"/>
        <pt x="335" y="689" on="1"/>
        <pt x="335" y="658" on="1"/>
        <pt x="242" y="658" on="1"/>
        <pt x="242" y="31" on="1"/>
      </contour>
      <contour>
        <pt x="351" y="911" on="1"/>
        <pt x="351" y="890" on="0"/>
        <pt x="338" y="877" on="1"/>
        <pt x="205" y="741" on="1"/>
        <pt x="184" y="746" on="1"/>
        <pt x="281" y="927" on="1"/>
        <pt x="292" y="947" on="0"/>
        <pt x="318" y="947" on="1"/>
        <pt x="351" y="947" on="0"/>
      </contour>
    </TTGlyph>
    <TTGlyph name="Iacutesmall" xMin="30" yMin="0" xMax="275" yMax="683">
      <contour>
        <pt x="243" y="21" on="1"/>
        <pt x="243" y="0" on="1"/>
        <pt x="30" y="0" on="1"/>
        <pt x="30" y="21" on="1"/>
        <pt x="91" y="21" on="1"/>
        <pt x="91" y="433" on="1"/>
        <pt x="30" y="433" on="1"/>
        <pt x="30" y="454" on="1"/>
        <pt x="243" y="454" on="1"/>
        <pt x="243" y="433" on="1"/>
        <pt x="182" y="433" on="1"/>
        <pt x="182" y="21" on="1"/>
      </contour>
      <contour>
        <pt x="275" y="655" on="1"/>
        <pt x="275" y="638" on="0"/>
        <pt x="264" y="627" on="1"/>
        <pt x="145" y="518" on="1"/>
        <pt x="124" y="522" on="1"/>
        <pt x="212" y="667" on="1"/>
        <pt x="221" y="683" on="0"/>
        <pt x="245" y="683" on="1"/>
        <pt x="275" y="683" on="0"/>
      </contour>
    </TTGlyph>
    <TTGlyph name="Ibreve" xMin="49" yMin="0" xMax="349" yMax="900">
      <contour>
        <pt x="349" y="31" on="1"/>
        <pt x="349" y="0" on="1"/>
        <pt x="63" y="0" on="1"/>
        <pt x="63" y="31" on="1"/>
        <pt x="157" y="31" on="1"/>
        <pt x="157" y="658" on="1"/>
        <pt x="63" y="658" on="1"/>
        <pt x="63" y="689" on="1"/>
        <pt x="349" y="689" on="1"/>
        <pt x="349" y="658" on="1"/>
        <pt x="256" y="658" on="1"/>
        <pt x="256" y="31" on="1"/>
      </contour>
      <contour>
        <pt x="342" y="900" on="1"/>
        <pt x="345" y="897" on="1"/>
        <pt x="345" y="831" on="0"/>
        <pt x="264" y="743" on="0"/>
        <pt x="131" y="743" on="0"/>
        <pt x="49" y="828" on="0"/>
        <pt x="49" y="897" on="1"/>
        <pt x="52" y="900" on="1"/>
        <pt x="78" y="900" on="1"/>
        <pt x="98" y="807" on="0"/>
        <pt x="300" y="807" on="0"/>
        <pt x="316" y="900" on="1"/>
      </contour>
    </TTGlyph>
    <TTGlyph name="Icircumflex" xMin="37" yMin="0" xMax="342" yMax="911">
      <contour>
        <pt x="335" y="31" on="1"/>
        <pt x="335" y="0" on="1"/>
        <pt x="49" y="0" on="1"/>
        <pt x="49" y="31" on="1"/>
        <pt x="143" y="31" on="1"/>
        <pt x="143" y="658" on="1"/>
        <pt x="49" y="658" on="1"/>
        <pt x="49" y="689" on="1"/>
        <pt x="335" y="689" on="1"/>
        <pt x="335" y="658" on="1"/>
        <pt x="242" y="658" on="1"/>
        <pt x="242" y="31" on="1"/>
      </contour>
      <contour>
        <pt x="220" y="911" on="1"/>
        <pt x="342" y="747" on="1"/>
        <pt x="308" y="747" on="1"/>
        <pt x="189" y="848" on="1"/>
        <pt x="72" y="747" on="1"/>
        <pt x="37" y="747" on="1"/>
        <pt x="159" y="911" on="1"/>
      </contour>
    </TTGlyph>
    <TTGlyph name="Icircumflexsmall" xMin="11" yMin="0" xMax="253" yMax="660">
      <contour>
        <pt x="243" y="21" on="1"/>
        <pt x="243" y="0" on="1"/>
        <pt x="30" y="0" on="1"/>
        <pt x="30" y="21" on="1"/>
        <pt x="91" y="21" on="1"/>
        <pt x="91" y="433" on="1"/>
        <pt x="30" y="433" on="1"/>
        <pt x="30" y="454" on="1"/>
        <pt x="243" y="454" on="1"/>
        <pt x="243" y="433" on="1"/>
        <pt x="182" y="433" on="1"/>
        <pt x="182" y="21" on="1"/>
      </contour>
      <contour>
        <pt x="156" y="660" on="1"/>
        <pt x="253" y="531" on="1"/>
        <pt x="223" y="531" on="1"/>
        <pt x="132" y="609" on="1"/>
        <pt x="40" y="531" on="1"/>
        <pt x="11" y="531" on="1"/>
        <pt x="108" y="660" on="1"/>
      </contour>
    </TTGlyph>
    <TTGlyph name="Idieresis" xMin="40" yMin="0" xMax="335" yMax="835">
      <contour>
        <pt x="335" y="31" on="1"/>
        <pt x="335" y="0" on="1"/>
        <pt x="49" y="0" on="1"/>
        <pt x="49" y="31" on="1"/>
        <pt x="143" y="31" on="1"/>
        <pt x="143" y="658" on="1"/>
        <pt x="49" y="658" on="1"/>
        <pt x="49" y="689" on="1"/>
        <pt x="335" y="689" on="1"/>
        <pt x="335" y="658" on="1"/>
        <pt x="242" y="658" on="1"/>
        <pt x="242" y="31" on="1"/>
      </contour>
      <contour>
        <pt x="333" y="835" on="0"/>
        <pt x="333" y="737" on="0"/>
        <pt x="236" y="737" on="0"/>
        <pt x="236" y="835" on="0"/>
      </contour>
      <contour>
        <pt x="138" y="835" on="0"/>
        <pt x="138" y="737" on="0"/>
        <pt x="40" y="737" on="0"/>
        <pt x="40" y="835" on="0"/>
      </contour>
    </TTGlyph>
    <TTGlyph name="Idieresissmall" xMin="-6" yMin="0" xMax="285" yMax="629">
      <contour>
        <pt x="243" y="21" on="1"/>
        <pt x="243" y="0" on="1"/>
        <pt x="30" y="0" on="1"/>
        <pt x="30" y="21" on="1"/>
        <pt x="91" y="21" on="1"/>
        <pt x="91" y="433" on="1"/>
        <pt x="30" y="433" on="1"/>
        <pt x="30" y="454" on="1"/>
        <pt x="243" y="454" on="1"/>
        <pt x="243" y="433" on="1"/>
        <pt x="182" y="433" on="1"/>
        <pt x="182" y="21" on="1"/>
      </contour>
      <contour>
        <pt x="285" y="629" on="0"/>
        <pt x="285" y="531" on="0"/>
        <pt x="188" y="531" on="0"/>
        <pt x="188" y="629" on="0"/>
      </contour>
      <contour>
        <pt x="91" y="629" on="0"/>
        <pt x="91" y="531" on="0"/>
        <pt x="-6" y="531" on="0"/>
        <pt x="-6" y="629" on="0"/>
      </contour>
    </TTGlyph>
    <TTGlyph name="Idotaccent" xMin="49" yMin="0" xMax="335" yMax="851">
      <contour>
        <pt x="335" y="31" on="1"/>
        <pt x="335" y="0" on="1"/>
        <pt x="49" y="0" on="1"/>
        <pt x="49" y="31" on="1"/>
        <pt x="143" y="31" on="1"/>
        <pt x="143" y="658" on="1"/>
        <pt x="49" y="658" on="1"/>
        <pt x="49" y="689" on="1"/>
        <pt x="335" y="689" on="1"/>
        <pt x="335" y="658" on="1"/>
        <pt x="242" y="658" on="1"/>
        <pt x="242" y="31" on="1"/>
      </contour>
      <contour>
        <pt x="246" y="774" on="0"/>
        <pt x="214" y="742" on="0"/>
        <pt x="169" y="742" on="0"/>
        <pt x="137" y="774" on="0"/>
        <pt x="137" y="819" on="0"/>
        <pt x="169" y="851" on="0"/>
        <pt x="214" y="851" on="0"/>
        <pt x="246" y="819" on="0"/>
      </contour>
    </TTGlyph>
    <TTGlyph name="Idotbelow" xMin="49" yMin="-236" xMax="335" yMax="689">
      <contour>
        <pt x="335" y="31" on="1"/>
        <pt x="335" y="0" on="1"/>
        <pt x="49" y="0" on="1"/>
        <pt x="49" y="31" on="1"/>
        <pt x="143" y="31" on="1"/>
        <pt x="143" y="658" on="1"/>
        <pt x="49" y="658" on="1"/>
        <pt x="49" y="689" on="1"/>
        <pt x="335" y="689" on="1"/>
        <pt x="335" y="658" on="1"/>
        <pt x="242" y="658" on="1"/>
        <pt x="242" y="31" on="1"/>
      </contour>
      <contour>
        <pt x="211" y="-130" on="0"/>
        <pt x="242" y="-161" on="0"/>
        <pt x="242" y="-205" on="0"/>
        <pt x="210" y="-236" on="0"/>
        <pt x="166" y="-236" on="0"/>
        <pt x="134" y="-205" on="0"/>
        <pt x="134" y="-161" on="0"/>
        <pt x="166" y="-130" on="0"/>
      </contour>
    </TTGlyph>
    <TTGlyph name="Igrave" xMin="1" yMin="0" xMax="335" yMax="904">
      <contour>
        <pt x="335" y="31" on="1"/>
        <pt x="335" y="0" on="1"/>
        <pt x="49" y="0" on="1"/>
        <pt x="49" y="31" on="1"/>
        <pt x="143" y="31" on="1"/>
        <pt x="143" y="658" on="1"/>
        <pt x="49" y="658" on="1"/>
        <pt x="49" y="689" on="1"/>
        <pt x="335" y="689" on="1"/>
        <pt x="335" y="658" on="1"/>
        <pt x="242" y="658" on="1"/>
        <pt x="242" y="31" on="1"/>
      </contour>
      <contour>
        <pt x="85" y="873" on="1"/>
        <pt x="218" y="739" on="1"/>
        <pt x="180" y="739" on="1"/>
        <pt x="40" y="826" on="1"/>
        <pt x="1" y="850" on="0"/>
        <pt x="1" y="871" on="1"/>
        <pt x="1" y="904" on="0"/>
        <pt x="33" y="904" on="1"/>
        <pt x="54" y="904" on="0"/>
      </contour>
    </TTGlyph>
    <TTGlyph name="Igravesmall" xMin="-60" yMin="0" xMax="243" yMax="649">
      <contour>
        <pt x="243" y="21" on="1"/>
        <pt x="243" y="0" on="1"/>
        <pt x="30" y="0" on="1"/>
        <pt x="30" y="21" on="1"/>
        <pt x="91" y="21" on="1"/>
        <pt x="91" y="433" on="1"/>
        <pt x="30" y="433" on="1"/>
        <pt x="30" y="454" on="1"/>
        <pt x="243" y="454" on="1"/>
        <pt x="243" y="433" on="1"/>
        <pt x="182" y="433" on="1"/>
        <pt x="182" y="21" on="1"/>
      </contour>
      <contour>
        <pt x="23" y="623" on="1"/>
        <pt x="157" y="515" on="1"/>
        <pt x="119" y="515" on="1"/>
        <pt x="-20" y="585" on="1"/>
        <pt x="-60" y="604" on="0"/>
        <pt x="-60" y="622" on="1"/>
        <pt x="-60" y="649" on="0"/>
        <pt x="-28" y="649" on="1"/>
        <pt x="-9" y="649" on="0"/>
      </contour>
    </TTGlyph>
    <TTGlyph name="Ihookabove" xMin="49" yMin="0" xMax="335" yMax="932">
      <contour>
        <pt x="335" y="31" on="1"/>
        <pt x="335" y="0" on="1"/>
        <pt x="49" y="0" on="1"/>
        <pt x="49" y="31" on="1"/>
        <pt x="143" y="31" on="1"/>
        <pt x="143" y="658" on="1"/>
        <pt x="49" y="658" on="1"/>
        <pt x="49" y="689" on="1"/>
        <pt x="335" y="689" on="1"/>
        <pt x="335" y="658" on="1"/>
        <pt x="242" y="658" on="1"/>
        <pt x="242" y="31" on="1"/>
      </contour>
      <contour>
        <pt x="182" y="763" on="1"/>
        <pt x="182" y="760" on="0"/>
        <pt x="195" y="738" on="0"/>
        <pt x="182" y="738" on="1"/>
        <pt x="173" y="738" on="0"/>
        <pt x="161" y="756" on="0"/>
        <pt x="161" y="782" on="0"/>
        <pt x="215" y="846" on="0"/>
        <pt x="215" y="861" on="1"/>
        <pt x="215" y="900" on="0"/>
        <pt x="173" y="895" on="1"/>
        <pt x="154" y="894" on="0"/>
        <pt x="140" y="868" on="1"/>
        <pt x="134" y="858" on="0"/>
        <pt x="125" y="858" on="1"/>
        <pt x="113" y="858" on="0"/>
        <pt x="113" y="892" on="0"/>
        <pt x="146" y="924" on="0"/>
        <pt x="166" y="928" on="1"/>
        <pt x="177" y="932" on="0"/>
        <pt x="217" y="932" on="0"/>
        <pt x="256" y="898" on="0"/>
        <pt x="256" y="845" on="0"/>
        <pt x="182" y="773" on="0"/>
      </contour>
    </TTGlyph>
    <TTGlyph name="Imacron" xMin="42" yMin="0" xMax="358" yMax="795">
      <contour>
        <pt x="344" y="31" on="1"/>
        <pt x="344" y="0" on="1"/>
        <pt x="58" y="0" on="1"/>
        <pt x="58" y="31" on="1"/>
        <pt x="152" y="31" on="1"/>
        <pt x="152" y="658" on="1"/>
        <pt x="58" y="658" on="1"/>
        <pt x="58" y="689" on="1"/>
        <pt x="344" y="689" on="1"/>
        <pt x="344" y="658" on="1"/>
        <pt x="251" y="658" on="1"/>
        <pt x="251" y="31" on="1"/>
      </contour>
      <contour>
        <pt x="358" y="795" on="1"/>
        <pt x="358" y="745" on="1"/>
        <pt x="42" y="745" on="1"/>
        <pt x="42" y="795" on="1"/>
      </contour>
    </TTGlyph>
    <TTGlyph name="Iogonek" xMin="49" yMin="-198" xMax="335" yMax="689">
      <contour>
        <pt x="210" y="-144" on="1"/>
        <pt x="244" y="-144" on="0"/>
        <pt x="296" y="-112" on="1"/>
        <pt x="314" y="-132" on="0"/>
        <pt x="311" y="-132" on="1"/>
        <pt x="292" y="-157" on="0"/>
        <pt x="213" y="-198" on="0"/>
        <pt x="142" y="-198" on="0"/>
        <pt x="104" y="-151" on="0"/>
        <pt x="104" y="-121" on="1"/>
        <pt x="104" y="-60" on="0"/>
        <pt x="182" y="0" on="1"/>
        <pt x="49" y="0" on="1"/>
        <pt x="49" y="31" on="1"/>
        <pt x="143" y="31" on="1"/>
        <pt x="143" y="658" on="1"/>
        <pt x="49" y="658" on="1"/>
        <pt x="49" y="689" on="1"/>
        <pt x="335" y="689" on="1"/>
        <pt x="335" y="658" on="1"/>
        <pt x="242" y="658" on="1"/>
        <pt x="242" y="31" on="1"/>
        <pt x="335" y="31" on="1"/>
        <pt x="335" y="0" on="1"/>
        <pt x="219" y="0" on="1"/>
        <pt x="165" y="-62" on="0"/>
        <pt x="165" y="-106" on="1"/>
        <pt x="165" y="-144" on="0"/>
      </contour>
    </TTGlyph>
    <TTGlyph name="Iota" xMin="49" yMin="0" xMax="335" yMax="689">
      <contour>
        <pt x="335" y="31" on="1"/>
        <pt x="335" y="0" on="1"/>
        <pt x="49" y="0" on="1"/>
        <pt x="49" y="31" on="1"/>
        <pt x="143" y="31" on="1"/>
        <pt x="143" y="658" on="1"/>
        <pt x="49" y="658" on="1"/>
        <pt x="49" y="689" on="1"/>
        <pt x="335" y="689" on="1"/>
        <pt x="335" y="658" on="1"/>
        <pt x="242" y="658" on="1"/>
        <pt x="242" y="31" on="1"/>
      </contour>
    </TTGlyph>
    <TTGlyph name="Iotadieresis" xMin="46" yMin="0" xMax="339" yMax="836">
      <contour>
        <pt x="335" y="31" on="1"/>
        <pt x="335" y="0" on="1"/>
        <pt x="49" y="0" on="1"/>
        <pt x="49" y="31" on="1"/>
        <pt x="143" y="31" on="1"/>
        <pt x="143" y="658" on="1"/>
        <pt x="49" y="658" on="1"/>
        <pt x="49" y="689" on="1"/>
        <pt x="335" y="689" on="1"/>
        <pt x="335" y="658" on="1"/>
        <pt x="242" y="658" on="1"/>
        <pt x="242" y="31" on="1"/>
      </contour>
      <contour>
        <pt x="339" y="836" on="0"/>
        <pt x="339" y="738" on="0"/>
        <pt x="242" y="738" on="0"/>
        <pt x="242" y="836" on="0"/>
      </contour>
      <contour>
        <pt x="144" y="836" on="0"/>
        <pt x="144" y="738" on="0"/>
        <pt x="46" y="738" on="0"/>
        <pt x="46" y="836" on="0"/>
      </contour>
    </TTGlyph>
    <TTGlyph name="Iotatonos" xMin="-120" yMin="0" xMax="388" yMax="708">
      <contour>
        <pt x="388" y="31" on="1"/>
        <pt x="388" y="0" on="1"/>
        <pt x="102" y="0" on="1"/>
        <pt x="102" y="31" on="1"/>
        <pt x="196" y="31" on="1"/>
        <pt x="196" y="658" on="1"/>
        <pt x="102" y="658" on="1"/>
        <pt x="102" y="689" on="1"/>
        <pt x="388" y="689" on="1"/>
        <pt x="388" y="658" on="1"/>
        <pt x="295" y="658" on="1"/>
        <pt x="295" y="31" on="1"/>
      </contour>
      <contour>
        <pt x="47" y="672" on="1"/>
        <pt x="47" y="651" on="0"/>
        <pt x="34" y="638" on="1"/>
        <pt x="-99" y="502" on="1"/>
        <pt x="-120" y="507" on="1"/>
        <pt x="-23" y="688" on="1"/>
        <pt x="-12" y="708" on="0"/>
        <pt x="14" y="708" on="1"/>
        <pt x="47" y="708" on="0"/>
      </contour>
    </TTGlyph>
    <TTGlyph name="Ismall" xMin="40" yMin="0" xMax="253" yMax="457">
      <contour>
        <pt x="253" y="21" on="1"/>
        <pt x="253" y="0" on="1"/>
        <pt x="40" y="0" on="1"/>
        <pt x="40" y="21" on="1"/>
        <pt x="101" y="21" on="1"/>
        <pt x="101" y="436" on="1"/>
        <pt x="40" y="436" on="1"/>
        <pt x="40" y="457" on="1"/>
        <pt x="253" y="457" on="1"/>
        <pt x="253" y="436" on="1"/>
        <pt x="192" y="436" on="1"/>
        <pt x="192" y="21" on="1"/>
      </contour>
    </TTGlyph>
    <TTGlyph name="Itilde" xMin="49" yMin="0" xMax="388" yMax="857">
      <contour>
        <pt x="358" y="31" on="1"/>
        <pt x="358" y="0" on="1"/>
        <pt x="72" y="0" on="1"/>
        <pt x="72" y="31" on="1"/>
        <pt x="166" y="31" on="1"/>
        <pt x="166" y="658" on="1"/>
        <pt x="72" y="658" on="1"/>
        <pt x="72" y="689" on="1"/>
        <pt x="358" y="689" on="1"/>
        <pt x="358" y="658" on="1"/>
        <pt x="265" y="658" on="1"/>
        <pt x="265" y="31" on="1"/>
      </contour>
      <contour>
        <pt x="385" y="857" on="1"/>
        <pt x="388" y="854" on="1"/>
        <pt x="379" y="814" on="0"/>
        <pt x="321" y="748" on="0"/>
        <pt x="251" y="748" on="0"/>
        <pt x="149" y="796" on="0"/>
        <pt x="133" y="796" on="1"/>
        <pt x="90" y="796" on="0"/>
        <pt x="74" y="748" on="1"/>
        <pt x="52" y="748" on="1"/>
        <pt x="49" y="751" on="1"/>
        <pt x="55" y="793" on="0"/>
        <pt x="115" y="857" on="0"/>
        <pt x="183" y="857" on="0"/>
        <pt x="285" y="809" on="0"/>
        <pt x="304" y="809" on="1"/>
        <pt x="344" y="809" on="0"/>
        <pt x="363" y="857" on="1"/>
      </contour>
    </TTGlyph>
    <TTGlyph name="J" xMin="-26" yMin="-192" xMax="309" yMax="689">
      <contour>
        <pt x="309" y="689" on="1"/>
        <pt x="309" y="658" on="1"/>
        <pt x="214" y="658" on="1"/>
        <pt x="214" y="115" on="1"/>
        <pt x="214" y="-41" on="0"/>
        <pt x="147" y="-127" on="1"/>
        <pt x="101" y="-186" on="0"/>
        <pt x="17" y="-192" on="1"/>
        <pt x="-2" y="-193" on="0"/>
        <pt x="-26" y="-165" on="0"/>
        <pt x="-26" y="-145" on="1"/>
        <pt x="-26" y="-114" on="0"/>
        <pt x="4" y="-106" on="1"/>
        <pt x="12" y="-104" on="0"/>
        <pt x="59" y="-134" on="0"/>
        <pt x="77" y="-131" on="1"/>
        <pt x="100" y="-128" on="0"/>
        <pt x="110" y="-97" on="1"/>
        <pt x="116" y="-81" on="0"/>
        <pt x="116" y="-15" on="1"/>
        <pt x="116" y="658" on="1"/>
        <pt x="22" y="658" on="1"/>
        <pt x="22" y="689" on="1"/>
      </contour>
    </TTGlyph>
    <TTGlyph name="Jcircumflex" xMin="-26" yMin="-192" xMax="315" yMax="909">
      <contour>
        <pt x="309" y="689" on="1"/>
        <pt x="309" y="658" on="1"/>
        <pt x="214" y="658" on="1"/>
        <pt x="214" y="115" on="1"/>
        <pt x="214" y="-41" on="0"/>
        <pt x="147" y="-127" on="1"/>
        <pt x="101" y="-186" on="0"/>
        <pt x="17" y="-192" on="1"/>
        <pt x="-2" y="-193" on="0"/>
        <pt x="-26" y="-165" on="0"/>
        <pt x="-26" y="-145" on="1"/>
        <pt x="-26" y="-114" on="0"/>
        <pt x="4" y="-106" on="1"/>
        <pt x="12" y="-104" on="0"/>
        <pt x="59" y="-134" on="0"/>
        <pt x="77" y="-131" on="1"/>
        <pt x="100" y="-128" on="0"/>
        <pt x="110" y="-97" on="1"/>
        <pt x="116" y="-81" on="0"/>
        <pt x="116" y="-15" on="1"/>
        <pt x="116" y="658" on="1"/>
        <pt x="22" y="658" on="1"/>
        <pt x="22" y="689" on="1"/>
      </contour>
      <contour>
        <pt x="193" y="909" on="1"/>
        <pt x="315" y="745" on="1"/>
        <pt x="281" y="745" on="1"/>
        <pt x="162" y="846" on="1"/>
        <pt x="45" y="745" on="1"/>
        <pt x="10" y="745" on="1"/>
        <pt x="132" y="909" on="1"/>
      </contour>
    </TTGlyph>
    <TTGlyph name="Jsmall" xMin="-12" yMin="-142" xMax="255" yMax="453">
      <contour>
        <pt x="194" y="433" on="1"/>
        <pt x="194" y="105" on="1"/>
        <pt x="194" y="-20" on="0"/>
        <pt x="140" y="-89" on="1"/>
        <pt x="104" y="-137" on="0"/>
        <pt x="31" y="-142" on="1"/>
        <pt x="14" y="-143" on="0"/>
        <pt x="-12" y="-120" on="0"/>
        <pt x="-12" y="-105" on="1"/>
        <pt x="-12" y="-73" on="0"/>
        <pt x="12" y="-73" on="1"/>
        <pt x="23" y="-73" on="0"/>
        <pt x="55" y="-95" on="0"/>
        <pt x="71" y="-93" on="1"/>
        <pt x="90" y="-91" on="0"/>
        <pt x="99" y="-66" on="1"/>
        <pt x="103" y="-54" on="0"/>
        <pt x="103" y="0" on="1"/>
        <pt x="103" y="433" on="1"/>
        <pt x="42" y="433" on="1"/>
        <pt x="42" y="453" on="1"/>
        <pt x="255" y="453" on="1"/>
        <pt x="255" y="433" on="1"/>
      </contour>
    </TTGlyph>
    <TTGlyph name="K" xMin="31" yMin="0" xMax="747" yMax="689">
      <contour>
        <pt x="747" y="31" on="1"/>
        <pt x="747" y="0" on="1"/>
        <pt x="451" y="0" on="1"/>
        <pt x="451" y="31" on="1"/>
        <pt x="523" y="31" on="0"/>
        <pt x="523" y="57" on="1"/>
        <pt x="523" y="72" on="0"/>
        <pt x="513" y="89" on="1"/>
        <pt x="344" y="377" on="1"/>
        <pt x="215" y="230" on="1"/>
        <pt x="215" y="31" on="1"/>
        <pt x="308" y="31" on="1"/>
        <pt x="308" y="0" on="1"/>
        <pt x="31" y="0" on="1"/>
        <pt x="31" y="31" on="1"/>
        <pt x="124" y="31" on="1"/>
        <pt x="124" y="658" on="1"/>
        <pt x="31" y="658" on="1"/>
        <pt x="31" y="689" on="1"/>
        <pt x="310" y="689" on="1"/>
        <pt x="310" y="658" on="1"/>
        <pt x="217" y="658" on="1"/>
        <pt x="217" y="288" on="1"/>
        <pt x="486" y="586" on="1"/>
        <pt x="505" y="605" on="0"/>
        <pt x="505" y="635" on="0"/>
        <pt x="488" y="659" on="0"/>
        <pt x="433" y="658" on="1"/>
        <pt x="433" y="689" on="1"/>
        <pt x="683" y="689" on="1"/>
        <pt x="683" y="658" on="1"/>
        <pt x="618" y="658" on="0"/>
        <pt x="567" y="624" on="0"/>
        <pt x="515" y="565" on="1"/>
        <pt x="415" y="453" on="1"/>
        <pt x="626" y="87" on="1"/>
        <pt x="627" y="84" on="0"/>
        <pt x="631" y="77" on="1"/>
        <pt x="637" y="66" on="1"/>
        <pt x="652" y="41" on="0"/>
        <pt x="669" y="35" on="1"/>
        <pt x="678" y="31" on="0"/>
      </contour>
    </TTGlyph>
    <TTGlyph name="Kappa" xMin="44" yMin="0" xMax="760" yMax="689">
      <contour>
        <pt x="760" y="31" on="1"/>
        <pt x="760" y="0" on="1"/>
        <pt x="466" y="0" on="1"/>
        <pt x="466" y="31" on="1"/>
        <pt x="496" y="31" on="0"/>
        <pt x="510" y="33" on="1"/>
        <pt x="537" y="38" on="0"/>
        <pt x="537" y="78" on="0"/>
        <pt x="456" y="215" on="1"/>
        <pt x="358" y="377" on="1"/>
        <pt x="229" y="230" on="1"/>
        <pt x="229" y="31" on="1"/>
        <pt x="323" y="31" on="1"/>
        <pt x="323" y="0" on="1"/>
        <pt x="44" y="0" on="1"/>
        <pt x="44" y="31" on="1"/>
        <pt x="138" y="31" on="1"/>
        <pt x="138" y="658" on="1"/>
        <pt x="44" y="658" on="1"/>
        <pt x="44" y="689" on="1"/>
        <pt x="324" y="689" on="1"/>
        <pt x="324" y="658" on="1"/>
        <pt x="230" y="658" on="1"/>
        <pt x="230" y="288" on="1"/>
        <pt x="389" y="455" on="1"/>
        <pt x="519" y="597" on="0"/>
        <pt x="519" y="624" on="1"/>
        <pt x="519" y="662" on="0"/>
        <pt x="447" y="658" on="1"/>
        <pt x="447" y="689" on="1"/>
        <pt x="697" y="689" on="1"/>
        <pt x="697" y="658" on="1"/>
        <pt x="669" y="658" on="1"/>
        <pt x="614" y="659" on="0"/>
        <pt x="537" y="579" on="1"/>
        <pt x="429" y="453" on="1"/>
        <pt x="640" y="87" on="1"/>
        <pt x="665" y="42" on="0"/>
        <pt x="686" y="34" on="1"/>
        <pt x="696" y="31" on="0"/>
      </contour>
    </TTGlyph>
    <TTGlyph name="Kcommaaccent" xMin="31" yMin="-274" xMax="747" yMax="689">
      <contour>
        <pt x="747" y="31" on="1"/>
        <pt x="747" y="0" on="1"/>
        <pt x="451" y="0" on="1"/>
        <pt x="451" y="31" on="1"/>
        <pt x="523" y="31" on="0"/>
        <pt x="523" y="57" on="1"/>
        <pt x="523" y="72" on="0"/>
        <pt x="513" y="89" on="1"/>
        <pt x="344" y="377" on="1"/>
        <pt x="215" y="230" on="1"/>
        <pt x="215" y="31" on="1"/>
        <pt x="308" y="31" on="1"/>
        <pt x="308" y="0" on="1"/>
        <pt x="31" y="0" on="1"/>
        <pt x="31" y="31" on="1"/>
        <pt x="124" y="31" on="1"/>
        <pt x="124" y="658" on="1"/>
        <pt x="31" y="658" on="1"/>
        <pt x="31" y="689" on="1"/>
        <pt x="310" y="689" on="1"/>
        <pt x="310" y="658" on="1"/>
        <pt x="217" y="658" on="1"/>
        <pt x="217" y="288" on="1"/>
        <pt x="486" y="586" on="1"/>
        <pt x="505" y="605" on="0"/>
        <pt x="505" y="635" on="0"/>
        <pt x="488" y="659" on="0"/>
        <pt x="433" y="658" on="1"/>
        <pt x="433" y="689" on="1"/>
        <pt x="683" y="689" on="1"/>
        <pt x="683" y="658" on="1"/>
        <pt x="618" y="658" on="0"/>
        <pt x="567" y="624" on="0"/>
        <pt x="515" y="565" on="1"/>
        <pt x="415" y="453" on="1"/>
        <pt x="626" y="87" on="1"/>
        <pt x="627" y="84" on="0"/>
        <pt x="631" y="77" on="1"/>
        <pt x="637" y="66" on="1"/>
        <pt x="652" y="41" on="0"/>
        <pt x="669" y="35" on="1"/>
        <pt x="678" y="31" on="0"/>
      </contour>
      <contour>
        <pt x="312" y="-274" on="1"/>
        <pt x="307" y="-253" on="1"/>
        <pt x="393" y="-239" on="0"/>
        <pt x="393" y="-190" on="1"/>
        <pt x="393" y="-176" on="0"/>
        <pt x="373" y="-174" on="1"/>
        <pt x="308" y="-172" on="0"/>
        <pt x="308" y="-114" on="1"/>
        <pt x="308" y="-89" on="0"/>
        <pt x="342" y="-58" on="0"/>
        <pt x="369" y="-58" on="1"/>
        <pt x="437" y="-58" on="0"/>
        <pt x="437" y="-138" on="1"/>
        <pt x="437" y="-262" on="0"/>
      </contour>
    </TTGlyph>
    <TTGlyph name="Ksmall" xMin="43" yMin="0" xMax="546" yMax="457">
      <contour>
        <pt x="546" y="21" on="1"/>
        <pt x="546" y="0" on="1"/>
        <pt x="320" y="0" on="1"/>
        <pt x="320" y="21" on="1"/>
        <pt x="361" y="21" on="0"/>
        <pt x="371" y="41" on="0"/>
        <pt x="360" y="58" on="1"/>
        <pt x="262" y="228" on="1"/>
        <pt x="195" y="153" on="1"/>
        <pt x="195" y="21" on="1"/>
        <pt x="256" y="21" on="1"/>
        <pt x="256" y="0" on="1"/>
        <pt x="43" y="0" on="1"/>
        <pt x="43" y="21" on="1"/>
        <pt x="103" y="21" on="1"/>
        <pt x="103" y="436" on="1"/>
        <pt x="43" y="436" on="1"/>
        <pt x="43" y="457" on="1"/>
        <pt x="256" y="457" on="1"/>
        <pt x="256" y="436" on="1"/>
        <pt x="195" y="436" on="1"/>
        <pt x="195" y="194" on="1"/>
        <pt x="370" y="388" on="1"/>
        <pt x="383" y="402" on="0"/>
        <pt x="383" y="420" on="0"/>
        <pt x="382" y="424" on="1"/>
        <pt x="377" y="436" on="0"/>
        <pt x="336" y="436" on="1"/>
        <pt x="336" y="457" on="1"/>
        <pt x="505" y="457" on="1"/>
        <pt x="505" y="436" on="1"/>
        <pt x="460" y="436" on="0"/>
        <pt x="424" y="411" on="0"/>
        <pt x="402" y="385" on="1"/>
        <pt x="327" y="300" on="1"/>
        <pt x="467" y="57" on="1"/>
        <pt x="484" y="28" on="0"/>
        <pt x="502" y="21" on="0"/>
      </contour>
    </TTGlyph>
</ttFont>
